# MagicaVoxel @ Ephtracy

# group
o 

# material
mtllib Hero.mtl
usemtl palette

# normals
vn -1 0 0
vn 1 0 0
vn 0 0 1
vn 0 0 -1
vn 0 -1 0
vn 0 1 0

# texcoords
vt 0.00585938 0.5
vt 0.0566406 0.5
vt 0.396484 0.5
vt 0.423828 0.5
vt 0.662109 0.5
vt 0.861328 0.5
vt 0.958984 0.5
vt 0.962891 0.5
vt 0.970703 0.5
vt 0.974609 0.5
vt 0.978516 0.5
vt 0.990234 0.5
vt 0.994141 0.5

# verts
v -0.7 0.5 0.4
v -0.7 0.5 0.3
v -0.7 0.6 0.3
v -0.7 0.6 0.2
v -0.7 0.6 0.1
v -0.7 0.6 0
v -0.7 0.8 0.3
v -0.7 0.8 0.2
v -0.7 0.8 0.1
v -0.7 0.8 0
v -0.7 1 0.5
v -0.7 1 0.4
v -0.7 1.1 0.6
v -0.7 1.1 0.5
v -0.7 1.4 0.6
v -0.7 1.4 0.5
v -0.7 1.4 0.4
v -0.7 1.4 0.3
v -0.7 1.5 0.5
v -0.7 1.5 0.4
v -0.6 0.6 0
v -0.6 0.6 -0.2
v -0.6 0.8 0
v -0.6 0.8 -0.2
v -0.5 0.9 0.5
v -0.5 0.9 0.4
v -0.5 0.9 -0.1
v -0.5 1 0.5
v -0.5 1 0.4
v -0.5 1 0.3
v -0.5 1 -0.1
v -0.5 1 -0.3
v -0.5 1.1 -0.3
v -0.5 1.1 -0.4
v -0.5 1.2 0.4
v -0.5 1.2 0.3
v -0.5 1.2 0.2
v -0.5 1.4 0.4
v -0.5 1.4 0.3
v -0.5 1.4 0.2
v -0.5 1.4 0.1
v -0.5 1.4 -0.2
v -0.5 1.4 -0.3
v -0.5 1.5 0.4
v -0.5 1.5 0.1
v -0.5 1.5 -0.2
v -0.5 1.5 -0.4
v -0.5 1.6 0.1
v -0.5 1.6 -0.2
v -0.4 0.3 0.1
v -0.4 0.3 -0.3
v -0.4 0.4 0.1
v -0.4 0.4 0
v -0.4 0.4 -0.1
v -0.4 0.4 -0.2
v -0.4 0.4 -0.3
v -0.4 0.5 0.1
v -0.4 0.5 0
v -0.4 0.5 -0.1
v -0.4 0.5 -0.2
v -0.4 0.5 -0.3
v -0.4 0.6 0.1
v -0.4 0.6 0
v -0.4 0.6 -0.2
v -0.4 0.6 -0.3
v -0.4 0.7 0.1
v -0.4 0.7 0
v -0.4 0.7 -0.2
v -0.4 0.7 -0.3
v -0.4 0.8 0.1
v -0.4 0.8 0
v -0.4 0.8 -0.1
v -0.4 0.8 -0.2
v -0.4 0.8 -0.3
v -0.4 0.9 0.1
v -0.4 0.9 0
v -0.4 0.9 -0.1
v -0.4 0.9 -0.2
v -0.4 0.9 -0.3
v -0.4 0.9 -0.4
v -0.4 1 -0.1
v -0.4 1 -0.3
v -0.4 1.1 -0.3
v -0.4 1.1 -0.4
v -0.4 1.1 -0.5
v -0.4 1.4 0.5
v -0.4 1.4 0.4
v -0.4 1.5 0.5
v -0.4 1.5 0.4
v -0.4 1.5 0.3
v -0.4 1.5 0.1
v -0.4 1.5 -0.2
v -0.4 1.5 -0.4
v -0.4 1.5 -0.5
v -0.4 1.6 0.3
v -0.4 1.6 0.1
v -0.4 1.6 -0.2
v -0.4 1.6 -0.4
v -0.4 1.7 0.1
v -0.4 1.7 -0.2
v -0.3 0 0
v -0.3 0 -0.2
v -0.3 0.1 0
v -0.3 0.1 -0.2
v -0.3 0.3 0
v -0.3 0.3 -0.2
v -0.3 0.4 0.2
v -0.3 0.4 0.1
v -0.3 0.4 -0.3
v -0.3 0.4 -0.4
v -0.3 0.5 0.2
v -0.3 0.5 0.1
v -0.3 0.5 -0.3
v -0.3 0.5 -0.4
v -0.3 0.6 0.2
v -0.3 0.6 0.1
v -0.3 0.6 -0.3
v -0.3 0.6 -0.4
v -0.3 0.7 0.2
v -0.3 0.7 0.1
v -0.3 0.7 -0.3
v -0.3 0.7 -0.4
v -0.3 0.8 0.2
v -0.3 0.8 0.1
v -0.3 0.8 -0.3
v -0.3 0.8 -0.4
v -0.3 0.9 0.2
v -0.3 0.9 0.1
v -0.3 0.9 -0.3
v -0.3 0.9 -0.4
v -0.3 1 -0.4
v -0.3 1 -0.5
v -0.3 1.1 -0.4
v -0.3 1.1 -0.5
v -0.3 1.5 0.4
v -0.3 1.5 0.3
v -0.3 1.5 -0.4
v -0.3 1.5 -0.5
v -0.3 1.6 0.4
v -0.3 1.6 0.3
v -0.3 1.6 0.1
v -0.3 1.6 -0.2
v -0.3 1.6 -0.4
v -0.3 1.6 -0.5
v -0.3 1.7 0.3
v -0.3 1.7 0.1
v -0.3 1.7 -0.2
v -0.3 1.7 -0.4
v -0.2 0.9 -0.4
v -0.2 0.9 -0.5
v -0.2 1 -0.4
v -0.2 1 -0.5
v -0.2 1.3 0.4
v -0.2 1.3 0.2
v -0.2 1.4 0.4
v -0.2 1.4 0.2
v -0.2 1.6 0.4
v -0.2 1.6 0.3
v -0.2 1.7 0.4
v -0.2 1.7 0.3
v -0.2 1.7 0.2
v -0.2 1.7 0.1
v -0.2 1.7 -0.2
v -0.2 1.8 0.2
v -0.2 1.8 -0.2
v -0.1 1.2 0.3
v -0.1 1.2 0.2
v -0.1 1.3 0.3
v -0.1 1.3 0.2
v 0 0 0
v 0 0 -0.2
v 0 0.1 0
v 0 0.1 -0.2
v 0 0.3 0
v 0 0.3 -0.2
v 0.3 0.9 0.5
v 0.3 0.9 0.4
v 0.3 0.9 0.2
v 0.3 1 0.5
v 0.3 1 0.4
v 0.3 1 0.3
v 0.3 1.2 0.4
v 0.3 1.2 0.3
v 0.3 1.2 0.2
v 0.3 1.3 0.2
v 0.3 1.4 0.3
v 0.3 1.4 0.2
v 0.4 0.3 0
v 0.4 0.3 -0.2
v 0.4 0.4 0
v 0.4 0.4 -0.2
v 0.4 0.5 0
v 0.4 0.5 -0.2
v 0.4 0.6 0
v 0.4 0.6 -0.2
v 0.6 0.1 0
v 0.6 0.1 -0.2
v 0.6 0.2 0.1
v 0.6 0.2 0
v 0.6 0.2 -0.2
v 0.6 0.2 -0.3
v 0.6 0.3 0.2
v 0.6 0.3 0.1
v 0.6 0.3 0
v 0.6 0.3 -0.2
v 0.6 0.3 -0.3
v 0.6 0.3 -0.4
v 0.6 0.4 0.1
v 0.6 0.4 0
v 0.6 0.4 -0.2
v 0.6 0.4 -0.3
v 0.6 0.5 0.1
v 0.6 0.5 0
v 0.6 0.5 -0.2
v 0.6 0.5 -0.3
v 0.6 0.6 0.2
v 0.6 0.6 0.1
v 0.6 0.6 0
v 0.6 0.6 -0.2
v 0.6 0.6 -0.3
v 0.6 0.6 -0.4
v 0.6 0.7 0.1
v 0.6 0.7 0
v 0.6 0.7 -0.2
v 0.6 0.7 -0.3
v 0.6 0.8 0
v 0.6 0.8 -0.2
v -0.6 0.5 0.4
v -0.6 0.5 0.3
v -0.6 0.6 0.3
v -0.6 0.8 0.3
v -0.6 1 0.5
v -0.6 1 0.4
v -0.6 1.1 0.6
v -0.6 1.1 0.5
v -0.6 1.4 0.6
v -0.6 1.4 0.5
v -0.6 1.4 0.4
v -0.6 1.4 0.3
v -0.6 1.5 0.5
v -0.6 1.5 0.4
v -0.5 0.6 0.3
v -0.5 0.6 0.2
v -0.5 0.6 0.1
v -0.5 0.6 0
v -0.5 0.8 0.3
v -0.5 0.8 0.2
v -0.5 0.8 0.1
v -0.5 0.8 0
v -0.4 0.9 0.5
v -0.4 0.9 0.4
v -0.4 0.9 0.2
v -0.4 1 0.5
v -0.4 1 0.4
v -0.4 1 0.3
v -0.4 1.2 0.4
v -0.4 1.2 0.3
v -0.4 1.2 0.2
v -0.4 1.3 0.2
v -0.4 1.4 0.3
v -0.4 1.4 0.2
v -0.1 0 0
v -0.1 0 -0.2
v -0.1 0.1 0
v -0.1 0.1 -0.2
v -0.1 0.3 0
v -0.1 0.3 -0.2
v 0 1.2 0.3
v 0 1.2 0.2
v 0 1.3 0.3
v 0 1.3 0.2
v 0.1 0.9 -0.4
v 0.1 0.9 -0.5
v 0.1 1 -0.4
v 0.1 1 -0.5
v 0.1 1.3 0.4
v 0.1 1.3 0.2
v 0.1 1.4 0.4
v 0.1 1.4 0.2
v 0.1 1.6 0.4
v 0.1 1.6 0.3
v 0.1 1.7 0.4
v 0.1 1.7 0.3
v 0.1 1.7 0.2
v 0.1 1.7 0.1
v 0.1 1.7 -0.2
v 0.1 1.8 0.2
v 0.1 1.8 -0.2
v 0.2 0 0
v 0.2 0 -0.2
v 0.2 0.1 0
v 0.2 0.1 -0.2
v 0.2 0.3 0
v 0.2 0.3 -0.2
v 0.2 0.4 0.2
v 0.2 0.4 0.1
v 0.2 0.4 -0.3
v 0.2 0.4 -0.4
v 0.2 0.5 0.2
v 0.2 0.5 0.1
v 0.2 0.5 -0.3
v 0.2 0.5 -0.4
v 0.2 0.6 0.2
v 0.2 0.6 0.1
v 0.2 0.6 -0.3
v 0.2 0.6 -0.4
v 0.2 0.7 0.2
v 0.2 0.7 0.1
v 0.2 0.7 -0.3
v 0.2 0.7 -0.4
v 0.2 0.8 0.2
v 0.2 0.8 0.1
v 0.2 0.8 -0.3
v 0.2 0.8 -0.4
v 0.2 0.9 0.2
v 0.2 0.9 0.1
v 0.2 0.9 -0.3
v 0.2 0.9 -0.4
v 0.2 1 -0.4
v 0.2 1 -0.5
v 0.2 1.1 -0.4
v 0.2 1.1 -0.5
v 0.2 1.5 0.4
v 0.2 1.5 0.3
v 0.2 1.5 -0.4
v 0.2 1.5 -0.5
v 0.2 1.6 0.4
v 0.2 1.6 0.3
v 0.2 1.6 0.1
v 0.2 1.6 -0.2
v 0.2 1.6 -0.4
v 0.2 1.6 -0.5
v 0.2 1.7 0.3
v 0.2 1.7 0.1
v 0.2 1.7 -0.2
v 0.2 1.7 -0.4
v 0.3 0.3 0.1
v 0.3 0.3 -0.3
v 0.3 0.4 0.1
v 0.3 0.4 0
v 0.3 0.4 -0.1
v 0.3 0.4 -0.2
v 0.3 0.4 -0.3
v 0.3 0.5 0.1
v 0.3 0.5 0
v 0.3 0.5 -0.1
v 0.3 0.5 -0.2
v 0.3 0.5 -0.3
v 0.3 0.6 0.1
v 0.3 0.6 0
v 0.3 0.6 -0.2
v 0.3 0.6 -0.3
v 0.3 0.7 0.1
v 0.3 0.7 0
v 0.3 0.7 -0.2
v 0.3 0.7 -0.3
v 0.3 0.8 0.1
v 0.3 0.8 0
v 0.3 0.8 -0.1
v 0.3 0.8 -0.2
v 0.3 0.8 -0.3
v 0.3 0.9 0.1
v 0.3 0.9 0
v 0.3 0.9 -0.1
v 0.3 0.9 -0.2
v 0.3 0.9 -0.3
v 0.3 0.9 -0.4
v 0.3 1 -0.1
v 0.3 1 -0.3
v 0.3 1.1 -0.3
v 0.3 1.1 -0.4
v 0.3 1.1 -0.5
v 0.3 1.4 0.5
v 0.3 1.4 0.4
v 0.3 1.4 -0.4
v 0.3 1.5 0.5
v 0.3 1.5 0.4
v 0.3 1.5 0.3
v 0.3 1.5 0.1
v 0.3 1.5 -0.2
v 0.3 1.5 -0.4
v 0.3 1.5 -0.5
v 0.3 1.6 0.3
v 0.3 1.6 0.1
v 0.3 1.6 -0.2
v 0.3 1.6 -0.4
v 0.3 1.7 0.1
v 0.3 1.7 -0.2
v 0.4 0.9 0.5
v 0.4 0.9 0.4
v 0.4 0.9 -0.1
v 0.4 1 0.5
v 0.4 1 0.4
v 0.4 1 0.3
v 0.4 1 -0.1
v 0.4 1 -0.3
v 0.4 1.1 -0.3
v 0.4 1.1 -0.4
v 0.4 1.2 0.4
v 0.4 1.2 0.3
v 0.4 1.2 0.2
v 0.4 1.4 0.4
v 0.4 1.4 0.3
v 0.4 1.4 0.2
v 0.4 1.4 0.1
v 0.4 1.4 -0.2
v 0.4 1.4 -0.4
v 0.4 1.5 0.4
v 0.4 1.5 0.1
v 0.4 1.5 -0.2
v 0.4 1.5 -0.4
v 0.4 1.6 0.1
v 0.4 1.6 -0.2
v 0.5 0.6 0
v 0.5 0.6 -0.2
v 0.5 0.8 0
v 0.5 0.8 -0.2
v 0.7 0.1 0
v 0.7 0.1 -0.2
v 0.7 0.2 0.1
v 0.7 0.2 0
v 0.7 0.2 -0.2
v 0.7 0.2 -0.3
v 0.7 0.3 0.2
v 0.7 0.3 0.1
v 0.7 0.3 0
v 0.7 0.3 -0.2
v 0.7 0.3 -0.3
v 0.7 0.3 -0.4
v 0.7 0.4 0.1
v 0.7 0.4 0
v 0.7 0.4 -0.2
v 0.7 0.4 -0.3
v 0.7 0.5 0.1
v 0.7 0.5 0
v 0.7 0.5 -0.2
v 0.7 0.5 -0.3
v 0.7 0.6 0.2
v 0.7 0.6 0.1
v 0.7 0.6 0
v 0.7 0.6 -0.2
v 0.7 0.6 -0.3
v 0.7 0.6 -0.4
v 0.7 0.7 0.1
v 0.7 0.7 0
v 0.7 0.7 -0.2
v 0.7 0.7 -0.3
v 0.7 0.8 0
v 0.7 0.8 -0.2
v -0.7 1.1 0.6
v -0.7 1.4 0.6
v -0.6 1.1 0.6
v -0.6 1.4 0.6
v -0.7 1 0.5
v -0.7 1.1 0.5
v -0.7 1.4 0.5
v -0.7 1.5 0.5
v -0.6 1 0.5
v -0.6 1.1 0.5
v -0.6 1.4 0.5
v -0.6 1.5 0.5
v -0.5 0.9 0.5
v -0.5 1 0.5
v -0.4 0.9 0.5
v -0.4 1 0.5
v -0.4 1.4 0.5
v -0.4 1.5 0.5
v 0.3 0.9 0.5
v 0.3 1 0.5
v 0.3 1.4 0.5
v 0.3 1.5 0.5
v 0.4 0.9 0.5
v 0.4 1 0.5
v -0.7 0.5 0.4
v -0.7 1 0.4
v -0.6 0.5 0.4
v -0.6 1 0.4
v -0.5 1 0.4
v -0.5 1.2 0.4
v -0.5 1.4 0.4
v -0.5 1.5 0.4
v -0.4 1 0.4
v -0.4 1.2 0.4
v -0.4 1.4 0.4
v -0.4 1.5 0.4
v -0.3 1.5 0.4
v -0.3 1.6 0.4
v -0.2 1.3 0.4
v -0.2 1.4 0.4
v -0.2 1.5 0.4
v -0.2 1.6 0.4
v -0.2 1.7 0.4
v 0.1 1.3 0.4
v 0.1 1.4 0.4
v 0.1 1.5 0.4
v 0.1 1.6 0.4
v 0.1 1.7 0.4
v 0.2 1.5 0.4
v 0.2 1.6 0.4
v 0.3 1 0.4
v 0.3 1.2 0.4
v 0.3 1.4 0.4
v 0.3 1.5 0.4
v 0.4 1 0.4
v 0.4 1.2 0.4
v 0.4 1.4 0.4
v 0.4 1.5 0.4
v -0.6 0.6 0.3
v -0.6 0.8 0.3
v -0.5 0.6 0.3
v -0.5 0.8 0.3
v -0.5 1.2 0.3
v -0.5 1.4 0.3
v -0.4 1.2 0.3
v -0.4 1.4 0.3
v -0.4 1.5 0.3
v -0.4 1.6 0.3
v -0.3 1.5 0.3
v -0.3 1.6 0.3
v -0.3 1.7 0.3
v -0.2 1.6 0.3
v -0.2 1.7 0.3
v -0.1 1.2 0.3
v -0.1 1.3 0.3
v 0 1.2 0.3
v 0 1.3 0.3
v 0.1 1.6 0.3
v 0.1 1.7 0.3
v 0.2 1.5 0.3
v 0.2 1.6 0.3
v 0.2 1.7 0.3
v 0.3 1.2 0.3
v 0.3 1.4 0.3
v 0.3 1.5 0.3
v 0.3 1.6 0.3
v 0.4 1.2 0.3
v 0.4 1.4 0.3
v -0.4 0.9 0.2
v -0.4 1.2 0.2
v -0.4 1.3 0.2
v -0.4 1.4 0.2
v -0.3 0.4 0.2
v -0.3 0.5 0.2
v -0.3 0.6 0.2
v -0.3 0.7 0.2
v -0.3 0.8 0.2
v -0.3 0.9 0.2
v -0.3 1.1 0.2
v -0.3 1.3 0.2
v -0.2 0.4 0.2
v -0.2 0.5 0.2
v -0.2 0.6 0.2
v -0.2 0.7 0.2
v -0.2 0.8 0.2
v -0.2 0.9 0.2
v -0.2 1.1 0.2
v -0.2 1.3 0.2
v -0.2 1.4 0.2
v -0.2 1.7 0.2
v -0.2 1.8 0.2
v -0.1 0.4 0.2
v -0.1 0.5 0.2
v -0.1 0.6 0.2
v -0.1 0.7 0.2
v -0.1 0.8 0.2
v -0.1 1 0.2
v -0.1 1.1 0.2
v -0.1 1.2 0.2
v -0.1 1.3 0.2
v 0 0.4 0.2
v 0 0.5 0.2
v 0 0.6 0.2
v 0 0.7 0.2
v 0 0.8 0.2
v 0 1 0.2
v 0 1.1 0.2
v 0 1.2 0.2
v 0 1.3 0.2
v 0.1 0.4 0.2
v 0.1 0.5 0.2
v 0.1 0.6 0.2
v 0.1 0.7 0.2
v 0.1 0.8 0.2
v 0.1 0.9 0.2
v 0.1 1.1 0.2
v 0.1 1.3 0.2
v 0.1 1.4 0.2
v 0.1 1.7 0.2
v 0.1 1.8 0.2
v 0.2 0.4 0.2
v 0.2 0.5 0.2
v 0.2 0.6 0.2
v 0.2 0.7 0.2
v 0.2 0.8 0.2
v 0.2 0.9 0.2
v 0.2 1.1 0.2
v 0.2 1.3 0.2
v 0.3 0.9 0.2
v 0.3 1.2 0.2
v 0.3 1.3 0.2
v 0.3 1.4 0.2
v 0.6 0.3 0.2
v 0.6 0.6 0.2
v 0.7 0.3 0.2
v 0.7 0.6 0.2
v -0.5 1.5 0.1
v -0.5 1.6 0.1
v -0.4 0.3 0.1
v -0.4 0.4 0.1
v -0.4 0.5 0.1
v -0.4 0.6 0.1
v -0.4 0.7 0.1
v -0.4 0.8 0.1
v -0.4 0.9 0.1
v -0.4 1.5 0.1
v -0.4 1.6 0.1
v -0.4 1.7 0.1
v -0.3 0.4 0.1
v -0.3 0.5 0.1
v -0.3 0.6 0.1
v -0.3 0.7 0.1
v -0.3 0.8 0.1
v -0.3 0.9 0.1
v -0.3 1.6 0.1
v -0.3 1.7 0.1
v -0.2 0.4 0.1
v -0.1 0.4 0.1
v 0 0.4 0.1
v 0.1 0.4 0.1
v 0.2 0.4 0.1
v 0.2 0.5 0.1
v 0.2 0.6 0.1
v 0.2 0.7 0.1
v 0.2 0.8 0.1
v 0.2 0.9 0.1
v 0.2 1.6 0.1
v 0.2 1.7 0.1
v 0.3 0.3 0.1
v 0.3 0.4 0.1
v 0.3 0.5 0.1
v 0.3 0.6 0.1
v 0.3 0.7 0.1
v 0.3 0.8 0.1
v 0.3 0.9 0.1
v 0.3 1.5 0.1
v 0.3 1.6 0.1
v 0.3 1.7 0.1
v 0.4 1.5 0.1
v 0.4 1.6 0.1
v 0.6 0.2 0.1
v 0.6 0.3 0.1
v 0.6 0.6 0.1
v 0.6 0.7 0.1
v 0.7 0.2 0.1
v 0.7 0.3 0.1
v 0.7 0.6 0.1
v 0.7 0.7 0.1
v -0.5 0.6 0
v -0.5 0.8 0
v -0.4 0.6 0
v -0.4 0.7 0
v -0.4 0.8 0
v -0.3 0 0
v -0.3 0.1 0
v -0.3 0.3 0
v -0.1 0 0
v -0.1 0.1 0
v -0.1 0.3 0
v 0 0 0
v 0 0.1 0
v 0 0.3 0
v 0.2 0 0
v 0.2 0.1 0
v 0.2 0.3 0
v 0.3 0.6 0
v 0.3 0.7 0
v 0.3 0.8 0
v 0.4 0.3 0
v 0.4 0.4 0
v 0.4 0.5 0
v 0.4 0.6 0
v 0.5 0.6 0
v 0.5 0.8 0
v 0.6 0.1 0
v 0.6 0.2 0
v 0.6 0.3 0
v 0.6 0.4 0
v 0.6 0.5 0
v 0.6 0.6 0
v 0.6 0.7 0
v 0.6 0.8 0
v 0.7 0.1 0
v 0.7 0.2 0
v 0.7 0.7 0
v 0.7 0.8 0
v -0.7 1.4 0.4
v -0.7 1.5 0.4
v -0.6 1.4 0.4
v -0.6 1.5 0.4
v -0.7 0.5 0.3
v -0.7 0.6 0.3
v -0.7 0.8 0.3
v -0.7 1.4 0.3
v -0.6 0.5 0.3
v -0.6 0.6 0.3
v -0.6 0.8 0.3
v -0.6 1.4 0.3
v -0.7 0.6 0
v -0.7 0.8 0
v -0.6 0.6 0
v -0.6 0.8 0
v -0.5 0.9 -0.1
v -0.5 1 -0.1
v -0.4 0.9 -0.1
v -0.4 1 -0.1
v 0.3 0.9 -0.1
v 0.3 1 -0.1
v 0.4 0.9 -0.1
v 0.4 1 -0.1
v -0.6 0.6 -0.2
v -0.6 0.8 -0.2
v -0.5 1.5 -0.2
v -0.5 1.6 -0.2
v -0.4 0.6 -0.2
v -0.4 0.7 -0.2
v -0.4 0.8 -0.2
v -0.4 1.5 -0.2
v -0.4 1.6 -0.2
v -0.4 1.7 -0.2
v -0.3 0 -0.2
v -0.3 0.1 -0.2
v -0.3 0.3 -0.2
v -0.3 1.6 -0.2
v -0.3 1.7 -0.2
v -0.2 1.7 -0.2
v -0.2 1.8 -0.2
v -0.1 0 -0.2
v -0.1 0.1 -0.2
v -0.1 0.3 -0.2
v 0 0 -0.2
v 0 0.1 -0.2
v 0 0.3 -0.2
v 0.1 1.7 -0.2
v 0.1 1.8 -0.2
v 0.2 0 -0.2
v 0.2 0.1 -0.2
v 0.2 0.3 -0.2
v 0.2 1.6 -0.2
v 0.2 1.7 -0.2
v 0.3 0.6 -0.2
v 0.3 0.7 -0.2
v 0.3 0.8 -0.2
v 0.3 1.5 -0.2
v 0.3 1.6 -0.2
v 0.3 1.7 -0.2
v 0.4 0.3 -0.2
v 0.4 0.4 -0.2
v 0.4 0.5 -0.2
v 0.4 0.6 -0.2
v 0.4 1.5 -0.2
v 0.4 1.6 -0.2
v 0.5 0.6 -0.2
v 0.5 0.8 -0.2
v 0.6 0.1 -0.2
v 0.6 0.2 -0.2
v 0.6 0.3 -0.2
v 0.6 0.4 -0.2
v 0.6 0.5 -0.2
v 0.6 0.6 -0.2
v 0.6 0.7 -0.2
v 0.6 0.8 -0.2
v 0.7 0.1 -0.2
v 0.7 0.2 -0.2
v 0.7 0.7 -0.2
v 0.7 0.8 -0.2
v -0.5 1 -0.3
v -0.5 1.1 -0.3
v -0.4 0.3 -0.3
v -0.4 0.4 -0.3
v -0.4 0.5 -0.3
v -0.4 0.6 -0.3
v -0.4 0.7 -0.3
v -0.4 0.8 -0.3
v -0.4 0.9 -0.3
v -0.4 1 -0.3
v -0.4 1.1 -0.3
v -0.3 0.4 -0.3
v -0.3 0.5 -0.3
v -0.3 0.6 -0.3
v -0.3 0.7 -0.3
v -0.3 0.8 -0.3
v -0.3 0.9 -0.3
v -0.2 0.4 -0.3
v -0.1 0.4 -0.3
v 0 0.4 -0.3
v 0.1 0.4 -0.3
v 0.2 0.4 -0.3
v 0.2 0.5 -0.3
v 0.2 0.6 -0.3
v 0.2 0.7 -0.3
v 0.2 0.8 -0.3
v 0.2 0.9 -0.3
v 0.3 0.3 -0.3
v 0.3 0.4 -0.3
v 0.3 0.5 -0.3
v 0.3 0.6 -0.3
v 0.3 0.7 -0.3
v 0.3 0.8 -0.3
v 0.3 0.9 -0.3
v 0.3 1 -0.3
v 0.3 1.1 -0.3
v 0.4 1 -0.3
v 0.4 1.1 -0.3
v 0.6 0.2 -0.3
v 0.6 0.3 -0.3
v 0.6 0.6 -0.3
v 0.6 0.7 -0.3
v 0.7 0.2 -0.3
v 0.7 0.3 -0.3
v 0.7 0.6 -0.3
v 0.7 0.7 -0.3
v -0.5 1.1 -0.4
v -0.5 1.5 -0.4
v -0.4 0.9 -0.4
v -0.4 1.1 -0.4
v -0.4 1.5 -0.4
v -0.4 1.6 -0.4
v -0.3 0.4 -0.4
v -0.3 0.5 -0.4
v -0.3 0.6 -0.4
v -0.3 0.7 -0.4
v -0.3 0.8 -0.4
v -0.3 0.9 -0.4
v -0.3 1 -0.4
v -0.3 1.1 -0.4
v -0.3 1.5 -0.4
v -0.3 1.6 -0.4
v -0.3 1.7 -0.4
v -0.2 0.4 -0.4
v -0.2 0.5 -0.4
v -0.2 0.6 -0.4
v -0.2 0.7 -0.4
v -0.2 0.8 -0.4
v -0.2 0.9 -0.4
v -0.2 1 -0.4
v -0.1 0.4 -0.4
v -0.1 0.5 -0.4
v -0.1 0.6 -0.4
v -0.1 0.7 -0.4
v -0.1 0.8 -0.4
v -0.1 0.9 -0.4
v 0 0.4 -0.4
v 0 0.5 -0.4
v 0 0.6 -0.4
v 0 0.7 -0.4
v 0 0.8 -0.4
v 0 0.9 -0.4
v 0.1 0.4 -0.4
v 0.1 0.5 -0.4
v 0.1 0.6 -0.4
v 0.1 0.7 -0.4
v 0.1 0.8 -0.4
v 0.1 0.9 -0.4
v 0.1 1 -0.4
v 0.2 0.4 -0.4
v 0.2 0.5 -0.4
v 0.2 0.6 -0.4
v 0.2 0.7 -0.4
v 0.2 0.8 -0.4
v 0.2 0.9 -0.4
v 0.2 1 -0.4
v 0.2 1.1 -0.4
v 0.2 1.5 -0.4
v 0.2 1.6 -0.4
v 0.2 1.7 -0.4
v 0.3 0.9 -0.4
v 0.3 1.1 -0.4
v 0.3 1.4 -0.4
v 0.3 1.5 -0.4
v 0.3 1.6 -0.4
v 0.4 1.1 -0.4
v 0.4 1.4 -0.4
v 0.4 1.5 -0.4
v 0.6 0.3 -0.4
v 0.6 0.6 -0.4
v 0.7 0.3 -0.4
v 0.7 0.6 -0.4
v -0.4 1.1 -0.5
v -0.4 1.5 -0.5
v -0.3 1 -0.5
v -0.3 1.1 -0.5
v -0.3 1.5 -0.5
v -0.3 1.6 -0.5
v -0.2 0.9 -0.5
v -0.2 1 -0.5
v 0.1 0.9 -0.5
v 0.1 1 -0.5
v 0.2 1 -0.5
v 0.2 1.1 -0.5
v 0.2 1.5 -0.5
v 0.2 1.6 -0.5
v 0.3 1.1 -0.5
v 0.3 1.5 -0.5
v -0.3 0 0
v -0.1 0 0
v 0 0 0
v 0.2 0 0
v -0.3 0 -0.2
v -0.1 0 -0.2
v 0 0 -0.2
v 0.2 0 -0.2
v 0.6 0.1 0
v 0.7 0.1 0
v 0.6 0.1 -0.2
v 0.7 0.1 -0.2
v 0.6 0.2 0.1
v 0.7 0.2 0.1
v 0.6 0.2 0
v 0.7 0.2 0
v 0.6 0.2 -0.2
v 0.7 0.2 -0.2
v 0.6 0.2 -0.3
v 0.7 0.2 -0.3
v 0.6 0.3 0.2
v 0.7 0.3 0.2
v -0.4 0.3 0.1
v 0.3 0.3 0.1
v 0.6 0.3 0.1
v 0.7 0.3 0.1
v -0.3 0.3 0
v -0.1 0.3 0
v 0 0.3 0
v 0.2 0.3 0
v 0.4 0.3 0
v 0.6 0.3 0
v -0.3 0.3 -0.2
v -0.1 0.3 -0.2
v 0 0.3 -0.2
v 0.2 0.3 -0.2
v 0.4 0.3 -0.2
v 0.6 0.3 -0.2
v -0.4 0.3 -0.3
v 0.3 0.3 -0.3
v 0.6 0.3 -0.3
v 0.7 0.3 -0.3
v 0.6 0.3 -0.4
v 0.7 0.3 -0.4
v -0.3 0.4 0.2
v -0.2 0.4 0.2
v -0.1 0.4 0.2
v 0 0.4 0.2
v 0.1 0.4 0.2
v 0.2 0.4 0.2
v -0.3 0.4 0.1
v -0.2 0.4 0.1
v -0.1 0.4 0.1
v 0 0.4 0.1
v 0.1 0.4 0.1
v 0.2 0.4 0.1
v -0.3 0.4 -0.3
v -0.2 0.4 -0.3
v -0.1 0.4 -0.3
v 0 0.4 -0.3
v 0.1 0.4 -0.3
v 0.2 0.4 -0.3
v -0.3 0.4 -0.4
v -0.2 0.4 -0.4
v -0.1 0.4 -0.4
v 0 0.4 -0.4
v 0.1 0.4 -0.4
v 0.2 0.4 -0.4
v -0.7 0.5 0.4
v -0.6 0.5 0.4
v -0.7 0.5 0.3
v -0.6 0.5 0.3
v -0.7 0.6 0.3
v -0.6 0.6 0.3
v -0.5 0.6 0.3
v -0.7 0.6 0.2
v -0.5 0.6 0.2
v -0.7 0.6 0.1
v -0.5 0.6 0.1
v -0.7 0.6 0
v -0.6 0.6 0
v -0.5 0.6 0
v -0.4 0.6 0
v 0.3 0.6 0
v 0.4 0.6 0
v -0.6 0.6 -0.2
v -0.4 0.6 -0.2
v 0.3 0.6 -0.2
v 0.4 0.6 -0.2
v -0.5 0.9 0.5
v -0.4 0.9 0.5
v 0.3 0.9 0.5
v 0.4 0.9 0.5
v -0.5 0.9 0.4
v -0.4 0.9 0.4
v 0.3 0.9 0.4
v 0.4 0.9 0.4
v -0.4 0.9 0.2
v -0.3 0.9 0.2
v 0.2 0.9 0.2
v 0.3 0.9 0.2
v -0.4 0.9 0.1
v -0.3 0.9 0.1
v 0.2 0.9 0.1
v 0.3 0.9 0.1
v -0.4 0.9 0
v 0.3 0.9 0
v -0.5 0.9 -0.1
v -0.4 0.9 -0.1
v 0.3 0.9 -0.1
v 0.4 0.9 -0.1
v -0.4 0.9 -0.3
v -0.3 0.9 -0.3
v 0.2 0.9 -0.3
v 0.3 0.9 -0.3
v -0.4 0.9 -0.4
v -0.3 0.9 -0.4
v -0.2 0.9 -0.4
v -0.1 0.9 -0.4
v 0 0.9 -0.4
v 0.1 0.9 -0.4
v 0.2 0.9 -0.4
v 0.3 0.9 -0.4
v -0.2 0.9 -0.5
v 0.1 0.9 -0.5
v -0.7 1 0.5
v -0.6 1 0.5
v -0.7 1 0.4
v -0.6 1 0.4
v -0.5 1 -0.1
v -0.4 1 -0.1
v 0.3 1 -0.1
v 0.4 1 -0.1
v -0.5 1 -0.3
v -0.4 1 -0.3
v 0.3 1 -0.3
v 0.4 1 -0.3
v -0.3 1 -0.4
v -0.2 1 -0.4
v 0.1 1 -0.4
v 0.2 1 -0.4
v -0.3 1 -0.5
v -0.2 1 -0.5
v 0.1 1 -0.5
v 0.2 1 -0.5
v -0.7 1.1 0.6
v -0.6 1.1 0.6
v -0.7 1.1 0.5
v -0.6 1.1 0.5
v -0.5 1.1 -0.3
v -0.4 1.1 -0.3
v 0.3 1.1 -0.3
v 0.4 1.1 -0.3
v -0.5 1.1 -0.4
v -0.4 1.1 -0.4
v -0.3 1.1 -0.4
v 0.2 1.1 -0.4
v 0.3 1.1 -0.4
v 0.4 1.1 -0.4
v -0.4 1.1 -0.5
v -0.3 1.1 -0.5
v 0.2 1.1 -0.5
v 0.3 1.1 -0.5
v -0.1 1.2 0.3
v 0 1.2 0.3
v -0.1 1.2 0.2
v 0 1.2 0.2
v -0.2 1.3 0.4
v 0.1 1.3 0.4
v -0.1 1.3 0.3
v 0 1.3 0.3
v -0.2 1.3 0.2
v -0.1 1.3 0.2
v 0 1.3 0.2
v 0.1 1.3 0.2
v -0.4 1.4 0.5
v 0.3 1.4 0.5
v -0.5 1.4 0.4
v -0.4 1.4 0.4
v -0.2 1.4 0.4
v 0.1 1.4 0.4
v 0.3 1.4 0.4
v 0.4 1.4 0.4
v -0.5 1.4 0.3
v -0.4 1.4 0.3
v 0.3 1.4 0.3
v 0.4 1.4 0.3
v -0.4 1.4 0.2
v -0.2 1.4 0.2
v 0.1 1.4 0.2
v 0.3 1.4 0.2
v 0.6 0.6 0.2
v 0.7 0.6 0.2
v 0.6 0.6 0.1
v 0.7 0.6 0.1
v 0.5 0.6 0
v 0.6 0.6 0
v 0.5 0.6 -0.2
v 0.6 0.6 -0.2
v 0.6 0.6 -0.3
v 0.7 0.6 -0.3
v 0.6 0.6 -0.4
v 0.7 0.6 -0.4
v 0.6 0.7 0.1
v 0.7 0.7 0.1
v 0.6 0.7 0
v 0.7 0.7 0
v 0.6 0.7 -0.2
v 0.7 0.7 -0.2
v 0.6 0.7 -0.3
v 0.7 0.7 -0.3
v -0.7 0.8 0.3
v -0.6 0.8 0.3
v -0.5 0.8 0.3
v -0.7 0.8 0.2
v -0.5 0.8 0.2
v -0.7 0.8 0.1
v -0.5 0.8 0.1
v -0.7 0.8 0
v -0.6 0.8 0
v -0.5 0.8 0
v -0.4 0.8 0
v 0.3 0.8 0
v 0.5 0.8 0
v 0.6 0.8 0
v 0.7 0.8 0
v -0.4 0.8 -0.1
v 0.3 0.8 -0.1
v -0.6 0.8 -0.2
v -0.4 0.8 -0.2
v 0.3 0.8 -0.2
v 0.5 0.8 -0.2
v 0.6 0.8 -0.2
v 0.7 0.8 -0.2
v -0.5 1 0.5
v -0.4 1 0.5
v 0.3 1 0.5
v 0.4 1 0.5
v -0.5 1 0.4
v -0.4 1 0.4
v 0.3 1 0.4
v 0.4 1 0.4
v -0.5 1.2 0.4
v -0.4 1.2 0.4
v 0.3 1.2 0.4
v 0.4 1.2 0.4
v -0.5 1.2 0.3
v -0.4 1.2 0.3
v 0.3 1.2 0.3
v 0.4 1.2 0.3
v -0.7 1.4 0.6
v -0.6 1.4 0.6
v -0.7 1.4 0.5
v -0.6 1.4 0.5
v -0.7 1.4 0.4
v -0.6 1.4 0.4
v -0.7 1.4 0.3
v -0.6 1.4 0.3
v -0.7 1.5 0.5
v -0.6 1.5 0.5
v -0.4 1.5 0.5
v 0.3 1.5 0.5
v -0.7 1.5 0.4
v -0.6 1.5 0.4
v -0.5 1.5 0.4
v -0.4 1.5 0.4
v -0.3 1.5 0.4
v -0.2 1.5 0.4
v 0.1 1.5 0.4
v 0.2 1.5 0.4
v 0.3 1.5 0.4
v 0.4 1.5 0.4
v -0.4 1.5 0.3
v -0.3 1.5 0.3
v 0.2 1.5 0.3
v 0.3 1.5 0.3
v -0.5 1.5 0.1
v -0.4 1.5 0.1
v 0.3 1.5 0.1
v 0.4 1.5 0.1
v -0.5 1.5 -0.2
v -0.4 1.5 -0.2
v 0.3 1.5 -0.2
v 0.4 1.5 -0.2
v -0.5 1.5 -0.4
v -0.4 1.5 -0.4
v -0.3 1.5 -0.4
v 0.2 1.5 -0.4
v 0.3 1.5 -0.4
v 0.4 1.5 -0.4
v -0.4 1.5 -0.5
v -0.3 1.5 -0.5
v 0.2 1.5 -0.5
v 0.3 1.5 -0.5
v -0.3 1.6 0.4
v -0.2 1.6 0.4
v 0.1 1.6 0.4
v 0.2 1.6 0.4
v -0.4 1.6 0.3
v -0.3 1.6 0.3
v -0.2 1.6 0.3
v 0.1 1.6 0.3
v 0.2 1.6 0.3
v 0.3 1.6 0.3
v -0.5 1.6 0.1
v -0.4 1.6 0.1
v -0.3 1.6 0.1
v 0.2 1.6 0.1
v 0.3 1.6 0.1
v 0.4 1.6 0.1
v -0.5 1.6 -0.2
v -0.4 1.6 -0.2
v -0.3 1.6 -0.2
v 0.2 1.6 -0.2
v 0.3 1.6 -0.2
v 0.4 1.6 -0.2
v -0.4 1.6 -0.4
v -0.3 1.6 -0.4
v 0.2 1.6 -0.4
v 0.3 1.6 -0.4
v -0.3 1.6 -0.5
v 0.2 1.6 -0.5
v -0.2 1.7 0.4
v 0.1 1.7 0.4
v -0.3 1.7 0.3
v -0.2 1.7 0.3
v 0.1 1.7 0.3
v 0.2 1.7 0.3
v -0.2 1.7 0.2
v 0.1 1.7 0.2
v -0.4 1.7 0.1
v -0.3 1.7 0.1
v -0.2 1.7 0.1
v 0.1 1.7 0.1
v 0.2 1.7 0.1
v 0.3 1.7 0.1
v -0.4 1.7 -0.2
v -0.3 1.7 -0.2
v -0.2 1.7 -0.2
v 0.1 1.7 -0.2
v 0.2 1.7 -0.2
v 0.3 1.7 -0.2
v -0.2 1.7 -0.3
v 0.1 1.7 -0.3
v -0.3 1.7 -0.4
v 0.2 1.7 -0.4
v -0.2 1.8 0.2
v 0.1 1.8 0.2
v -0.2 1.8 -0.2
v 0.1 1.8 -0.2

# faces
f 3/3/1 2/3/1 1/3/1
f 7/3/1 3/3/1 1/3/1
f 7/6/1 4/6/1 3/6/1
f 8/1/1 5/1/1 4/1/1
f 8/6/1 4/6/1 7/6/1
f 9/5/1 6/5/1 5/5/1
f 9/1/1 5/1/1 8/1/1
f 10/5/1 6/5/1 9/5/1
f 12/3/1 7/3/1 1/3/1
f 14/7/1 12/7/1 11/7/1
f 15/7/1 14/7/1 13/7/1
f 16/7/1 12/7/1 14/7/1
f 16/7/1 14/7/1 15/7/1
f 17/3/1 7/3/1 12/3/1
f 17/7/1 12/7/1 16/7/1
f 18/3/1 7/3/1 17/3/1
f 19/7/1 17/7/1 16/7/1
f 20/7/1 17/7/1 19/7/1
f 23/5/1 22/5/1 21/5/1
f 24/5/1 22/5/1 23/5/1
f 28/10/1 26/10/1 25/10/1
f 29/11/1 27/11/1 26/11/1
f 29/10/1 26/10/1 28/10/1
f 30/11/1 27/11/1 29/11/1
f 31/11/1 27/11/1 30/11/1
f 33/11/1 32/11/1 31/11/1
f 33/11/1 31/11/1 30/11/1
f 35/10/1 30/10/1 29/10/1
f 36/11/1 33/11/1 30/11/1
f 36/10/1 30/10/1 35/10/1
f 37/11/1 33/11/1 36/11/1
f 39/10/1 37/10/1 36/10/1
f 40/11/1 33/11/1 37/11/1
f 40/10/1 37/10/1 39/10/1
f 41/11/1 33/11/1 40/11/1
f 42/11/1 33/11/1 41/11/1
f 43/10/1 34/10/1 33/10/1
f 43/11/1 33/11/1 42/11/1
f 44/10/1 39/10/1 38/10/1
f 44/10/1 40/10/1 39/10/1
f 44/10/1 41/10/1 40/10/1
f 45/11/1 42/11/1 41/11/1
f 45/10/1 41/10/1 44/10/1
f 46/10/1 43/10/1 42/10/1
f 46/11/1 42/11/1 45/11/1
f 47/10/1 34/10/1 43/10/1
f 47/10/1 43/10/1 46/10/1
f 48/10/1 46/10/1 45/10/1
f 49/10/1 46/10/1 48/10/1
f 52/12/1 51/12/1 50/12/1
f 53/12/1 51/12/1 52/12/1
f 54/12/1 51/12/1 53/12/1
f 55/12/1 51/12/1 54/12/1
f 56/12/1 51/12/1 55/12/1
f 57/8/1 53/8/1 52/8/1
f 58/11/1 54/11/1 53/11/1
f 58/8/1 53/8/1 57/8/1
f 59/8/1 55/8/1 54/8/1
f 59/11/1 54/11/1 58/11/1
f 60/11/1 56/11/1 55/11/1
f 60/8/1 55/8/1 59/8/1
f 61/11/1 56/11/1 60/11/1
f 62/11/1 58/11/1 57/11/1
f 63/5/1 59/5/1 58/5/1
f 63/11/1 58/11/1 62/11/1
f 63/5/1 60/5/1 59/5/1
f 64/8/1 61/8/1 60/8/1
f 64/5/1 60/5/1 63/5/1
f 65/8/1 61/8/1 64/8/1
f 66/8/1 63/8/1 62/8/1
f 67/8/1 63/8/1 66/8/1
f 68/11/1 65/11/1 64/11/1
f 69/11/1 65/11/1 68/11/1
f 70/11/1 67/11/1 66/11/1
f 71/11/1 67/11/1 70/11/1
f 73/8/1 69/8/1 68/8/1
f 74/8/1 69/8/1 73/8/1
f 75/8/1 71/8/1 70/8/1
f 76/11/1 72/11/1 71/11/1
f 76/8/1 71/8/1 75/8/1
f 77/8/1 73/8/1 72/8/1
f 77/11/1 72/11/1 76/11/1
f 78/11/1 74/11/1 73/11/1
f 78/8/1 73/8/1 77/8/1
f 79/11/1 74/11/1 78/11/1
f 81/1/1 79/1/1 78/1/1
f 81/1/1 80/1/1 79/1/1
f 81/1/1 78/1/1 77/1/1
f 82/1/1 80/1/1 81/1/1
f 83/1/1 80/1/1 82/1/1
f 84/1/1 80/1/1 83/1/1
f 88/10/1 87/10/1 86/10/1
f 89/10/1 87/10/1 88/10/1
f 93/11/1 85/11/1 84/11/1
f 94/11/1 85/11/1 93/11/1
f 95/10/1 91/10/1 90/10/1
f 96/10/1 91/10/1 95/10/1
f 97/10/1 93/10/1 92/10/1
f 98/10/1 93/10/1 97/10/1
f 99/10/1 97/10/1 96/10/1
f 100/10/1 97/10/1 99/10/1
f 103/6/1 102/6/1 101/6/1
f 104/6/1 102/6/1 103/6/1
f 105/12/1 104/12/1 103/12/1
f 106/12/1 104/12/1 105/12/1
f 111/11/1 108/11/1 107/11/1
f 112/11/1 108/11/1 111/11/1
f 113/8/1 110/8/1 109/8/1
f 114/8/1 110/8/1 113/8/1
f 115/8/1 112/8/1 111/8/1
f 116/8/1 112/8/1 115/8/1
f 117/11/1 114/11/1 113/11/1
f 118/11/1 114/11/1 117/11/1
f 119/11/1 116/11/1 115/11/1
f 120/11/1 116/11/1 119/11/1
f 121/8/1 118/8/1 117/8/1
f 122/8/1 118/8/1 121/8/1
f 123/8/1 120/8/1 119/8/1
f 124/8/1 120/8/1 123/8/1
f 125/11/1 122/11/1 121/11/1
f 126/11/1 122/11/1 125/11/1
f 127/11/1 124/11/1 123/11/1
f 128/11/1 124/11/1 127/11/1
f 129/8/1 126/8/1 125/8/1
f 130/8/1 126/8/1 129/8/1
f 133/11/1 132/11/1 131/11/1
f 134/11/1 132/11/1 133/11/1
f 139/10/1 136/10/1 135/10/1
f 140/10/1 136/10/1 139/10/1
f 143/10/1 138/10/1 137/10/1
f 144/10/1 138/10/1 143/10/1
f 145/10/1 141/10/1 140/10/1
f 146/10/1 141/10/1 145/10/1
f 147/10/1 143/10/1 142/10/1
f 148/10/1 143/10/1 147/10/1
f 151/11/1 150/11/1 149/11/1
f 152/11/1 150/11/1 151/11/1
f 155/11/1 154/11/1 153/11/1
f 156/11/1 154/11/1 155/11/1
f 159/10/1 158/10/1 157/10/1
f 160/10/1 158/10/1 159/10/1
f 164/11/1 163/11/1 162/11/1
f 164/11/1 162/11/1 161/11/1
f 165/11/1 163/11/1 164/11/1
f 168/11/1 167/11/1 166/11/1
f 169/11/1 167/11/1 168/11/1
f 172/6/1 171/6/1 170/6/1
f 173/6/1 171/6/1 172/6/1
f 174/12/1 173/12/1 172/12/1
f 175/12/1 173/12/1 174/12/1
f 179/10/1 177/10/1 176/10/1
f 180/11/1 178/11/1 177/11/1
f 180/10/1 177/10/1 179/10/1
f 181/11/1 178/11/1 180/11/1
f 182/10/1 181/10/1 180/10/1
f 183/11/1 178/11/1 181/11/1
f 183/10/1 181/10/1 182/10/1
f 184/11/1 178/11/1 183/11/1
f 185/10/1 184/10/1 183/10/1
f 186/10/1 185/10/1 183/10/1
f 187/10/1 185/10/1 186/10/1
f 190/6/1 189/6/1 188/6/1
f 191/6/1 189/6/1 190/6/1
f 192/1/1 191/1/1 190/1/1
f 193/1/1 191/1/1 192/1/1
f 194/5/1 193/5/1 192/5/1
f 195/5/1 193/5/1 194/5/1
f 199/11/1 197/11/1 196/11/1
f 200/11/1 197/11/1 199/11/1
f 203/11/1 199/11/1 198/11/1
f 204/8/1 200/8/1 199/8/1
f 204/11/1 199/11/1 203/11/1
f 205/11/1 201/11/1 200/11/1
f 205/8/1 200/8/1 204/8/1
f 206/11/1 201/11/1 205/11/1
f 208/8/1 204/8/1 203/8/1
f 208/11/1 203/11/1 202/11/1
f 209/8/1 204/8/1 208/8/1
f 210/8/1 206/8/1 205/8/1
f 211/11/1 207/11/1 206/11/1
f 211/8/1 206/8/1 210/8/1
f 212/9/1 209/9/1 208/9/1
f 212/11/1 208/11/1 202/11/1
f 213/9/1 209/9/1 212/9/1
f 214/9/1 211/9/1 210/9/1
f 215/11/1 207/11/1 211/11/1
f 215/9/1 211/9/1 214/9/1
f 216/11/1 212/11/1 202/11/1
f 217/8/1 213/8/1 212/8/1
f 217/11/1 212/11/1 216/11/1
f 218/8/1 213/8/1 217/8/1
f 219/8/1 215/8/1 214/8/1
f 220/11/1 207/11/1 215/11/1
f 220/8/1 215/8/1 219/8/1
f 221/11/1 207/11/1 220/11/1
f 222/11/1 218/11/1 217/11/1
f 223/8/1 219/8/1 218/8/1
f 223/11/1 218/11/1 222/11/1
f 224/11/1 220/11/1 219/11/1
f 224/8/1 219/8/1 223/8/1
f 225/11/1 220/11/1 224/11/1
f 226/11/1 224/11/1 223/11/1
f 227/11/1 224/11/1 226/11/1
f 228/3/2 229/3/2 230/3/2
f 228/3/2 230/3/2 231/3/2
f 228/3/2 231/3/2 233/3/2
f 232/7/2 233/7/2 235/7/2
f 234/7/2 235/7/2 236/7/2
f 235/7/2 233/7/2 237/7/2
f 236/7/2 235/7/2 237/7/2
f 233/3/2 231/3/2 238/3/2
f 237/7/2 233/7/2 238/7/2
f 238/3/2 231/3/2 239/3/2
f 237/7/2 238/7/2 240/7/2
f 240/7/2 238/7/2 241/7/2
f 242/6/2 243/6/2 246/6/2
f 243/1/2 244/1/2 247/1/2
f 246/6/2 243/6/2 247/6/2
f 244/5/2 245/5/2 248/5/2
f 247/1/2 244/1/2 248/1/2
f 248/5/2 245/5/2 249/5/2
f 250/10/2 251/10/2 253/10/2
f 251/11/2 252/11/2 254/11/2
f 253/10/2 251/10/2 254/10/2
f 254/11/2 252/11/2 255/11/2
f 254/10/2 255/10/2 256/10/2
f 255/11/2 252/11/2 257/11/2
f 256/10/2 255/10/2 257/10/2
f 257/11/2 252/11/2 258/11/2
f 257/10/2 258/10/2 259/10/2
f 257/10/2 259/10/2 260/10/2
f 260/10/2 259/10/2 261/10/2
f 262/6/2 263/6/2 264/6/2
f 264/6/2 263/6/2 265/6/2
f 264/12/2 265/12/2 266/12/2
f 266/12/2 265/12/2 267/12/2
f 268/11/2 269/11/2 270/11/2
f 270/11/2 269/11/2 271/11/2
f 272/11/2 273/11/2 274/11/2
f 274/11/2 273/11/2 275/11/2
f 276/11/2 277/11/2 278/11/2
f 278/11/2 277/11/2 279/11/2
f 280/10/2 281/10/2 282/10/2
f 282/10/2 281/10/2 283/10/2
f 285/11/2 286/11/2 287/11/2
f 284/11/2 285/11/2 287/11/2
f 287/11/2 286/11/2 288/11/2
f 289/6/2 290/6/2 291/6/2
f 291/6/2 290/6/2 292/6/2
f 291/12/2 292/12/2 293/12/2
f 293/12/2 292/12/2 294/12/2
f 295/11/2 296/11/2 299/11/2
f 299/11/2 296/11/2 300/11/2
f 297/8/2 298/8/2 301/8/2
f 301/8/2 298/8/2 302/8/2
f 299/8/2 300/8/2 303/8/2
f 303/8/2 300/8/2 304/8/2
f 301/11/2 302/11/2 305/11/2
f 305/11/2 302/11/2 306/11/2
f 303/11/2 304/11/2 307/11/2
f 307/11/2 304/11/2 308/11/2
f 305/8/2 306/8/2 309/8/2
f 309/8/2 306/8/2 310/8/2
f 307/8/2 308/8/2 311/8/2
f 311/8/2 308/8/2 312/8/2
f 309/11/2 310/11/2 313/11/2
f 313/11/2 310/11/2 314/11/2
f 311/11/2 312/11/2 315/11/2
f 315/11/2 312/11/2 316/11/2
f 313/8/2 314/8/2 317/8/2
f 317/8/2 314/8/2 318/8/2
f 319/11/2 320/11/2 321/11/2
f 321/11/2 320/11/2 322/11/2
f 323/10/2 324/10/2 327/10/2
f 327/10/2 324/10/2 328/10/2
f 325/10/2 326/10/2 331/10/2
f 331/10/2 326/10/2 332/10/2
f 328/10/2 329/10/2 333/10/2
f 333/10/2 329/10/2 334/10/2
f 330/10/2 331/10/2 335/10/2
f 335/10/2 331/10/2 336/10/2
f 337/12/2 338/12/2 339/12/2
f 339/12/2 338/12/2 340/12/2
f 340/12/2 338/12/2 341/12/2
f 341/12/2 338/12/2 342/12/2
f 342/12/2 338/12/2 343/12/2
f 339/8/2 340/8/2 344/8/2
f 340/11/2 341/11/2 345/11/2
f 344/8/2 340/8/2 345/8/2
f 341/8/2 342/8/2 346/8/2
f 345/11/2 341/11/2 346/11/2
f 342/11/2 343/11/2 347/11/2
f 346/8/2 342/8/2 347/8/2
f 347/11/2 343/11/2 348/11/2
f 344/11/2 345/11/2 349/11/2
f 345/5/2 346/5/2 350/5/2
f 349/11/2 345/11/2 350/11/2
f 346/5/2 347/5/2 350/5/2
f 347/8/2 348/8/2 351/8/2
f 350/5/2 347/5/2 351/5/2
f 351/8/2 348/8/2 352/8/2
f 349/8/2 350/8/2 353/8/2
f 353/8/2 350/8/2 354/8/2
f 351/11/2 352/11/2 355/11/2
f 355/11/2 352/11/2 356/11/2
f 353/11/2 354/11/2 357/11/2
f 357/11/2 354/11/2 358/11/2
f 355/8/2 356/8/2 360/8/2
f 360/8/2 356/8/2 361/8/2
f 357/8/2 358/8/2 362/8/2
f 358/11/2 359/11/2 363/11/2
f 362/8/2 358/8/2 363/8/2
f 359/8/2 360/8/2 364/8/2
f 363/11/2 359/11/2 364/11/2
f 360/11/2 361/11/2 365/11/2
f 364/8/2 360/8/2 365/8/2
f 365/11/2 361/11/2 366/11/2
f 365/1/2 366/1/2 368/1/2
f 366/1/2 367/1/2 368/1/2
f 364/1/2 365/1/2 368/1/2
f 368/1/2 367/1/2 369/1/2
f 369/1/2 367/1/2 370/1/2
f 370/1/2 367/1/2 371/1/2
f 371/11/2 372/11/2 375/11/2
f 373/10/2 374/10/2 376/10/2
f 376/10/2 374/10/2 377/10/2
f 375/11/2 372/11/2 381/11/2
f 381/11/2 372/11/2 382/11/2
f 378/10/2 379/10/2 383/10/2
f 383/10/2 379/10/2 384/10/2
f 380/10/2 381/10/2 385/10/2
f 385/10/2 381/10/2 386/10/2
f 384/10/2 385/10/2 387/10/2
f 387/10/2 385/10/2 388/10/2
f 389/10/2 390/10/2 392/10/2
f 390/11/2 391/11/2 393/11/2
f 392/10/2 390/10/2 393/10/2
f 393/11/2 391/11/2 394/11/2
f 394/11/2 391/11/2 395/11/2
f 395/11/2 396/11/2 397/11/2
f 394/11/2 395/11/2 397/11/2
f 393/10/2 394/10/2 399/10/2
f 397/11/2 398/11/2 400/11/2
f 399/10/2 394/10/2 400/10/2
f 394/11/2 397/11/2 400/11/2
f 400/11/2 398/11/2 401/11/2
f 400/10/2 401/10/2 403/10/2
f 401/11/2 398/11/2 404/11/2
f 403/10/2 401/10/2 404/10/2
f 404/11/2 398/11/2 405/11/2
f 405/11/2 398/11/2 406/11/2
f 406/11/2 398/11/2 407/11/2
f 402/10/2 403/10/2 408/10/2
f 403/10/2 404/10/2 408/10/2
f 404/10/2 405/10/2 408/10/2
f 405/11/2 406/11/2 409/11/2
f 408/10/2 405/10/2 409/10/2
f 406/10/2 407/10/2 410/10/2
f 409/11/2 406/11/2 410/11/2
f 410/10/2 407/10/2 411/10/2
f 409/10/2 410/10/2 412/10/2
f 412/10/2 410/10/2 413/10/2
f 414/5/2 415/5/2 416/5/2
f 416/5/2 415/5/2 417/5/2
f 418/11/2 419/11/2 421/11/2
f 421/11/2 419/11/2 422/11/2
f 420/11/2 421/11/2 425/11/2
f 421/8/2 422/8/2 426/8/2
f 425/11/2 421/11/2 426/11/2
f 422/11/2 423/11/2 427/11/2
f 426/8/2 422/8/2 427/8/2
f 427/11/2 423/11/2 428/11/2
f 425/8/2 426/8/2 430/8/2
f 424/11/2 425/11/2 430/11/2
f 426/9/2 427/9/2 431/9/2
f 430/8/2 426/8/2 431/8/2
f 427/8/2 428/8/2 432/8/2
f 431/9/2 427/9/2 432/9/2
f 428/11/2 429/11/2 433/11/2
f 432/8/2 428/8/2 433/8/2
f 430/9/2 431/9/2 434/9/2
f 424/11/2 430/11/2 434/11/2
f 431/4/2 432/4/2 435/4/2
f 434/9/2 431/9/2 435/9/2
f 432/9/2 433/9/2 436/9/2
f 435/4/2 432/4/2 436/4/2
f 433/11/2 429/11/2 437/11/2
f 436/9/2 433/9/2 437/9/2
f 424/11/2 434/11/2 438/11/2
f 434/8/2 435/8/2 439/8/2
f 438/11/2 434/11/2 439/11/2
f 435/9/2 436/9/2 440/9/2
f 439/8/2 435/8/2 440/8/2
f 436/8/2 437/8/2 441/8/2
f 440/9/2 436/9/2 441/9/2
f 437/11/2 429/11/2 442/11/2
f 441/8/2 437/8/2 442/8/2
f 442/11/2 429/11/2 443/11/2
f 439/11/2 440/11/2 444/11/2
f 440/8/2 441/8/2 445/8/2
f 444/11/2 440/11/2 445/11/2
f 441/11/2 442/11/2 446/11/2
f 445/8/2 441/8/2 446/8/2
f 446/11/2 442/11/2 447/11/2
f 445/11/2 446/11/2 448/11/2
f 448/11/2 446/11/2 449/11/2
f 452/7/3 451/7/3 450/7/3
f 453/7/3 451/7/3 452/7/3
f 458/7/3 455/7/3 454/7/3
f 459/7/3 455/7/3 458/7/3
f 460/7/3 457/7/3 456/7/3
f 461/7/3 457/7/3 460/7/3
f 464/10/3 463/10/3 462/10/3
f 465/10/3 463/10/3 464/10/3
f 470/10/3 467/10/3 466/10/3
f 471/10/3 467/10/3 470/10/3
f 472/10/3 469/10/3 468/10/3
f 473/10/3 469/10/3 472/10/3
f 476/3/3 475/3/3 474/3/3
f 477/3/3 475/3/3 476/3/3
f 482/10/3 479/10/3 478/10/3
f 483/10/3 479/10/3 482/10/3
f 484/10/3 481/10/3 480/10/3
f 485/10/3 481/10/3 484/10/3
f 490/10/3 487/10/3 486/10/3
f 491/10/3 487/10/3 490/10/3
f 493/11/3 489/11/3 488/11/3
f 494/11/3 489/11/3 493/11/3
f 495/11/3 491/11/3 490/11/3
f 496/10/3 492/10/3 491/10/3
f 496/11/3 491/11/3 495/11/3
f 497/10/3 492/10/3 496/10/3
f 498/10/3 496/10/3 495/10/3
f 499/10/3 496/10/3 498/10/3
f 504/10/3 501/10/3 500/10/3
f 505/10/3 501/10/3 504/10/3
f 506/10/3 503/10/3 502/10/3
f 507/10/3 503/10/3 506/10/3
f 510/6/3 509/6/3 508/6/3
f 511/6/3 509/6/3 510/6/3
f 514/10/3 513/10/3 512/10/3
f 515/10/3 513/10/3 514/10/3
f 518/10/3 517/10/3 516/10/3
f 519/10/3 517/10/3 518/10/3
f 521/10/3 520/10/3 519/10/3
f 522/10/3 520/10/3 521/10/3
f 525/11/3 524/11/3 523/11/3
f 526/11/3 524/11/3 525/11/3
f 530/10/3 528/10/3 527/10/3
f 531/10/3 528/10/3 530/10/3
f 534/10/3 530/10/3 529/10/3
f 535/10/3 530/10/3 534/10/3
f 536/10/3 533/10/3 532/10/3
f 537/10/3 533/10/3 536/10/3
f 547/1/3 539/1/3 538/1/3
f 547/1/3 540/1/3 539/1/3
f 548/1/3 540/1/3 547/1/3
f 549/3/3 541/3/3 540/3/3
f 549/1/3 540/1/3 548/1/3
f 550/11/3 543/11/3 542/11/3
f 551/8/3 544/8/3 543/8/3
f 551/11/3 543/11/3 550/11/3
f 552/11/3 545/11/3 544/11/3
f 552/8/3 544/8/3 551/8/3
f 553/8/3 546/8/3 545/8/3
f 553/11/3 545/11/3 552/11/3
f 554/11/3 547/11/3 546/11/3
f 554/8/3 546/8/3 553/8/3
f 555/1/3 548/1/3 547/1/3
f 555/11/3 547/11/3 554/11/3
f 556/13/3 549/13/3 548/13/3
f 556/1/3 548/1/3 555/1/3
f 557/3/3 541/3/3 549/3/3
f 557/13/3 549/13/3 556/13/3
f 558/3/3 541/3/3 557/3/3
f 561/8/3 551/8/3 550/8/3
f 562/11/3 552/11/3 551/11/3
f 562/8/3 551/8/3 561/8/3
f 563/8/3 553/8/3 552/8/3
f 563/11/3 552/11/3 562/11/3
f 564/11/3 554/11/3 553/11/3
f 564/8/3 553/8/3 563/8/3
f 565/5/3 555/5/3 554/5/3
f 565/11/3 554/11/3 564/11/3
f 566/1/3 556/1/3 555/1/3
f 566/1/3 557/1/3 556/1/3
f 567/1/3 557/1/3 566/1/3
f 568/1/3 557/1/3 567/1/3
f 569/1/3 557/1/3 568/1/3
f 570/11/3 562/11/3 561/11/3
f 571/8/3 563/8/3 562/8/3
f 571/11/3 562/11/3 570/11/3
f 572/11/3 564/11/3 563/11/3
f 572/8/3 563/8/3 571/8/3
f 573/8/3 565/8/3 564/8/3
f 573/11/3 564/11/3 572/11/3
f 574/5/3 555/5/3 565/5/3
f 574/8/3 565/8/3 573/8/3
f 575/1/3 566/1/3 555/1/3
f 575/2/3 567/2/3 566/2/3
f 576/1/3 568/1/3 567/1/3
f 576/2/3 567/2/3 575/2/3
f 577/1/3 568/1/3 576/1/3
f 579/8/3 571/8/3 570/8/3
f 580/11/3 572/11/3 571/11/3
f 580/8/3 571/8/3 579/8/3
f 581/8/3 573/8/3 572/8/3
f 581/11/3 572/11/3 580/11/3
f 582/11/3 574/11/3 573/11/3
f 582/8/3 573/8/3 581/8/3
f 583/5/3 555/5/3 574/5/3
f 583/11/3 574/11/3 582/11/3
f 584/1/3 578/1/3 577/1/3
f 584/5/3 555/5/3 583/5/3
f 584/1/3 575/1/3 555/1/3
f 584/1/3 577/1/3 576/1/3
f 584/1/3 576/1/3 575/1/3
f 585/1/3 578/1/3 584/1/3
f 586/1/3 578/1/3 585/1/3
f 588/11/3 560/11/3 559/11/3
f 589/11/3 560/11/3 588/11/3
f 590/11/3 580/11/3 579/11/3
f 591/8/3 581/8/3 580/8/3
f 591/11/3 580/11/3 590/11/3
f 592/11/3 582/11/3 581/11/3
f 592/8/3 581/8/3 591/8/3
f 593/8/3 583/8/3 582/8/3
f 593/11/3 582/11/3 592/11/3
f 594/11/3 584/11/3 583/11/3
f 594/8/3 583/8/3 593/8/3
f 595/1/3 585/1/3 584/1/3
f 595/11/3 584/11/3 594/11/3
f 596/13/3 586/13/3 585/13/3
f 596/1/3 585/1/3 595/1/3
f 597/3/3 587/3/3 586/3/3
f 597/13/3 586/13/3 596/13/3
f 598/1/3 596/1/3 595/1/3
f 598/1/3 597/1/3 596/1/3
f 599/1/3 597/1/3 598/1/3
f 600/3/3 587/3/3 597/3/3
f 600/1/3 597/1/3 599/1/3
f 601/3/3 587/3/3 600/3/3
f 604/11/3 603/11/3 602/11/3
f 605/11/3 603/11/3 604/11/3
f 615/10/3 607/10/3 606/10/3
f 616/10/3 607/10/3 615/10/3
f 618/12/3 609/12/3 608/12/3
f 618/8/3 610/8/3 609/8/3
f 619/11/3 611/11/3 610/11/3
f 619/8/3 610/8/3 618/8/3
f 620/8/3 612/8/3 611/8/3
f 620/11/3 611/11/3 619/11/3
f 621/11/3 613/11/3 612/11/3
f 621/8/3 612/8/3 620/8/3
f 622/8/3 614/8/3 613/8/3
f 622/11/3 613/11/3 621/11/3
f 623/8/3 614/8/3 622/8/3
f 624/10/3 617/10/3 616/10/3
f 625/10/3 617/10/3 624/10/3
f 626/12/3 618/12/3 608/12/3
f 627/12/3 626/12/3 608/12/3
f 628/12/3 627/12/3 608/12/3
f 629/12/3 628/12/3 608/12/3
f 630/12/3 629/12/3 608/12/3
f 638/12/3 630/12/3 608/12/3
f 639/8/3 631/8/3 630/8/3
f 639/12/3 630/12/3 638/12/3
f 640/11/3 632/11/3 631/11/3
f 640/8/3 631/8/3 639/8/3
f 641/8/3 633/8/3 632/8/3
f 641/11/3 632/11/3 640/11/3
f 642/11/3 634/11/3 633/11/3
f 642/8/3 633/8/3 641/8/3
f 643/8/3 635/8/3 634/8/3
f 643/11/3 634/11/3 642/11/3
f 644/8/3 635/8/3 643/8/3
f 646/10/3 637/10/3 636/10/3
f 647/10/3 637/10/3 646/10/3
f 648/10/3 646/10/3 645/10/3
f 649/10/3 646/10/3 648/10/3
f 654/11/3 651/11/3 650/11/3
f 655/11/3 651/11/3 654/11/3
f 656/11/3 653/11/3 652/11/3
f 657/11/3 653/11/3 656/11/3
f 660/5/3 659/5/3 658/5/3
f 661/5/3 659/5/3 660/5/3
f 662/5/3 659/5/3 661/5/3
f 666/6/3 664/6/3 663/6/3
f 667/12/3 665/12/3 664/12/3
f 667/6/3 664/6/3 666/6/3
f 668/12/3 665/12/3 667/12/3
f 672/6/3 670/6/3 669/6/3
f 673/12/3 671/12/3 670/12/3
f 673/6/3 670/6/3 672/6/3
f 674/12/3 671/12/3 673/12/3
f 681/5/3 676/5/3 675/5/3
f 681/5/3 677/5/3 676/5/3
f 682/5/3 677/5/3 681/5/3
f 682/5/3 681/5/3 680/5/3
f 683/5/3 677/5/3 682/5/3
f 686/6/3 679/6/3 678/6/3
f 687/1/3 680/1/3 679/1/3
f 687/6/3 679/6/3 686/6/3
f 688/5/3 682/5/3 680/5/3
f 688/1/3 680/1/3 687/1/3
f 689/5/3 682/5/3 688/5/3
f 692/11/3 685/11/3 684/11/3
f 693/11/3 685/11/3 692/11/3
f 694/11/3 691/11/3 690/11/3
f 695/11/3 691/11/3 694/11/3
f 696/7/4 697/7/4 698/7/4
f 698/7/4 697/7/4 699/7/4
f 700/3/4 701/3/4 704/3/4
f 704/3/4 701/3/4 705/3/4
f 702/3/4 703/3/4 706/3/4
f 706/3/4 703/3/4 707/3/4
f 708/5/4 709/5/4 710/5/4
f 710/5/4 709/5/4 711/5/4
f 712/11/4 713/11/4 714/11/4
f 714/11/4 713/11/4 715/11/4
f 716/11/4 717/11/4 718/11/4
f 718/11/4 717/11/4 719/11/4
f 720/5/4 721/5/4 724/5/4
f 724/5/4 721/5/4 725/5/4
f 725/5/4 721/5/4 726/5/4
f 722/10/4 723/10/4 727/10/4
f 727/10/4 723/10/4 728/10/4
f 728/10/4 729/10/4 733/10/4
f 733/10/4 729/10/4 734/10/4
f 730/6/4 731/6/4 737/6/4
f 731/12/4 732/12/4 738/12/4
f 737/6/4 731/6/4 738/6/4
f 738/12/4 732/12/4 739/12/4
f 735/11/4 736/11/4 743/11/4
f 743/11/4 736/11/4 744/11/4
f 740/6/4 741/6/4 745/6/4
f 741/12/4 742/12/4 746/12/4
f 745/6/4 741/6/4 746/6/4
f 746/12/4 742/12/4 747/12/4
f 748/10/4 749/10/4 754/10/4
f 754/10/4 749/10/4 755/10/4
f 751/5/4 752/5/4 759/5/4
f 750/5/4 751/5/4 759/5/4
f 753/10/4 754/10/4 760/10/4
f 760/10/4 754/10/4 761/10/4
f 758/5/4 759/5/4 762/5/4
f 759/5/4 752/5/4 762/5/4
f 762/5/4 752/5/4 763/5/4
f 756/6/4 757/6/4 766/6/4
f 757/1/4 758/1/4 767/1/4
f 766/6/4 757/6/4 767/6/4
f 758/5/4 762/5/4 768/5/4
f 767/1/4 758/1/4 768/1/4
f 768/5/4 762/5/4 769/5/4
f 764/11/4 765/11/4 772/11/4
f 772/11/4 765/11/4 773/11/4
f 770/11/4 771/11/4 774/11/4
f 774/11/4 771/11/4 775/11/4
f 776/11/4 777/11/4 785/11/4
f 785/11/4 777/11/4 786/11/4
f 778/12/4 779/12/4 787/12/4
f 779/11/4 780/11/4 787/11/4
f 780/8/4 781/8/4 788/8/4
f 787/11/4 780/11/4 788/11/4
f 781/11/4 782/11/4 789/11/4
f 788/8/4 781/8/4 789/8/4
f 782/8/4 783/8/4 790/8/4
f 789/11/4 782/11/4 790/11/4
f 783/11/4 784/11/4 791/11/4
f 790/8/4 783/8/4 791/8/4
f 791/11/4 784/11/4 792/11/4
f 778/12/4 787/12/4 793/12/4
f 778/12/4 793/12/4 794/12/4
f 778/12/4 794/12/4 795/12/4
f 778/12/4 795/12/4 796/12/4
f 778/12/4 796/12/4 797/12/4
f 778/12/4 797/12/4 803/12/4
f 797/11/4 798/11/4 804/11/4
f 803/12/4 797/12/4 804/12/4
f 798/8/4 799/8/4 805/8/4
f 804/11/4 798/11/4 805/11/4
f 799/11/4 800/11/4 806/11/4
f 805/8/4 799/8/4 806/8/4
f 800/8/4 801/8/4 807/8/4
f 806/11/4 800/11/4 807/11/4
f 801/11/4 802/11/4 808/11/4
f 807/8/4 801/8/4 808/8/4
f 808/11/4 802/11/4 809/11/4
f 810/11/4 811/11/4 812/11/4
f 812/11/4 811/11/4 813/11/4
f 814/11/4 815/11/4 818/11/4
f 818/11/4 815/11/4 819/11/4
f 816/11/4 817/11/4 820/11/4
f 820/11/4 817/11/4 821/11/4
f 822/10/4 823/10/4 825/10/4
f 825/10/4 823/10/4 826/10/4
f 824/1/4 825/1/4 833/1/4
f 833/1/4 825/1/4 834/1/4
f 834/1/4 825/1/4 835/1/4
f 826/10/4 827/10/4 836/10/4
f 836/10/4 827/10/4 837/10/4
f 828/8/4 829/8/4 839/8/4
f 829/11/4 830/11/4 840/11/4
f 839/8/4 829/8/4 840/8/4
f 830/8/4 831/8/4 841/8/4
f 840/11/4 830/11/4 841/11/4
f 831/11/4 832/11/4 842/11/4
f 841/8/4 831/8/4 842/8/4
f 832/8/4 833/8/4 843/8/4
f 842/11/4 832/11/4 843/11/4
f 833/1/4 834/1/4 844/1/4
f 843/8/4 833/8/4 844/8/4
f 844/1/4 834/1/4 845/1/4
f 839/11/4 840/11/4 846/11/4
f 840/8/4 841/8/4 847/8/4
f 846/11/4 840/11/4 847/11/4
f 841/11/4 842/11/4 848/11/4
f 847/8/4 841/8/4 848/8/4
f 842/8/4 843/8/4 849/8/4
f 848/11/4 842/11/4 849/11/4
f 843/11/4 844/11/4 850/11/4
f 849/8/4 843/8/4 850/8/4
f 850/11/4 844/11/4 851/11/4
f 846/8/4 847/8/4 852/8/4
f 847/11/4 848/11/4 853/11/4
f 852/8/4 847/8/4 853/8/4
f 848/8/4 849/8/4 854/8/4
f 853/11/4 848/11/4 854/11/4
f 849/11/4 850/11/4 855/11/4
f 854/8/4 849/8/4 855/8/4
f 850/8/4 851/8/4 856/8/4
f 855/11/4 850/11/4 856/11/4
f 856/8/4 851/8/4 857/8/4
f 852/11/4 853/11/4 858/11/4
f 853/8/4 854/8/4 859/8/4
f 858/11/4 853/11/4 859/11/4
f 854/11/4 855/11/4 860/11/4
f 859/8/4 854/8/4 860/8/4
f 855/8/4 856/8/4 861/8/4
f 860/11/4 855/11/4 861/11/4
f 856/11/4 857/11/4 862/11/4
f 861/8/4 856/8/4 862/8/4
f 862/11/4 857/11/4 863/11/4
f 858/8/4 859/8/4 865/8/4
f 859/11/4 860/11/4 866/11/4
f 865/8/4 859/8/4 866/8/4
f 860/8/4 861/8/4 867/8/4
f 866/11/4 860/11/4 867/11/4
f 861/11/4 862/11/4 868/11/4
f 867/8/4 861/8/4 868/8/4
f 862/8/4 863/8/4 869/8/4
f 868/11/4 862/11/4 869/11/4
f 863/1/4 864/1/4 870/1/4
f 869/8/4 863/8/4 870/8/4
f 870/1/4 864/1/4 871/1/4
f 837/10/4 838/10/4 874/10/4
f 874/10/4 838/10/4 875/10/4
f 871/1/4 872/1/4 876/1/4
f 870/1/4 871/1/4 876/1/4
f 876/1/4 872/1/4 877/1/4
f 873/10/4 874/10/4 879/10/4
f 879/10/4 874/10/4 880/10/4
f 877/11/4 878/11/4 881/11/4
f 878/10/4 879/10/4 882/10/4
f 881/11/4 878/11/4 882/11/4
f 882/10/4 879/10/4 883/10/4
f 884/11/4 885/11/4 886/11/4
f 886/11/4 885/11/4 887/11/4
f 888/11/4 889/11/4 891/11/4
f 891/11/4 889/11/4 892/11/4
f 890/11/4 891/11/4 895/11/4
f 891/11/4 892/11/4 895/11/4
f 894/11/4 895/11/4 896/11/4
f 895/11/4 892/11/4 897/11/4
f 896/11/4 895/11/4 897/11/4
f 897/11/4 892/11/4 898/11/4
f 898/11/4 892/11/4 899/11/4
f 892/10/4 893/10/4 900/10/4
f 899/11/4 892/11/4 900/11/4
f 900/10/4 893/10/4 901/10/4
f 899/11/4 900/11/4 902/11/4
f 902/11/4 900/11/4 903/11/4
f 908/6/5 905/6/5 904/6/5
f 909/6/5 905/6/5 908/6/5
f 910/6/5 907/6/5 906/6/5
f 911/6/5 907/6/5 910/6/5
f 914/11/5 913/11/5 912/11/5
f 915/11/5 913/11/5 914/11/5
f 918/11/5 917/11/5 916/11/5
f 919/11/5 917/11/5 918/11/5
f 922/11/5 921/11/5 920/11/5
f 923/11/5 921/11/5 922/11/5
f 928/11/5 925/11/5 924/11/5
f 929/11/5 925/11/5 928/11/5
f 930/12/5 927/12/5 926/12/5
f 931/12/5 927/12/5 930/12/5
f 932/12/5 927/12/5 931/12/5
f 933/12/5 927/12/5 932/12/5
f 936/12/5 930/12/5 926/12/5
f 937/12/5 932/12/5 931/12/5
f 938/12/5 932/12/5 937/12/5
f 939/12/5 927/12/5 933/12/5
f 940/6/5 935/6/5 934/6/5
f 941/6/5 935/6/5 940/6/5
f 942/12/5 939/12/5 938/12/5
f 942/12/5 938/12/5 937/12/5
f 942/12/5 936/12/5 926/12/5
f 942/12/5 937/12/5 936/12/5
f 943/12/5 927/12/5 939/12/5
f 943/12/5 939/12/5 942/12/5
f 946/11/5 945/11/5 944/11/5
f 947/11/5 945/11/5 946/11/5
f 954/11/5 949/11/5 948/11/5
f 955/8/5 950/8/5 949/8/5
f 955/11/5 949/11/5 954/11/5
f 956/11/5 951/11/5 950/11/5
f 956/8/5 950/8/5 955/8/5
f 957/8/5 952/8/5 951/8/5
f 957/11/5 951/11/5 956/11/5
f 958/11/5 953/11/5 952/11/5
f 958/8/5 952/8/5 957/8/5
f 959/11/5 953/11/5 958/11/5
f 966/8/5 961/8/5 960/8/5
f 967/11/5 962/11/5 961/11/5
f 967/8/5 961/8/5 966/8/5
f 968/8/5 963/8/5 962/8/5
f 968/11/5 962/11/5 967/11/5
f 969/11/5 964/11/5 963/11/5
f 969/8/5 963/8/5 968/8/5
f 970/8/5 965/8/5 964/8/5
f 970/11/5 964/11/5 969/11/5
f 971/8/5 965/8/5 970/8/5
f 974/3/5 973/3/5 972/3/5
f 975/3/5 973/3/5 974/3/5
f 979/6/5 977/6/5 976/6/5
f 979/6/5 978/6/5 977/6/5
f 980/6/5 978/6/5 979/6/5
f 981/1/5 980/1/5 979/1/5
f 982/1/5 980/1/5 981/1/5
f 983/5/5 982/5/5 981/5/5
f 984/5/5 982/5/5 983/5/5
f 985/5/5 982/5/5 984/5/5
f 989/5/5 985/5/5 984/5/5
f 989/5/5 986/5/5 985/5/5
f 990/5/5 986/5/5 989/5/5
f 991/5/5 988/5/5 987/5/5
f 992/5/5 988/5/5 991/5/5
f 997/10/5 994/10/5 993/10/5
f 998/10/5 994/10/5 997/10/5
f 999/10/5 996/10/5 995/10/5
f 1000/10/5 996/10/5 999/10/5
f 1001/11/5 998/11/5 997/11/5
f 1004/11/5 1000/11/5 999/11/5
f 1005/1/5 1002/1/5 1001/1/5
f 1005/11/5 1001/11/5 997/11/5
f 1006/1/5 1002/1/5 1005/1/5
f 1007/1/5 1004/1/5 1003/1/5
f 1008/11/5 1000/11/5 1004/11/5
f 1008/1/5 1004/1/5 1007/1/5
f 1009/11/5 1005/11/5 997/11/5
f 1010/11/5 1000/11/5 1008/11/5
f 1011/11/5 1009/11/5 997/11/5
f 1012/11/5 1009/11/5 1011/11/5
f 1013/11/5 1000/11/5 1010/11/5
f 1014/11/5 1000/11/5 1013/11/5
f 1019/1/5 1016/1/5 1015/1/5
f 1020/1/5 1016/1/5 1019/1/5
f 1025/1/5 1018/1/5 1017/1/5
f 1026/1/5 1018/1/5 1025/1/5
f 1027/11/5 1024/11/5 1023/11/5
f 1027/11/5 1022/11/5 1021/11/5
f 1027/11/5 1023/11/5 1022/11/5
f 1028/11/5 1024/11/5 1027/11/5
f 1031/7/5 1030/7/5 1029/7/5
f 1032/7/5 1030/7/5 1031/7/5
f 1037/11/5 1034/11/5 1033/11/5
f 1038/11/5 1034/11/5 1037/11/5
f 1039/11/5 1036/11/5 1035/11/5
f 1040/11/5 1036/11/5 1039/11/5
f 1045/11/5 1042/11/5 1041/11/5
f 1046/11/5 1042/11/5 1045/11/5
f 1047/11/5 1044/11/5 1043/11/5
f 1048/11/5 1044/11/5 1047/11/5
f 1051/7/5 1050/7/5 1049/7/5
f 1052/7/5 1050/7/5 1051/7/5
f 1057/10/5 1054/10/5 1053/10/5
f 1058/10/5 1054/10/5 1057/10/5
f 1061/11/5 1056/11/5 1055/11/5
f 1062/11/5 1056/11/5 1061/11/5
f 1063/11/5 1059/11/5 1058/11/5
f 1064/11/5 1059/11/5 1063/11/5
f 1065/11/5 1061/11/5 1060/11/5
f 1066/11/5 1061/11/5 1065/11/5
f 1069/11/5 1068/11/5 1067/11/5
f 1070/11/5 1068/11/5 1069/11/5
f 1073/11/5 1072/11/5 1071/11/5
f 1074/11/5 1072/11/5 1073/11/5
f 1075/11/5 1073/11/5 1071/11/5
f 1076/11/5 1073/11/5 1075/11/5
f 1077/11/5 1072/11/5 1074/11/5
f 1078/11/5 1072/11/5 1077/11/5
f 1082/10/5 1080/10/5 1079/10/5
f 1083/10/5 1080/10/5 1082/10/5
f 1084/10/5 1080/10/5 1083/10/5
f 1085/10/5 1080/10/5 1084/10/5
f 1087/10/5 1082/10/5 1081/10/5
f 1088/11/5 1083/11/5 1082/11/5
f 1088/10/5 1082/10/5 1087/10/5
f 1089/10/5 1086/10/5 1085/10/5
f 1089/11/5 1085/11/5 1084/11/5
f 1090/10/5 1086/10/5 1089/10/5
f 1091/11/5 1083/11/5 1088/11/5
f 1092/11/5 1083/11/5 1091/11/5
f 1093/11/5 1089/11/5 1084/11/5
f 1094/11/5 1089/11/5 1093/11/5
f 1095/11/6 1096/11/6 1097/11/6
f 1097/11/6 1096/11/6 1098/11/6
f 1099/5/6 1100/5/6 1101/5/6
f 1101/5/6 1100/5/6 1102/5/6
f 1103/11/6 1104/11/6 1105/11/6
f 1105/11/6 1104/11/6 1106/11/6
f 1107/11/6 1108/11/6 1109/11/6
f 1109/11/6 1108/11/6 1110/11/6
f 1111/11/6 1112/11/6 1113/11/6
f 1113/11/6 1112/11/6 1114/11/6
f 1115/6/6 1116/6/6 1118/6/6
f 1116/6/6 1117/6/6 1118/6/6
f 1118/6/6 1117/6/6 1119/6/6
f 1118/1/6 1119/1/6 1120/1/6
f 1120/1/6 1119/1/6 1121/1/6
f 1120/5/6 1121/5/6 1122/5/6
f 1122/5/6 1121/5/6 1123/5/6
f 1123/5/6 1121/5/6 1124/5/6
f 1123/5/6 1124/5/6 1130/5/6
f 1124/5/6 1125/5/6 1130/5/6
f 1126/5/6 1127/5/6 1131/5/6
f 1123/5/6 1130/5/6 1132/5/6
f 1132/5/6 1130/5/6 1133/5/6
f 1131/5/6 1127/5/6 1134/5/6
f 1134/5/6 1127/5/6 1135/5/6
f 1128/11/6 1129/11/6 1136/11/6
f 1136/11/6 1129/11/6 1137/11/6
f 1138/10/6 1139/10/6 1142/10/6
f 1142/10/6 1139/10/6 1143/10/6
f 1140/10/6 1141/10/6 1144/10/6
f 1144/10/6 1141/10/6 1145/10/6
f 1146/10/6 1147/10/6 1150/10/6
f 1150/10/6 1147/10/6 1151/10/6
f 1148/10/6 1149/10/6 1152/10/6
f 1152/10/6 1149/10/6 1153/10/6
f 1154/7/6 1155/7/6 1156/7/6
f 1156/7/6 1155/7/6 1157/7/6
f 1158/3/6 1159/3/6 1160/3/6
f 1160/3/6 1159/3/6 1161/3/6
f 1162/7/6 1163/7/6 1166/7/6
f 1166/7/6 1163/7/6 1167/7/6
f 1164/10/6 1165/10/6 1169/10/6
f 1169/10/6 1165/10/6 1170/10/6
f 1170/10/6 1165/10/6 1171/10/6
f 1171/10/6 1165/10/6 1172/10/6
f 1172/10/6 1165/10/6 1173/10/6
f 1173/10/6 1165/10/6 1174/10/6
f 1168/10/6 1169/10/6 1176/10/6
f 1169/11/6 1170/11/6 1176/11/6
f 1176/11/6 1170/11/6 1177/11/6
f 1173/11/6 1174/11/6 1178/11/6
f 1174/10/6 1175/10/6 1179/10/6
f 1178/11/6 1174/11/6 1179/11/6
f 1168/10/6 1176/10/6 1180/10/6
f 1180/10/6 1176/10/6 1181/10/6
f 1179/10/6 1175/10/6 1182/10/6
f 1182/10/6 1175/10/6 1183/10/6
f 1184/10/6 1185/10/6 1188/10/6
f 1188/10/6 1185/10/6 1189/10/6
f 1186/10/6 1187/10/6 1192/10/6
f 1192/10/6 1187/10/6 1193/10/6
f 1189/11/6 1190/11/6 1194/11/6
f 1194/11/6 1190/11/6 1195/11/6
f 1191/11/6 1192/11/6 1196/11/6
f 1196/11/6 1192/11/6 1197/11/6
f 1198/10/6 1199/10/6 1203/10/6
f 1203/10/6 1199/10/6 1204/10/6
f 1200/10/6 1201/10/6 1205/10/6
f 1205/10/6 1201/10/6 1206/10/6
f 1202/10/6 1203/10/6 1209/10/6
f 1209/10/6 1203/10/6 1210/10/6
f 1206/10/6 1207/10/6 1211/10/6
f 1211/10/6 1207/10/6 1212/10/6
f 1208/10/6 1209/10/6 1214/10/6
f 1214/10/6 1209/10/6 1215/10/6
f 1212/10/6 1213/10/6 1218/10/6
f 1218/10/6 1213/10/6 1219/10/6
f 1215/10/6 1216/10/6 1220/10/6
f 1220/10/6 1216/10/6 1221/10/6
f 1217/10/6 1218/10/6 1222/10/6
f 1222/10/6 1218/10/6 1223/10/6
f 1221/10/6 1222/10/6 1224/10/6
f 1224/10/6 1222/10/6 1225/10/6
f 1226/10/6 1227/10/6 1229/10/6
f 1229/10/6 1227/10/6 1230/10/6
f 1228/10/6 1229/10/6 1232/10/6
f 1229/11/6 1230/11/6 1232/11/6
f 1230/10/6 1231/10/6 1233/10/6
f 1232/11/6 1230/11/6 1233/11/6
f 1228/10/6 1232/10/6 1235/10/6
f 1235/10/6 1232/10/6 1236/10/6
f 1233/10/6 1231/10/6 1237/10/6
f 1237/10/6 1231/10/6 1238/10/6
f 1234/10/6 1235/10/6 1240/10/6
f 1235/11/6 1236/11/6 1241/11/6
f 1240/10/6 1235/10/6 1241/10/6
f 1241/11/6 1236/11/6 1242/11/6
f 1237/11/6 1238/11/6 1243/11/6
f 1238/10/6 1239/10/6 1244/10/6
f 1243/11/6 1238/11/6 1244/11/6
f 1244/10/6 1239/10/6 1245/10/6
f 1242/11/6 1243/11/6 1246/11/6
f 1241/10/6 1242/10/6 1246/10/6
f 1243/10/6 1244/10/6 1247/10/6
f 1246/11/6 1243/11/6 1247/11/6
f 1241/10/6 1246/10/6 1248/10/6
f 1246/10/6 1247/10/6 1248/10/6
f 1247/10/6 1244/10/6 1249/10/6
f 1248/10/6 1247/10/6 1249/10/6
f 1250/11/6 1251/11/6 1252/11/6
f 1252/11/6 1251/11/6 1253/11/6
