# MagicaVoxel @ Ephtracy

# group
o 

# material
mtllib trap.mtl
usemtl palette

# normals
vn -1 0 0
vn 1 0 0
vn 0 0 1
vn 0 0 -1
vn 0 -1 0
vn 0 1 0

# texcoords
vt 0.146484 0.5
vt 0.931641 0.5
vt 0.955078 0.5
vt 0.982422 0.5

# verts
v -0.5 0.1 0.2
v -0.5 0.1 -0.3
v -0.5 0.2 0.2
v -0.5 0.2 0.1
v -0.5 0.2 0
v -0.5 0.2 -0.1
v -0.5 0.2 -0.2
v -0.5 0.2 -0.3
v -0.5 0.3 0.1
v -0.5 0.3 0
v -0.5 0.3 -0.1
v -0.5 0.3 -0.2
v -0.4 0 0.2
v -0.4 0 -0.3
v -0.4 0.1 0.3
v -0.4 0.1 0.2
v -0.4 0.1 -0.3
v -0.4 0.1 -0.4
v -0.4 0.2 0.3
v -0.4 0.2 0.2
v -0.4 0.2 -0.3
v -0.4 0.2 -0.4
v -0.3 0 0.4
v -0.3 0 0.3
v -0.3 0 0.2
v -0.3 0 -0.3
v -0.3 0 -0.4
v -0.3 0 -0.5
v -0.3 0.1 0.3
v -0.3 0.1 0.2
v -0.3 0.1 -0.3
v -0.3 0.1 -0.4
v -0.3 0.2 0.3
v -0.3 0.2 0.1
v -0.3 0.2 0
v -0.3 0.2 -0.1
v -0.3 0.2 -0.2
v -0.3 0.2 -0.4
v -0.3 0.3 0.4
v -0.3 0.3 0.3
v -0.3 0.3 0.1
v -0.3 0.3 0
v -0.3 0.3 -0.1
v -0.3 0.3 -0.2
v -0.3 0.3 -0.4
v -0.3 0.3 -0.5
v -0.2 0.1 0.5
v -0.2 0.1 0.4
v -0.2 0.1 -0.5
v -0.2 0.1 -0.6
v -0.2 0.2 0.5
v -0.2 0.2 0.4
v -0.2 0.2 0.3
v -0.2 0.2 0.1
v -0.2 0.2 -0.2
v -0.2 0.2 -0.4
v -0.2 0.2 -0.5
v -0.2 0.2 -0.6
v -0.2 0.3 0.3
v -0.2 0.3 0.1
v -0.2 0.3 -0.2
v -0.2 0.3 -0.4
v -0.1 0.2 0.4
v -0.1 0.2 0.3
v -0.1 0.2 0.1
v -0.1 0.2 0
v -0.1 0.2 -0.1
v -0.1 0.2 -0.2
v -0.1 0.2 -0.4
v -0.1 0.2 -0.5
v -0.1 0.3 0.4
v -0.1 0.3 0.3
v -0.1 0.3 0.1
v -0.1 0.3 0
v -0.1 0.3 -0.1
v -0.1 0.3 -0.2
v -0.1 0.3 -0.4
v -0.1 0.3 -0.5
v 0 0.3 0
v 0 0.3 -0.1
v 0 0.4 0
v 0 0.4 -0.1
v 0.1 0.2 0.4
v 0.1 0.2 0.3
v 0.1 0.2 -0.4
v 0.1 0.2 -0.5
v 0.1 0.3 0.4
v 0.1 0.3 0.3
v 0.1 0.3 -0.4
v 0.1 0.3 -0.5
v 0.2 0.2 0.3
v 0.2 0.2 0.1
v 0.2 0.2 -0.2
v 0.2 0.2 -0.4
v 0.2 0.3 0.3
v 0.2 0.3 0.1
v 0.2 0.3 -0.2
v 0.2 0.3 -0.4
v 0.3 0.2 0.4
v 0.3 0.2 0.3
v 0.3 0.2 0.1
v 0.3 0.2 0
v 0.3 0.2 -0.1
v 0.3 0.2 -0.2
v 0.3 0.2 -0.4
v 0.3 0.2 -0.5
v 0.3 0.3 0.4
v 0.3 0.3 0.3
v 0.3 0.3 0.1
v 0.3 0.3 0
v 0.3 0.3 -0.1
v 0.3 0.3 -0.2
v 0.3 0.3 -0.4
v 0.3 0.3 -0.5
v 0.5 0.2 0.1
v 0.5 0.2 0
v 0.5 0.2 -0.1
v 0.5 0.2 -0.2
v 0.5 0.3 0.1
v 0.5 0.3 0
v 0.5 0.3 -0.1
v 0.5 0.3 -0.2
v -0.4 0.2 0.1
v -0.4 0.2 0
v -0.4 0.2 -0.1
v -0.4 0.2 -0.2
v -0.4 0.3 0.1
v -0.4 0.3 0
v -0.4 0.3 -0.1
v -0.4 0.3 -0.2
v -0.2 0.2 0.4
v -0.2 0.2 0.3
v -0.2 0.2 0.1
v -0.2 0.2 0
v -0.2 0.2 -0.1
v -0.2 0.2 -0.2
v -0.2 0.2 -0.4
v -0.2 0.2 -0.5
v -0.2 0.3 0.4
v -0.2 0.3 0.3
v -0.2 0.3 0.1
v -0.2 0.3 0
v -0.2 0.3 -0.1
v -0.2 0.3 -0.2
v -0.2 0.3 -0.4
v -0.2 0.3 -0.5
v -0.1 0.2 0.3
v -0.1 0.2 0.1
v -0.1 0.2 -0.2
v -0.1 0.2 -0.4
v -0.1 0.3 0.3
v -0.1 0.3 0.1
v -0.1 0.3 -0.2
v -0.1 0.3 -0.4
v 0 0.2 0.4
v 0 0.2 0.3
v 0 0.2 -0.4
v 0 0.2 -0.5
v 0 0.3 0.4
v 0 0.3 0.3
v 0 0.3 -0.4
v 0 0.3 -0.5
v 0.1 0.3 0
v 0.1 0.3 -0.1
v 0.1 0.4 0
v 0.1 0.4 -0.1
v 0.2 0.2 0.4
v 0.2 0.2 0.3
v 0.2 0.2 0.1
v 0.2 0.2 0
v 0.2 0.2 -0.1
v 0.2 0.2 -0.2
v 0.2 0.2 -0.4
v 0.2 0.2 -0.5
v 0.2 0.3 0.4
v 0.2 0.3 0.3
v 0.2 0.3 0.1
v 0.2 0.3 0
v 0.2 0.3 -0.1
v 0.2 0.3 -0.2
v 0.2 0.3 -0.4
v 0.2 0.3 -0.5
v 0.3 0.1 0.5
v 0.3 0.1 0.4
v 0.3 0.1 -0.5
v 0.3 0.1 -0.6
v 0.3 0.2 0.5
v 0.3 0.2 0.4
v 0.3 0.2 0.3
v 0.3 0.2 0.1
v 0.3 0.2 -0.2
v 0.3 0.2 -0.4
v 0.3 0.2 -0.5
v 0.3 0.2 -0.6
v 0.3 0.3 0.3
v 0.3 0.3 0.1
v 0.3 0.3 -0.2
v 0.3 0.3 -0.4
v 0.4 0 0.4
v 0.4 0 0.3
v 0.4 0 0.2
v 0.4 0 -0.3
v 0.4 0 -0.4
v 0.4 0 -0.5
v 0.4 0.1 0.3
v 0.4 0.1 0.2
v 0.4 0.1 -0.3
v 0.4 0.1 -0.4
v 0.4 0.2 0.3
v 0.4 0.2 0.1
v 0.4 0.2 0
v 0.4 0.2 -0.1
v 0.4 0.2 -0.2
v 0.4 0.2 -0.4
v 0.4 0.3 0.4
v 0.4 0.3 0.3
v 0.4 0.3 0.1
v 0.4 0.3 0
v 0.4 0.3 -0.1
v 0.4 0.3 -0.2
v 0.4 0.3 -0.4
v 0.4 0.3 -0.5
v 0.5 0 0.2
v 0.5 0 -0.3
v 0.5 0.1 0.3
v 0.5 0.1 0.2
v 0.5 0.1 -0.3
v 0.5 0.1 -0.4
v 0.5 0.2 0.3
v 0.5 0.2 0.2
v 0.5 0.2 -0.3
v 0.5 0.2 -0.4
v 0.6 0.1 0.2
v 0.6 0.1 -0.3
v 0.6 0.2 0.2
v 0.6 0.2 0.1
v 0.6 0.2 0
v 0.6 0.2 -0.1
v 0.6 0.2 -0.2
v 0.6 0.2 -0.3
v 0.6 0.3 0.1
v 0.6 0.3 0
v 0.6 0.3 -0.1
v 0.6 0.3 -0.2
v -0.2 0.1 0.5
v -0.2 0.2 0.5
v 0.3 0.1 0.5
v 0.3 0.2 0.5
v -0.3 0 0.4
v -0.3 0.3 0.4
v -0.2 0 0.4
v -0.2 0.1 0.4
v -0.2 0.2 0.4
v -0.2 0.3 0.4
v -0.1 0.2 0.4
v -0.1 0.3 0.4
v 0 0.2 0.4
v 0 0.3 0.4
v 0.1 0.2 0.4
v 0.1 0.3 0.4
v 0.2 0.2 0.4
v 0.2 0.3 0.4
v 0.3 0 0.4
v 0.3 0.1 0.4
v 0.3 0.2 0.4
v 0.3 0.3 0.4
v 0.4 0 0.4
v 0.4 0.3 0.4
v -0.4 0.1 0.3
v -0.4 0.2 0.3
v -0.3 0.1 0.3
v -0.3 0.2 0.3
v -0.2 0.2 0.3
v -0.2 0.3 0.3
v -0.1 0.2 0.3
v -0.1 0.3 0.3
v 0.2 0.2 0.3
v 0.2 0.3 0.3
v 0.3 0.2 0.3
v 0.3 0.3 0.3
v 0.4 0.1 0.3
v 0.4 0.2 0.3
v 0.5 0.1 0.3
v 0.5 0.2 0.3
v -0.5 0.1 0.2
v -0.5 0.2 0.2
v -0.4 0 0.2
v -0.4 0.1 0.2
v -0.4 0.2 0.2
v -0.3 0 0.2
v -0.3 0.1 0.2
v 0.4 0 0.2
v 0.4 0.1 0.2
v 0.5 0 0.2
v 0.5 0.1 0.2
v 0.5 0.2 0.2
v 0.6 0.1 0.2
v 0.6 0.2 0.2
v -0.5 0.2 0.1
v -0.5 0.3 0.1
v -0.4 0.2 0.1
v -0.4 0.3 0.1
v -0.3 0.2 0.1
v -0.3 0.3 0.1
v -0.2 0.2 0.1
v -0.2 0.3 0.1
v -0.1 0.2 0.1
v -0.1 0.3 0.1
v 0 0.2 0.1
v 0 0.3 0.1
v 0.1 0.2 0.1
v 0.1 0.3 0.1
v 0.2 0.2 0.1
v 0.2 0.3 0.1
v 0.3 0.2 0.1
v 0.3 0.3 0.1
v 0.4 0.2 0.1
v 0.4 0.3 0.1
v 0.5 0.2 0.1
v 0.5 0.3 0.1
v 0.6 0.2 0.1
v 0.6 0.3 0.1
v 0 0.3 0
v 0 0.4 0
v 0.1 0.3 0
v 0.1 0.4 0
v -0.5 0.2 -0.1
v -0.5 0.3 -0.1
v -0.4 0.2 -0.1
v -0.4 0.3 -0.1
v -0.3 0.2 -0.1
v -0.3 0.3 -0.1
v -0.2 0.2 -0.1
v -0.2 0.3 -0.1
v 0.3 0.2 -0.1
v 0.3 0.3 -0.1
v 0.4 0.2 -0.1
v 0.4 0.3 -0.1
v 0.5 0.2 -0.1
v 0.5 0.3 -0.1
v 0.6 0.2 -0.1
v 0.6 0.3 -0.1
v -0.2 0.2 -0.2
v -0.2 0.3 -0.2
v -0.1 0.2 -0.2
v -0.1 0.3 -0.2
v 0.2 0.2 -0.2
v 0.2 0.3 -0.2
v 0.3 0.2 -0.2
v 0.3 0.3 -0.2
v -0.3 0.2 -0.4
v -0.3 0.3 -0.4
v -0.2 0.2 -0.4
v -0.2 0.3 -0.4
v -0.1 0.2 -0.4
v -0.1 0.3 -0.4
v 0 0.2 -0.4
v 0 0.3 -0.4
v 0.1 0.2 -0.4
v 0.1 0.3 -0.4
v 0.2 0.2 -0.4
v 0.2 0.3 -0.4
v 0.3 0.2 -0.4
v 0.3 0.3 -0.4
v 0.4 0.2 -0.4
v 0.4 0.3 -0.4
v -0.3 0.2 0.3
v -0.3 0.3 0.3
v -0.2 0.2 0.3
v -0.2 0.3 0.3
v -0.1 0.2 0.3
v -0.1 0.3 0.3
v 0 0.2 0.3
v 0 0.3 0.3
v 0.1 0.2 0.3
v 0.1 0.3 0.3
v 0.2 0.2 0.3
v 0.2 0.3 0.3
v 0.3 0.2 0.3
v 0.3 0.3 0.3
v 0.4 0.2 0.3
v 0.4 0.3 0.3
v -0.2 0.2 0.1
v -0.2 0.3 0.1
v -0.1 0.2 0.1
v -0.1 0.3 0.1
v 0.2 0.2 0.1
v 0.2 0.3 0.1
v 0.3 0.2 0.1
v 0.3 0.3 0.1
v -0.5 0.2 0
v -0.5 0.3 0
v -0.4 0.2 0
v -0.4 0.3 0
v -0.3 0.2 0
v -0.3 0.3 0
v -0.2 0.2 0
v -0.2 0.3 0
v 0.3 0.2 0
v 0.3 0.3 0
v 0.4 0.2 0
v 0.4 0.3 0
v 0.5 0.2 0
v 0.5 0.3 0
v 0.6 0.2 0
v 0.6 0.3 0
v 0 0.3 -0.1
v 0 0.4 -0.1
v 0.1 0.3 -0.1
v 0.1 0.4 -0.1
v -0.5 0.2 -0.2
v -0.5 0.3 -0.2
v -0.4 0.2 -0.2
v -0.4 0.3 -0.2
v -0.3 0.2 -0.2
v -0.3 0.3 -0.2
v -0.2 0.2 -0.2
v -0.2 0.3 -0.2
v -0.1 0.2 -0.2
v -0.1 0.3 -0.2
v 0 0.2 -0.2
v 0 0.3 -0.2
v 0.1 0.2 -0.2
v 0.1 0.3 -0.2
v 0.2 0.2 -0.2
v 0.2 0.3 -0.2
v 0.3 0.2 -0.2
v 0.3 0.3 -0.2
v 0.4 0.2 -0.2
v 0.4 0.3 -0.2
v 0.5 0.2 -0.2
v 0.5 0.3 -0.2
v 0.6 0.2 -0.2
v 0.6 0.3 -0.2
v -0.5 0.1 -0.3
v -0.5 0.2 -0.3
v -0.4 0 -0.3
v -0.4 0.1 -0.3
v -0.4 0.2 -0.3
v -0.3 0 -0.3
v -0.3 0.1 -0.3
v 0.4 0 -0.3
v 0.4 0.1 -0.3
v 0.5 0 -0.3
v 0.5 0.1 -0.3
v 0.5 0.2 -0.3
v 0.6 0.1 -0.3
v 0.6 0.2 -0.3
v -0.4 0.1 -0.4
v -0.4 0.2 -0.4
v -0.3 0.1 -0.4
v -0.3 0.2 -0.4
v -0.2 0.2 -0.4
v -0.2 0.3 -0.4
v -0.1 0.2 -0.4
v -0.1 0.3 -0.4
v 0.2 0.2 -0.4
v 0.2 0.3 -0.4
v 0.3 0.2 -0.4
v 0.3 0.3 -0.4
v 0.4 0.1 -0.4
v 0.4 0.2 -0.4
v 0.5 0.1 -0.4
v 0.5 0.2 -0.4
v -0.3 0 -0.5
v -0.3 0.3 -0.5
v -0.2 0 -0.5
v -0.2 0.1 -0.5
v -0.2 0.2 -0.5
v -0.2 0.3 -0.5
v -0.1 0.2 -0.5
v -0.1 0.3 -0.5
v 0 0.2 -0.5
v 0 0.3 -0.5
v 0.1 0.2 -0.5
v 0.1 0.3 -0.5
v 0.2 0.2 -0.5
v 0.2 0.3 -0.5
v 0.3 0 -0.5
v 0.3 0.1 -0.5
v 0.3 0.2 -0.5
v 0.3 0.3 -0.5
v 0.4 0 -0.5
v 0.4 0.3 -0.5
v -0.2 0.1 -0.6
v -0.2 0.2 -0.6
v 0.3 0.1 -0.6
v 0.3 0.2 -0.6
v -0.3 0 0.4
v -0.2 0 0.4
v 0.3 0 0.4
v 0.4 0 0.4
v -0.3 0 0.3
v -0.2 0 0.3
v 0.3 0 0.3
v 0.4 0 0.3
v -0.4 0 0.2
v -0.3 0 0.2
v 0.4 0 0.2
v 0.5 0 0.2
v -0.4 0 -0.3
v -0.3 0 -0.3
v 0.4 0 -0.3
v 0.5 0 -0.3
v -0.3 0 -0.4
v -0.2 0 -0.4
v 0.3 0 -0.4
v 0.4 0 -0.4
v -0.3 0 -0.5
v -0.2 0 -0.5
v 0.3 0 -0.5
v 0.4 0 -0.5
v -0.2 0.1 0.5
v 0.3 0.1 0.5
v -0.2 0.1 0.4
v 0.3 0.1 0.4
v -0.4 0.1 0.3
v -0.3 0.1 0.3
v 0.4 0.1 0.3
v 0.5 0.1 0.3
v -0.5 0.1 0.2
v -0.4 0.1 0.2
v -0.3 0.1 0.2
v 0.4 0.1 0.2
v 0.5 0.1 0.2
v 0.6 0.1 0.2
v -0.5 0.1 -0.3
v -0.4 0.1 -0.3
v -0.3 0.1 -0.3
v 0.4 0.1 -0.3
v 0.5 0.1 -0.3
v 0.6 0.1 -0.3
v -0.4 0.1 -0.4
v -0.3 0.1 -0.4
v 0.4 0.1 -0.4
v 0.5 0.1 -0.4
v -0.2 0.1 -0.5
v 0.3 0.1 -0.5
v -0.2 0.1 -0.6
v 0.3 0.1 -0.6
v -0.2 0.2 0.5
v 0.3 0.2 0.5
v -0.2 0.2 0.4
v -0.1 0.2 0.4
v 0 0.2 0.4
v 0.1 0.2 0.4
v 0.2 0.2 0.4
v 0.3 0.2 0.4
v -0.4 0.2 0.3
v -0.3 0.2 0.3
v -0.2 0.2 0.3
v -0.1 0.2 0.3
v 0 0.2 0.3
v 0.1 0.2 0.3
v 0.2 0.2 0.3
v 0.3 0.2 0.3
v 0.4 0.2 0.3
v 0.5 0.2 0.3
v -0.5 0.2 0.2
v -0.4 0.2 0.2
v 0.5 0.2 0.2
v 0.6 0.2 0.2
v -0.5 0.2 0.1
v -0.4 0.2 0.1
v -0.3 0.2 0.1
v -0.2 0.2 0.1
v -0.1 0.2 0.1
v 0 0.2 0.1
v 0.1 0.2 0.1
v 0.2 0.2 0.1
v 0.3 0.2 0.1
v 0.4 0.2 0.1
v 0.5 0.2 0.1
v 0.6 0.2 0.1
v -0.5 0.2 0
v -0.4 0.2 0
v -0.3 0.2 0
v -0.2 0.2 0
v -0.1 0.2 0
v 0.2 0.2 0
v 0.3 0.2 0
v 0.4 0.2 0
v 0.5 0.2 0
v 0.6 0.2 0
v -0.5 0.2 -0.1
v -0.4 0.2 -0.1
v -0.3 0.2 -0.1
v -0.2 0.2 -0.1
v -0.1 0.2 -0.1
v 0.2 0.2 -0.1
v 0.3 0.2 -0.1
v 0.4 0.2 -0.1
v 0.5 0.2 -0.1
v 0.6 0.2 -0.1
v -0.5 0.2 -0.2
v -0.4 0.2 -0.2
v -0.3 0.2 -0.2
v -0.2 0.2 -0.2
v -0.1 0.2 -0.2
v 0 0.2 -0.2
v 0.1 0.2 -0.2
v 0.2 0.2 -0.2
v 0.3 0.2 -0.2
v 0.4 0.2 -0.2
v 0.5 0.2 -0.2
v 0.6 0.2 -0.2
v -0.5 0.2 -0.3
v -0.4 0.2 -0.3
v 0.5 0.2 -0.3
v 0.6 0.2 -0.3
v -0.4 0.2 -0.4
v -0.3 0.2 -0.4
v -0.2 0.2 -0.4
v -0.1 0.2 -0.4
v 0 0.2 -0.4
v 0.1 0.2 -0.4
v 0.2 0.2 -0.4
v 0.3 0.2 -0.4
v 0.4 0.2 -0.4
v 0.5 0.2 -0.4
v -0.2 0.2 -0.5
v -0.1 0.2 -0.5
v 0 0.2 -0.5
v 0.1 0.2 -0.5
v 0.2 0.2 -0.5
v 0.3 0.2 -0.5
v -0.2 0.2 -0.6
v 0.3 0.2 -0.6
v -0.3 0.3 0.4
v -0.2 0.3 0.4
v -0.1 0.3 0.4
v 0 0.3 0.4
v 0.1 0.3 0.4
v 0.2 0.3 0.4
v 0.3 0.3 0.4
v 0.4 0.3 0.4
v -0.3 0.3 0.3
v -0.2 0.3 0.3
v -0.1 0.3 0.3
v 0 0.3 0.3
v 0.1 0.3 0.3
v 0.2 0.3 0.3
v 0.3 0.3 0.3
v 0.4 0.3 0.3
v -0.5 0.3 0.1
v -0.4 0.3 0.1
v -0.3 0.3 0.1
v -0.2 0.3 0.1
v -0.1 0.3 0.1
v 0 0.3 0.1
v 0.1 0.3 0.1
v 0.2 0.3 0.1
v 0.3 0.3 0.1
v 0.4 0.3 0.1
v 0.5 0.3 0.1
v 0.6 0.3 0.1
v -0.5 0.3 0
v -0.4 0.3 0
v -0.3 0.3 0
v -0.2 0.3 0
v -0.1 0.3 0
v 0 0.3 0
v 0.1 0.3 0
v 0.2 0.3 0
v 0.3 0.3 0
v 0.4 0.3 0
v 0.5 0.3 0
v 0.6 0.3 0
v -0.5 0.3 -0.1
v -0.4 0.3 -0.1
v -0.3 0.3 -0.1
v -0.2 0.3 -0.1
v -0.1 0.3 -0.1
v 0 0.3 -0.1
v 0.1 0.3 -0.1
v 0.2 0.3 -0.1
v 0.3 0.3 -0.1
v 0.4 0.3 -0.1
v 0.5 0.3 -0.1
v 0.6 0.3 -0.1
v -0.5 0.3 -0.2
v -0.4 0.3 -0.2
v -0.3 0.3 -0.2
v -0.2 0.3 -0.2
v -0.1 0.3 -0.2
v 0 0.3 -0.2
v 0.1 0.3 -0.2
v 0.2 0.3 -0.2
v 0.3 0.3 -0.2
v 0.4 0.3 -0.2
v 0.5 0.3 -0.2
v 0.6 0.3 -0.2
v -0.3 0.3 -0.4
v -0.2 0.3 -0.4
v -0.1 0.3 -0.4
v 0 0.3 -0.4
v 0.1 0.3 -0.4
v 0.2 0.3 -0.4
v 0.3 0.3 -0.4
v 0.4 0.3 -0.4
v -0.3 0.3 -0.5
v -0.2 0.3 -0.5
v -0.1 0.3 -0.5
v 0 0.3 -0.5
v 0.1 0.3 -0.5
v 0.2 0.3 -0.5
v 0.3 0.3 -0.5
v 0.4 0.3 -0.5
v 0 0.4 0
v 0.1 0.4 0
v 0 0.4 -0.1
v 0.1 0.4 -0.1

# faces
f 3/4/1 2/4/1 1/4/1
f 4/4/1 2/4/1 3/4/1
f 5/4/1 2/4/1 4/4/1
f 6/4/1 2/4/1 5/4/1
f 7/4/1 2/4/1 6/4/1
f 8/4/1 2/4/1 7/4/1
f 9/2/1 5/2/1 4/2/1
f 10/2/1 5/2/1 9/2/1
f 11/2/1 7/2/1 6/2/1
f 12/2/1 7/2/1 11/2/1
f 16/4/1 14/4/1 13/4/1
f 17/4/1 14/4/1 16/4/1
f 19/4/1 16/4/1 15/4/1
f 20/4/1 16/4/1 19/4/1
f 21/4/1 18/4/1 17/4/1
f 22/4/1 18/4/1 21/4/1
f 29/3/1 24/3/1 23/3/1
f 29/4/1 25/4/1 24/4/1
f 30/4/1 25/4/1 29/4/1
f 31/4/1 27/4/1 26/4/1
f 32/3/1 28/3/1 27/3/1
f 32/4/1 27/4/1 31/4/1
f 33/3/1 29/3/1 23/3/1
f 38/3/1 28/3/1 32/3/1
f 39/3/1 33/3/1 23/3/1
f 40/3/1 33/3/1 39/3/1
f 41/2/1 35/2/1 34/2/1
f 42/2/1 35/2/1 41/2/1
f 43/2/1 37/2/1 36/2/1
f 44/2/1 37/2/1 43/2/1
f 45/3/1 28/3/1 38/3/1
f 46/3/1 28/3/1 45/3/1
f 51/4/1 48/4/1 47/4/1
f 52/4/1 48/4/1 51/4/1
f 57/4/1 50/4/1 49/4/1
f 58/4/1 50/4/1 57/4/1
f 59/3/1 54/3/1 53/3/1
f 60/3/1 54/3/1 59/3/1
f 61/3/1 56/3/1 55/3/1
f 62/3/1 56/3/1 61/3/1
f 71/2/1 64/2/1 63/2/1
f 72/2/1 64/2/1 71/2/1
f 73/3/1 66/3/1 65/3/1
f 74/1/1 67/1/1 66/1/1
f 74/3/1 66/3/1 73/3/1
f 75/3/1 68/3/1 67/3/1
f 75/1/1 67/1/1 74/1/1
f 76/3/1 68/3/1 75/3/1
f 77/2/1 70/2/1 69/2/1
f 78/2/1 70/2/1 77/2/1
f 81/1/1 80/1/1 79/1/1
f 82/1/1 80/1/1 81/1/1
f 87/2/1 84/2/1 83/2/1
f 88/2/1 84/2/1 87/2/1
f 89/2/1 86/2/1 85/2/1
f 90/2/1 86/2/1 89/2/1
f 95/3/1 92/3/1 91/3/1
f 96/3/1 92/3/1 95/3/1
f 97/3/1 94/3/1 93/3/1
f 98/3/1 94/3/1 97/3/1
f 107/3/1 100/3/1 99/3/1
f 108/3/1 100/3/1 107/3/1
f 109/2/1 102/2/1 101/2/1
f 110/2/1 102/2/1 109/2/1
f 111/2/1 104/2/1 103/2/1
f 112/2/1 104/2/1 111/2/1
f 113/3/1 106/3/1 105/3/1
f 114/3/1 106/3/1 113/3/1
f 119/2/1 116/2/1 115/2/1
f 120/2/1 116/2/1 119/2/1
f 121/2/1 118/2/1 117/2/1
f 122/2/1 118/2/1 121/2/1
f 123/2/2 124/2/2 127/2/2
f 127/2/2 124/2/2 128/2/2
f 125/2/2 126/2/2 129/2/2
f 129/2/2 126/2/2 130/2/2
f 131/3/2 132/3/2 139/3/2
f 139/3/2 132/3/2 140/3/2
f 133/2/2 134/2/2 141/2/2
f 141/2/2 134/2/2 142/2/2
f 135/2/2 136/2/2 143/2/2
f 143/2/2 136/2/2 144/2/2
f 137/3/2 138/3/2 145/3/2
f 145/3/2 138/3/2 146/3/2
f 147/3/2 148/3/2 151/3/2
f 151/3/2 148/3/2 152/3/2
f 149/3/2 150/3/2 153/3/2
f 153/3/2 150/3/2 154/3/2
f 155/2/2 156/2/2 159/2/2
f 159/2/2 156/2/2 160/2/2
f 157/2/2 158/2/2 161/2/2
f 161/2/2 158/2/2 162/2/2
f 163/1/2 164/1/2 165/1/2
f 165/1/2 164/1/2 166/1/2
f 167/2/2 168/2/2 175/2/2
f 175/2/2 168/2/2 176/2/2
f 169/3/2 170/3/2 177/3/2
f 170/1/2 171/1/2 178/1/2
f 177/3/2 170/3/2 178/3/2
f 171/3/2 172/3/2 179/3/2
f 178/1/2 171/1/2 179/1/2
f 179/3/2 172/3/2 180/3/2
f 173/2/2 174/2/2 181/2/2
f 181/2/2 174/2/2 182/2/2
f 183/4/2 184/4/2 187/4/2
f 187/4/2 184/4/2 188/4/2
f 185/4/2 186/4/2 193/4/2
f 193/4/2 186/4/2 194/4/2
f 189/3/2 190/3/2 195/3/2
f 195/3/2 190/3/2 196/3/2
f 191/3/2 192/3/2 197/3/2
f 197/3/2 192/3/2 198/3/2
f 199/3/2 200/3/2 205/3/2
f 200/4/2 201/4/2 205/4/2
f 205/4/2 201/4/2 206/4/2
f 202/4/2 203/4/2 207/4/2
f 203/3/2 204/3/2 208/3/2
f 207/4/2 203/4/2 208/4/2
f 199/3/2 205/3/2 209/3/2
f 208/3/2 204/3/2 214/3/2
f 199/3/2 209/3/2 215/3/2
f 215/3/2 209/3/2 216/3/2
f 210/2/2 211/2/2 217/2/2
f 217/2/2 211/2/2 218/2/2
f 212/2/2 213/2/2 219/2/2
f 219/2/2 213/2/2 220/2/2
f 214/3/2 204/3/2 221/3/2
f 221/3/2 204/3/2 222/3/2
f 223/4/2 224/4/2 226/4/2
f 226/4/2 224/4/2 227/4/2
f 225/4/2 226/4/2 229/4/2
f 229/4/2 226/4/2 230/4/2
f 227/4/2 228/4/2 231/4/2
f 231/4/2 228/4/2 232/4/2
f 233/4/2 234/4/2 235/4/2
f 235/4/2 234/4/2 236/4/2
f 236/4/2 234/4/2 237/4/2
f 237/4/2 234/4/2 238/4/2
f 238/4/2 234/4/2 239/4/2
f 239/4/2 234/4/2 240/4/2
f 236/2/2 237/2/2 241/2/2
f 241/2/2 237/2/2 242/2/2
f 238/2/2 239/2/2 243/2/2
f 243/2/2 239/2/2 244/2/2
f 247/4/3 246/4/3 245/4/3
f 248/4/3 246/4/3 247/4/3
f 251/3/3 250/3/3 249/3/3
f 252/3/3 250/3/3 251/3/3
f 253/3/3 250/3/3 252/3/3
f 254/3/3 250/3/3 253/3/3
f 257/2/3 256/2/3 255/2/3
f 258/2/3 256/2/3 257/2/3
f 261/2/3 260/2/3 259/2/3
f 262/2/3 260/2/3 261/2/3
f 263/4/3 252/4/3 251/4/3
f 264/4/3 252/4/3 263/4/3
f 267/3/3 264/3/3 263/3/3
f 267/3/3 266/3/3 265/3/3
f 267/3/3 265/3/3 264/3/3
f 268/3/3 266/3/3 267/3/3
f 271/4/3 270/4/3 269/4/3
f 272/4/3 270/4/3 271/4/3
f 275/3/3 274/3/3 273/3/3
f 276/3/3 274/3/3 275/3/3
f 279/3/3 278/3/3 277/3/3
f 280/3/3 278/3/3 279/3/3
f 283/4/3 282/4/3 281/4/3
f 284/4/3 282/4/3 283/4/3
f 288/4/3 286/4/3 285/4/3
f 289/4/3 286/4/3 288/4/3
f 290/4/3 288/4/3 287/4/3
f 291/4/3 288/4/3 290/4/3
f 294/4/3 293/4/3 292/4/3
f 295/4/3 293/4/3 294/4/3
f 297/4/3 296/4/3 295/4/3
f 298/4/3 296/4/3 297/4/3
f 301/2/3 300/2/3 299/2/3
f 302/2/3 300/2/3 301/2/3
f 305/2/3 304/2/3 303/2/3
f 306/2/3 304/2/3 305/2/3
f 309/3/3 308/3/3 307/3/3
f 310/3/3 308/3/3 309/3/3
f 311/1/3 310/1/3 309/1/3
f 312/1/3 310/1/3 311/1/3
f 313/3/3 312/3/3 311/3/3
f 314/3/3 312/3/3 313/3/3
f 317/2/3 316/2/3 315/2/3
f 318/2/3 316/2/3 317/2/3
f 321/2/3 320/2/3 319/2/3
f 322/2/3 320/2/3 321/2/3
f 325/1/3 324/1/3 323/1/3
f 326/1/3 324/1/3 325/1/3
f 329/2/3 328/2/3 327/2/3
f 330/2/3 328/2/3 329/2/3
f 333/2/3 332/2/3 331/2/3
f 334/2/3 332/2/3 333/2/3
f 337/2/3 336/2/3 335/2/3
f 338/2/3 336/2/3 337/2/3
f 341/2/3 340/2/3 339/2/3
f 342/2/3 340/2/3 341/2/3
f 345/3/3 344/3/3 343/3/3
f 346/3/3 344/3/3 345/3/3
f 349/3/3 348/3/3 347/3/3
f 350/3/3 348/3/3 349/3/3
f 353/3/3 352/3/3 351/3/3
f 354/3/3 352/3/3 353/3/3
f 357/2/3 356/2/3 355/2/3
f 358/2/3 356/2/3 357/2/3
f 361/2/3 360/2/3 359/2/3
f 362/2/3 360/2/3 361/2/3
f 365/3/3 364/3/3 363/3/3
f 366/3/3 364/3/3 365/3/3
f 367/3/4 368/3/4 369/3/4
f 369/3/4 368/3/4 370/3/4
f 371/2/4 372/2/4 373/2/4
f 373/2/4 372/2/4 374/2/4
f 375/2/4 376/2/4 377/2/4
f 377/2/4 376/2/4 378/2/4
f 379/3/4 380/3/4 381/3/4
f 381/3/4 380/3/4 382/3/4
f 383/3/4 384/3/4 385/3/4
f 385/3/4 384/3/4 386/3/4
f 387/3/4 388/3/4 389/3/4
f 389/3/4 388/3/4 390/3/4
f 391/2/4 392/2/4 393/2/4
f 393/2/4 392/2/4 394/2/4
f 395/2/4 396/2/4 397/2/4
f 397/2/4 396/2/4 398/2/4
f 399/2/4 400/2/4 401/2/4
f 401/2/4 400/2/4 402/2/4
f 403/2/4 404/2/4 405/2/4
f 405/2/4 404/2/4 406/2/4
f 407/1/4 408/1/4 409/1/4
f 409/1/4 408/1/4 410/1/4
f 411/2/4 412/2/4 413/2/4
f 413/2/4 412/2/4 414/2/4
f 415/2/4 416/2/4 417/2/4
f 417/2/4 416/2/4 418/2/4
f 419/3/4 420/3/4 421/3/4
f 421/3/4 420/3/4 422/3/4
f 421/1/4 422/1/4 423/1/4
f 423/1/4 422/1/4 424/1/4
f 423/3/4 424/3/4 425/3/4
f 425/3/4 424/3/4 426/3/4
f 427/2/4 428/2/4 429/2/4
f 429/2/4 428/2/4 430/2/4
f 431/2/4 432/2/4 433/2/4
f 433/2/4 432/2/4 434/2/4
f 435/4/4 436/4/4 438/4/4
f 438/4/4 436/4/4 439/4/4
f 437/4/4 438/4/4 440/4/4
f 440/4/4 438/4/4 441/4/4
f 442/4/4 443/4/4 444/4/4
f 444/4/4 443/4/4 445/4/4
f 445/4/4 446/4/4 447/4/4
f 447/4/4 446/4/4 448/4/4
f 449/4/4 450/4/4 451/4/4
f 451/4/4 450/4/4 452/4/4
f 453/3/4 454/3/4 455/3/4
f 455/3/4 454/3/4 456/3/4
f 457/3/4 458/3/4 459/3/4
f 459/3/4 458/3/4 460/3/4
f 461/4/4 462/4/4 463/4/4
f 463/4/4 462/4/4 464/4/4
f 465/3/4 466/3/4 467/3/4
f 467/3/4 466/3/4 468/3/4
f 468/3/4 466/3/4 469/3/4
f 469/3/4 466/3/4 470/3/4
f 471/2/4 472/2/4 473/2/4
f 473/2/4 472/2/4 474/2/4
f 475/2/4 476/2/4 477/2/4
f 477/2/4 476/2/4 478/2/4
f 467/4/4 468/4/4 479/4/4
f 479/4/4 468/4/4 480/4/4
f 479/3/4 480/3/4 483/3/4
f 481/3/4 482/3/4 483/3/4
f 480/3/4 481/3/4 483/3/4
f 483/3/4 482/3/4 484/3/4
f 485/4/4 486/4/4 487/4/4
f 487/4/4 486/4/4 488/4/4
f 493/3/5 490/3/5 489/3/5
f 494/4/5 491/4/5 490/4/5
f 494/3/5 490/3/5 493/3/5
f 495/3/5 492/3/5 491/3/5
f 495/4/5 491/4/5 494/4/5
f 496/3/5 492/3/5 495/3/5
f 498/4/5 494/4/5 493/4/5
f 498/4/5 495/4/5 494/4/5
f 498/4/5 496/4/5 495/4/5
f 499/4/5 496/4/5 498/4/5
f 501/4/5 499/4/5 498/4/5
f 501/4/5 500/4/5 499/4/5
f 501/4/5 498/4/5 497/4/5
f 502/4/5 500/4/5 501/4/5
f 503/4/5 500/4/5 502/4/5
f 504/4/5 500/4/5 503/4/5
f 505/4/5 503/4/5 502/4/5
f 506/4/5 503/4/5 505/4/5
f 507/4/5 503/4/5 506/4/5
f 508/4/5 503/4/5 507/4/5
f 509/3/5 506/3/5 505/3/5
f 510/4/5 507/4/5 506/4/5
f 510/3/5 506/3/5 509/3/5
f 511/3/5 508/3/5 507/3/5
f 511/4/5 507/4/5 510/4/5
f 512/3/5 508/3/5 511/3/5
f 515/4/5 514/4/5 513/4/5
f 516/4/5 514/4/5 515/4/5
f 522/4/5 518/4/5 517/4/5
f 523/4/5 518/4/5 522/4/5
f 524/4/5 520/4/5 519/4/5
f 525/4/5 520/4/5 524/4/5
f 527/4/5 522/4/5 521/4/5
f 528/4/5 522/4/5 527/4/5
f 531/4/5 526/4/5 525/4/5
f 532/4/5 526/4/5 531/4/5
f 533/4/5 529/4/5 528/4/5
f 534/4/5 529/4/5 533/4/5
f 535/4/5 531/4/5 530/4/5
f 536/4/5 531/4/5 535/4/5
f 539/4/5 538/4/5 537/4/5
f 540/4/5 538/4/5 539/4/5
f 541/4/6 542/4/6 543/4/6
f 543/4/6 542/4/6 544/4/6
f 544/4/6 542/4/6 545/4/6
f 545/4/6 542/4/6 546/4/6
f 546/4/6 542/4/6 547/4/6
f 547/4/6 542/4/6 548/4/6
f 543/4/6 544/4/6 551/4/6
f 551/4/6 544/4/6 552/4/6
f 545/4/6 546/4/6 553/4/6
f 553/4/6 546/4/6 554/4/6
f 547/4/6 548/4/6 555/4/6
f 555/4/6 548/4/6 556/4/6
f 549/4/6 550/4/6 560/4/6
f 550/4/6 551/4/6 560/4/6
f 557/4/6 558/4/6 561/4/6
f 556/4/6 557/4/6 561/4/6
f 559/4/6 560/4/6 563/4/6
f 560/4/6 551/4/6 564/4/6
f 563/4/6 560/4/6 564/4/6
f 564/4/6 551/4/6 565/4/6
f 565/4/6 551/4/6 566/4/6
f 554/4/6 555/4/6 567/4/6
f 553/4/6 554/4/6 567/4/6
f 552/4/6 553/4/6 567/4/6
f 567/4/6 555/4/6 568/4/6
f 568/4/6 555/4/6 569/4/6
f 569/4/6 555/4/6 570/4/6
f 561/4/6 562/4/6 571/4/6
f 556/4/6 561/4/6 571/4/6
f 571/4/6 562/4/6 572/4/6
f 572/4/6 562/4/6 573/4/6
f 573/4/6 562/4/6 574/4/6
f 564/4/6 565/4/6 576/4/6
f 576/4/6 565/4/6 577/4/6
f 566/4/6 567/4/6 578/4/6
f 578/4/6 567/4/6 579/4/6
f 570/4/6 571/4/6 580/4/6
f 580/4/6 571/4/6 581/4/6
f 572/4/6 573/4/6 582/4/6
f 582/4/6 573/4/6 583/4/6
f 576/4/6 577/4/6 585/4/6
f 578/4/6 579/4/6 585/4/6
f 575/4/6 576/4/6 585/4/6
f 577/4/6 578/4/6 585/4/6
f 585/4/6 579/4/6 586/4/6
f 586/4/6 579/4/6 587/4/6
f 587/4/6 579/4/6 588/4/6
f 588/4/6 579/4/6 589/4/6
f 580/4/6 581/4/6 590/4/6
f 583/4/6 584/4/6 590/4/6
f 582/4/6 583/4/6 590/4/6
f 581/4/6 582/4/6 590/4/6
f 590/4/6 584/4/6 591/4/6
f 591/4/6 584/4/6 592/4/6
f 592/4/6 584/4/6 593/4/6
f 593/4/6 584/4/6 594/4/6
f 586/4/6 587/4/6 596/4/6
f 596/4/6 587/4/6 597/4/6
f 588/4/6 589/4/6 598/4/6
f 598/4/6 589/4/6 599/4/6
f 590/4/6 591/4/6 602/4/6
f 602/4/6 591/4/6 603/4/6
f 592/4/6 593/4/6 604/4/6
f 604/4/6 593/4/6 605/4/6
f 596/4/6 597/4/6 607/4/6
f 595/4/6 596/4/6 607/4/6
f 597/4/6 598/4/6 607/4/6
f 607/4/6 598/4/6 608/4/6
f 605/4/6 606/4/6 609/4/6
f 604/4/6 605/4/6 609/4/6
f 603/4/6 604/4/6 609/4/6
f 609/4/6 606/4/6 610/4/6
f 608/4/6 598/4/6 611/4/6
f 611/4/6 598/4/6 612/4/6
f 612/4/6 598/4/6 613/4/6
f 600/4/6 601/4/6 614/4/6
f 601/4/6 602/4/6 614/4/6
f 599/4/6 600/4/6 614/4/6
f 614/4/6 602/4/6 615/4/6
f 615/4/6 602/4/6 616/4/6
f 616/4/6 602/4/6 617/4/6
f 603/4/6 609/4/6 618/4/6
f 618/4/6 609/4/6 619/4/6
f 619/4/6 609/4/6 620/4/6
f 613/4/6 614/4/6 621/4/6
f 621/4/6 614/4/6 622/4/6
f 615/4/6 616/4/6 623/4/6
f 623/4/6 616/4/6 624/4/6
f 617/4/6 618/4/6 625/4/6
f 625/4/6 618/4/6 626/4/6
f 623/4/6 624/4/6 627/4/6
f 621/4/6 622/4/6 627/4/6
f 625/4/6 626/4/6 627/4/6
f 624/4/6 625/4/6 627/4/6
f 622/4/6 623/4/6 627/4/6
f 627/4/6 626/4/6 628/4/6
f 629/3/6 630/3/6 637/3/6
f 637/3/6 630/3/6 638/3/6
f 631/2/6 632/2/6 639/2/6
f 639/2/6 632/2/6 640/2/6
f 633/2/6 634/2/6 641/2/6
f 641/2/6 634/2/6 642/2/6
f 635/3/6 636/3/6 643/3/6
f 643/3/6 636/3/6 644/3/6
f 638/3/6 639/3/6 648/3/6
f 648/3/6 639/3/6 649/3/6
f 642/3/6 643/3/6 652/3/6
f 652/3/6 643/3/6 653/3/6
f 645/2/6 646/2/6 657/2/6
f 657/2/6 646/2/6 658/2/6
f 647/2/6 648/2/6 659/2/6
f 659/2/6 648/2/6 660/2/6
f 649/3/6 650/3/6 661/3/6
f 650/1/6 651/1/6 662/1/6
f 661/3/6 650/3/6 662/3/6
f 651/3/6 652/3/6 663/3/6
f 662/1/6 651/1/6 663/1/6
f 663/3/6 652/3/6 664/3/6
f 653/2/6 654/2/6 665/2/6
f 665/2/6 654/2/6 666/2/6
f 655/2/6 656/2/6 667/2/6
f 667/2/6 656/2/6 668/2/6
f 661/1/6 662/1/6 673/1/6
f 673/1/6 662/1/6 674/1/6
f 663/1/6 664/1/6 675/1/6
f 675/1/6 664/1/6 676/1/6
f 669/2/6 670/2/6 681/2/6
f 681/2/6 670/2/6 682/2/6
f 671/2/6 672/2/6 683/2/6
f 683/2/6 672/2/6 684/2/6
f 673/3/6 674/3/6 685/3/6
f 674/1/6 675/1/6 686/1/6
f 685/3/6 674/3/6 686/3/6
f 675/3/6 676/3/6 687/3/6
f 686/1/6 675/1/6 687/1/6
f 687/3/6 676/3/6 688/3/6
f 677/2/6 678/2/6 689/2/6
f 689/2/6 678/2/6 690/2/6
f 679/2/6 680/2/6 691/2/6
f 691/2/6 680/2/6 692/2/6
f 684/3/6 685/3/6 694/3/6
f 694/3/6 685/3/6 695/3/6
f 688/3/6 689/3/6 698/3/6
f 698/3/6 689/3/6 699/3/6
f 693/3/6 694/3/6 701/3/6
f 701/3/6 694/3/6 702/3/6
f 695/2/6 696/2/6 703/2/6
f 703/2/6 696/2/6 704/2/6
f 697/2/6 698/2/6 705/2/6
f 705/2/6 698/2/6 706/2/6
f 699/3/6 700/3/6 707/3/6
f 707/3/6 700/3/6 708/3/6
f 709/1/6 710/1/6 711/1/6
f 711/1/6 710/1/6 712/1/6
