# MagicaVoxel @ Ephtracy

# group
o 

# material
mtllib Golem.mtl
usemtl palette

# normals
vn -1 0 0
vn 1 0 0
vn 0 0 1
vn 0 0 -1
vn 0 -1 0
vn 0 1 0

# texcoords
vt 0.974609 0.5
vt 0.982422 0.5
vt 0.990234 0.5

# verts
v -0.9 0.8 0.5
v -0.9 0.8 0.4
v -0.9 0.8 0.3
v -0.9 0.9 0.5
v -0.9 0.9 0.4
v -0.9 1.1 0.5
v -0.9 1.1 0.4
v -0.9 1.2 0.5
v -0.9 1.2 0.4
v -0.9 1.4 0.5
v -0.9 1.4 0.4
v -0.9 1.5 0.5
v -0.9 1.5 0.4
v -0.9 1.7 0.4
v -0.9 1.7 0.3
v -0.8 0.5 0.4
v -0.8 0.5 0.3
v -0.8 0.7 0.5
v -0.8 0.7 0.4
v -0.8 0.8 0.5
v -0.8 0.8 0.4
v -0.8 0.8 0.3
v -0.8 1 0.5
v -0.8 1 0.4
v -0.8 1.1 0.5
v -0.8 1.1 0.4
v -0.8 1.3 0.5
v -0.8 1.3 0.4
v -0.8 1.4 0.5
v -0.8 1.4 0.4
v -0.7 0.3 0.4
v -0.7 0.3 0.3
v -0.7 0.5 0.4
v -0.7 0.5 0.3
v -0.7 1.2 0.3
v -0.7 1.2 -0.2
v -0.7 1.4 0.3
v -0.7 1.4 -0.2
v -0.6 0 0.3
v -0.6 0 -0.6
v -0.6 0.1 0.3
v -0.6 0.1 -0.6
v -0.6 1.2 -0.2
v -0.6 1.2 -0.3
v -0.6 1.4 -0.2
v -0.6 1.4 -0.3
v -0.6 1.6 -0.1
v -0.6 1.6 -0.2
v -0.6 1.8 -0.2
v -0.6 1.8 -0.4
v -0.6 1.9 -0.1
v -0.6 1.9 -0.4
v -0.5 0.1 0.2
v -0.5 0.1 0.1
v -0.5 0.1 0
v -0.5 0.1 -0.1
v -0.5 0.1 -0.2
v -0.5 0.1 -0.3
v -0.5 0.1 -0.4
v -0.5 0.1 -0.5
v -0.5 0.5 0.1
v -0.5 0.5 0
v -0.5 0.5 -0.1
v -0.5 0.5 -0.2
v -0.5 0.5 -0.3
v -0.5 0.5 -0.4
v -0.5 0.6 0.2
v -0.5 0.6 -0.5
v -0.5 0.9 -0.1
v -0.5 0.9 -0.3
v -0.5 1 0
v -0.5 1 -0.1
v -0.5 1 -0.3
v -0.5 1 -0.4
v -0.5 1.1 0
v -0.5 1.1 -0.1
v -0.5 1.1 -0.3
v -0.5 1.1 -0.4
v -0.5 1.3 -0.3
v -0.5 1.3 -0.4
v -0.5 1.4 -0.1
v -0.5 1.4 -0.3
v -0.5 1.4 -0.4
v -0.5 1.5 0.2
v -0.5 1.5 -0.1
v -0.5 1.5 -0.3
v -0.5 1.5 -0.6
v -0.5 1.6 0.4
v -0.5 1.6 0.3
v -0.5 1.6 -0.1
v -0.5 1.6 -0.2
v -0.5 1.7 0.4
v -0.5 1.7 0.3
v -0.5 1.8 0.3
v -0.5 1.8 0.2
v -0.5 1.8 -0.2
v -0.5 1.8 -0.4
v -0.5 1.9 -0.1
v -0.5 1.9 -0.4
v -0.5 2.1 0.3
v -0.5 2.1 0.2
v -0.5 2.2 0.2
v -0.5 2.2 -0.6
v -0.4 0.1 0.1
v -0.4 0.1 0
v -0.4 0.1 -0.1
v -0.4 0.1 -0.2
v -0.4 0.1 -0.3
v -0.4 0.1 -0.4
v -0.4 0.5 0.1
v -0.4 0.5 0
v -0.4 0.5 -0.1
v -0.4 0.5 -0.2
v -0.4 0.5 -0.3
v -0.4 0.5 -0.4
v -0.4 0.8 0.5
v -0.4 0.8 0.4
v -0.4 0.9 0.5
v -0.4 0.9 0.4
v -0.4 0.9 0
v -0.4 0.9 -0.1
v -0.4 0.9 -0.3
v -0.4 0.9 -0.4
v -0.4 1 0.1
v -0.4 1 0
v -0.4 1 -0.1
v -0.4 1 -0.3
v -0.4 1 -0.4
v -0.4 1 -0.5
v -0.4 1.1 0.5
v -0.4 1.1 0.4
v -0.4 1.1 0.1
v -0.4 1.1 0
v -0.4 1.1 -0.1
v -0.4 1.1 -0.3
v -0.4 1.1 -0.4
v -0.4 1.1 -0.5
v -0.4 1.2 0.5
v -0.4 1.2 0.4
v -0.4 1.2 -0.1
v -0.4 1.2 -0.3
v -0.4 1.3 0.1
v -0.4 1.3 0
v -0.4 1.3 -0.1
v -0.4 1.3 -0.3
v -0.4 1.3 -0.4
v -0.4 1.3 -0.5
v -0.4 1.4 0.5
v -0.4 1.4 0.4
v -0.4 1.4 0.1
v -0.4 1.4 0
v -0.4 1.4 -0.1
v -0.4 1.4 -0.3
v -0.4 1.4 -0.4
v -0.4 1.4 -0.5
v -0.4 1.5 0.5
v -0.4 1.5 0.4
v -0.4 1.5 0
v -0.4 1.5 -0.1
v -0.4 1.5 -0.3
v -0.4 1.5 -0.4
v -0.3 0.1 0.2
v -0.3 0.1 0.1
v -0.3 0.1 -0.4
v -0.3 0.1 -0.5
v -0.3 0.5 0.2
v -0.3 0.5 0.1
v -0.3 0.5 -0.4
v -0.3 0.5 -0.5
v -0.3 0.6 0
v -0.3 0.6 -0.1
v -0.3 0.6 -0.3
v -0.3 0.7 0
v -0.3 0.7 -0.1
v -0.3 0.9 0.1
v -0.3 0.9 0
v -0.3 0.9 -0.1
v -0.3 0.9 -0.3
v -0.3 0.9 -0.4
v -0.3 0.9 -0.5
v -0.3 1 0.1
v -0.3 1 0
v -0.3 1 -0.4
v -0.3 1 -0.5
v -0.3 1.2 0.1
v -0.3 1.2 0
v -0.3 1.2 -0.4
v -0.3 1.2 -0.5
v -0.3 1.3 0.1
v -0.3 1.3 0
v -0.3 1.3 -0.4
v -0.3 1.3 -0.5
v -0.2 1.5 0.3
v -0.2 1.5 0.2
v -0.2 1.6 -0.3
v -0.2 1.6 -0.4
v -0.2 1.7 -0.3
v -0.2 1.7 -0.4
v -0.2 1.8 0.3
v -0.2 1.8 0.2
v -0.1 0.1 0.2
v -0.1 0.1 0.1
v -0.1 0.1 -0.4
v -0.1 0.1 -0.5
v -0.1 0.5 0.2
v -0.1 0.5 0.1
v -0.1 0.5 -0.4
v -0.1 0.5 -0.5
v -0.1 1.5 -0.6
v -0.1 1.5 -0.7
v -0.1 2.2 0.2
v -0.1 2.2 -0.6
v -0.1 2.3 -0.2
v -0.1 2.3 -0.7
v -0.1 2.4 0.1
v -0.1 2.4 -0.2
v -0.1 2.5 0.2
v -0.1 2.5 0.1
v 0 0.6 0
v 0 0.6 -0.1
v 0 0.6 -0.3
v 0 0.7 0
v 0 0.7 -0.1
v 0 0.9 -0.1
v 0 0.9 -0.3
v 0 1.5 0.3
v 0 1.5 0.2
v 0 1.5 0.1
v 0 1.7 0
v 0 1.7 -0.1
v 0 1.7 -0.2
v 0 1.7 -0.3
v 0 1.8 0
v 0 1.8 -0.1
v 0 1.8 -0.2
v 0 1.8 -0.3
v 0 1.9 0.3
v 0 1.9 0.2
v 0 1.9 0.1
v 0.1 0.1 0.2
v 0.1 0.1 0.1
v 0.1 0.1 -0.4
v 0.1 0.1 -0.5
v 0.1 0.5 0.2
v 0.1 0.5 0.1
v 0.1 0.5 -0.4
v 0.1 0.5 -0.5
v 0.1 1.7 -0.1
v 0.1 1.7 -0.2
v 0.1 1.8 -0.1
v 0.1 1.8 -0.2
v 0.2 1 0.1
v 0.2 1 0
v 0.2 1 -0.4
v 0.2 1 -0.5
v 0.2 1.1 0.1
v 0.2 1.1 0
v 0.2 1.1 -0.2
v 0.2 1.1 -0.3
v 0.2 1.1 -0.4
v 0.2 1.1 -0.5
v 0.2 1.2 -0.2
v 0.2 1.2 -0.3
v 0.2 1.3 0.1
v 0.2 1.3 0
v 0.2 1.3 -0.4
v 0.2 1.3 -0.5
v 0.2 1.4 0.1
v 0.2 1.4 0
v 0.2 1.4 -0.4
v 0.2 1.4 -0.5
v 0.3 0.1 0.2
v 0.3 0.1 0.1
v 0.3 0.1 -0.4
v 0.3 0.1 -0.5
v 0.3 0.5 0.2
v 0.3 0.5 0.1
v 0.3 0.5 -0.4
v 0.3 0.5 -0.5
v 0.3 1.2 -0.1
v 0.3 1.2 -0.3
v 0.3 1.3 -0.1
v 0.3 1.3 -0.3
v 0.3 1.7 0.4
v 0.3 1.7 0.3
v 0.3 1.8 0.4
v 0.3 1.8 0.3
v 0.3 1.9 0.3
v 0.3 1.9 0.2
v 0.3 1.9 0.1
v 0.3 2 0.3
v 0.3 2 0.2
v 0.3 2 0.1
v 0.4 0.3 0.4
v 0.4 0.3 0.3
v 0.4 1.2 0.3
v 0.4 1.2 -0.1
v 0.4 1.3 0.1
v 0.4 1.3 -0.1
v 0.4 1.4 0.3
v 0.4 1.4 0.1
v 0.4 1.7 0.4
v 0.4 1.7 0.3
v 0.4 1.8 0.4
v 0.4 1.8 0.3
v 0.4 2.1 0.4
v 0.4 2.1 0.3
v -0.8 0.8 0.5
v -0.8 0.8 0.4
v -0.8 0.9 0.5
v -0.8 0.9 0.4
v -0.8 1.1 0.5
v -0.8 1.1 0.4
v -0.8 1.2 0.5
v -0.8 1.2 0.4
v -0.8 1.4 0.5
v -0.8 1.4 0.4
v -0.8 1.5 0.5
v -0.8 1.5 0.4
v -0.7 1.6 0.4
v -0.7 1.6 0.3
v -0.7 1.7 0.4
v -0.7 1.7 0.3
v -0.5 0.3 0.4
v -0.5 0.3 0.3
v -0.5 0.5 0.4
v -0.5 0.5 0.3
v -0.5 1.2 0.3
v -0.5 1.2 -0.1
v -0.5 1.3 0
v -0.5 1.3 -0.1
v -0.5 1.4 0.3
v -0.5 1.4 0
v -0.4 0.1 0.2
v -0.4 0.1 0.1
v -0.4 0.1 -0.4
v -0.4 0.1 -0.5
v -0.4 0.5 0.4
v -0.4 0.5 0.3
v -0.4 0.5 0.2
v -0.4 0.5 0.1
v -0.4 0.5 -0.4
v -0.4 0.5 -0.5
v -0.4 0.7 0.5
v -0.4 0.7 0.4
v -0.4 0.8 0.5
v -0.4 0.8 0.4
v -0.4 0.8 0.3
v -0.4 1 0.5
v -0.4 1 0.4
v -0.4 1.1 0.5
v -0.4 1.1 0.4
v -0.4 1.3 0.5
v -0.4 1.3 0.4
v -0.4 1.4 0.5
v -0.4 1.4 0.4
v -0.4 1.9 0.3
v -0.4 1.9 0.2
v -0.4 1.9 0.1
v -0.4 2 0.3
v -0.4 2 0.2
v -0.4 2 0.1
v -0.3 0.8 0.5
v -0.3 0.8 0.4
v -0.3 0.8 0.3
v -0.3 0.9 0.5
v -0.3 0.9 0.4
v -0.3 1 0.1
v -0.3 1 0
v -0.3 1 -0.4
v -0.3 1 -0.5
v -0.3 1.1 0.5
v -0.3 1.1 0.4
v -0.3 1.1 0.1
v -0.3 1.1 0
v -0.3 1.1 -0.4
v -0.3 1.1 -0.5
v -0.3 1.2 0.5
v -0.3 1.2 0.4
v -0.3 1.3 0.1
v -0.3 1.3 0
v -0.3 1.3 -0.4
v -0.3 1.3 -0.5
v -0.3 1.4 0.5
v -0.3 1.4 0.4
v -0.3 1.4 0.1
v -0.3 1.4 0
v -0.3 1.4 -0.4
v -0.3 1.4 -0.5
v -0.3 1.5 0.5
v -0.3 1.5 0.4
v -0.3 1.6 -0.3
v -0.3 1.6 -0.4
v -0.3 1.7 0.4
v -0.3 1.7 0.3
v -0.3 1.7 -0.3
v -0.3 1.7 -0.4
v -0.2 0.1 0.2
v -0.2 0.1 0.1
v -0.2 0.1 -0.4
v -0.2 0.1 -0.5
v -0.2 0.5 0.2
v -0.2 0.5 0.1
v -0.2 0.5 -0.4
v -0.2 0.5 -0.5
v -0.2 1.7 -0.2
v -0.2 1.7 -0.3
v -0.2 1.8 -0.2
v -0.2 1.8 -0.3
v -0.1 0.6 0
v -0.1 0.6 -0.1
v -0.1 0.6 -0.3
v -0.1 0.7 0
v -0.1 0.7 -0.1
v -0.1 0.9 -0.1
v -0.1 0.9 -0.3
v -0.1 1.5 0.3
v -0.1 1.5 0.2
v -0.1 1.5 0.1
v -0.1 1.7 0
v -0.1 1.7 -0.2
v -0.1 1.8 0
v -0.1 1.8 -0.2
v -0.1 1.9 0.3
v -0.1 1.9 0.2
v -0.1 1.9 0.1
v 0 0.1 0.2
v 0 0.1 0.1
v 0 0.1 -0.4
v 0 0.1 -0.5
v 0 0.5 0.2
v 0 0.5 0.1
v 0 0.5 -0.4
v 0 0.5 -0.5
v 0 1.5 -0.6
v 0 1.5 -0.7
v 0 2.2 0.2
v 0 2.2 -0.6
v 0 2.3 -0.2
v 0 2.3 -0.7
v 0 2.4 0.1
v 0 2.4 -0.2
v 0 2.5 0.2
v 0 2.5 0.1
v 0.1 1.1 -0.2
v 0.1 1.1 -0.3
v 0.1 1.2 -0.2
v 0.1 1.2 -0.3
v 0.1 1.5 0.3
v 0.1 1.5 0.2
v 0.1 1.8 0.3
v 0.1 1.8 0.2
v 0.2 0.1 0.2
v 0.2 0.1 0.1
v 0.2 0.1 -0.4
v 0.2 0.1 -0.5
v 0.2 0.5 0.2
v 0.2 0.5 0.1
v 0.2 0.5 -0.4
v 0.2 0.5 -0.5
v 0.2 0.6 0
v 0.2 0.6 -0.1
v 0.2 0.6 -0.3
v 0.2 0.7 0
v 0.2 0.7 -0.1
v 0.2 0.9 0.1
v 0.2 0.9 0
v 0.2 0.9 -0.1
v 0.2 0.9 -0.3
v 0.2 0.9 -0.4
v 0.2 0.9 -0.5
v 0.2 1 0.1
v 0.2 1 0
v 0.2 1 -0.4
v 0.2 1 -0.5
v 0.2 1.2 0.1
v 0.2 1.2 0
v 0.2 1.2 -0.1
v 0.2 1.2 -0.3
v 0.2 1.2 -0.4
v 0.2 1.2 -0.5
v 0.2 1.3 0.1
v 0.2 1.3 0
v 0.2 1.3 -0.1
v 0.2 1.3 -0.3
v 0.2 1.3 -0.4
v 0.2 1.3 -0.5
v 0.3 0.1 0.1
v 0.3 0.1 0
v 0.3 0.1 -0.1
v 0.3 0.1 -0.2
v 0.3 0.1 -0.3
v 0.3 0.1 -0.4
v 0.3 0.5 0.1
v 0.3 0.5 0
v 0.3 0.5 -0.1
v 0.3 0.5 -0.2
v 0.3 0.5 -0.3
v 0.3 0.5 -0.4
v 0.3 0.9 0
v 0.3 0.9 -0.1
v 0.3 0.9 -0.3
v 0.3 0.9 -0.4
v 0.3 1 0.1
v 0.3 1 0
v 0.3 1 -0.1
v 0.3 1 -0.3
v 0.3 1 -0.4
v 0.3 1 -0.5
v 0.3 1.1 0.1
v 0.3 1.1 0
v 0.3 1.1 -0.1
v 0.3 1.1 -0.3
v 0.3 1.1 -0.4
v 0.3 1.1 -0.5
v 0.3 1.2 -0.1
v 0.3 1.2 -0.3
v 0.3 1.3 0
v 0.3 1.3 -0.1
v 0.3 1.3 -0.3
v 0.3 1.3 -0.4
v 0.3 1.3 -0.5
v 0.3 1.4 0
v 0.3 1.4 -0.1
v 0.3 1.4 -0.3
v 0.3 1.4 -0.4
v 0.3 1.4 -0.5
v 0.3 1.5 0
v 0.3 1.5 -0.1
v 0.3 1.5 -0.3
v 0.3 1.5 -0.4
v 0.4 0.1 0.2
v 0.4 0.1 0.1
v 0.4 0.1 0
v 0.4 0.1 -0.1
v 0.4 0.1 -0.2
v 0.4 0.1 -0.3
v 0.4 0.1 -0.4
v 0.4 0.1 -0.5
v 0.4 0.5 0.1
v 0.4 0.5 0
v 0.4 0.5 -0.1
v 0.4 0.5 -0.2
v 0.4 0.5 -0.3
v 0.4 0.5 -0.4
v 0.4 0.6 0.2
v 0.4 0.6 -0.5
v 0.4 0.9 -0.1
v 0.4 0.9 -0.3
v 0.4 1 0
v 0.4 1 -0.1
v 0.4 1 -0.3
v 0.4 1 -0.4
v 0.4 1.1 0
v 0.4 1.1 -0.1
v 0.4 1.1 -0.3
v 0.4 1.1 -0.4
v 0.4 1.3 -0.3
v 0.4 1.3 -0.4
v 0.4 1.4 -0.1
v 0.4 1.4 -0.3
v 0.4 1.4 -0.4
v 0.4 1.5 0.2
v 0.4 1.5 -0.1
v 0.4 1.5 -0.3
v 0.4 1.5 -0.6
v 0.4 1.6 -0.1
v 0.4 1.6 -0.2
v 0.4 1.8 0.3
v 0.4 1.8 0.2
v 0.4 1.8 -0.2
v 0.4 1.8 -0.4
v 0.4 1.9 -0.1
v 0.4 1.9 -0.4
v 0.4 2.1 0.3
v 0.4 2.1 0.2
v 0.4 2.2 0.2
v 0.4 2.2 -0.6
v 0.5 0 0.3
v 0.5 0 -0.6
v 0.5 0.1 0.3
v 0.5 0.1 -0.6
v 0.5 1.2 -0.2
v 0.5 1.2 -0.3
v 0.5 1.4 -0.2
v 0.5 1.4 -0.3
v 0.5 1.6 -0.1
v 0.5 1.6 -0.2
v 0.5 1.8 -0.2
v 0.5 1.8 -0.4
v 0.5 1.9 -0.1
v 0.5 1.9 -0.4
v 0.6 0.3 0.4
v 0.6 0.3 0.3
v 0.6 1.2 0.3
v 0.6 1.2 -0.2
v 0.6 1.4 0.3
v 0.6 1.4 -0.2
v 0.6 1.7 0.4
v 0.6 1.7 0.3
v 0.6 1.8 0.4
v 0.6 1.8 0.3
v 0.6 2.1 0.4
v 0.6 2.1 0.3
v 0.7 1.7 0.4
v 0.7 1.7 0.3
v 0.7 1.8 0.4
v 0.7 1.8 0.3
v -0.9 0.8 0.5
v -0.9 0.9 0.5
v -0.9 1.1 0.5
v -0.9 1.2 0.5
v -0.9 1.4 0.5
v -0.9 1.5 0.5
v -0.8 0.7 0.5
v -0.8 0.8 0.5
v -0.8 0.9 0.5
v -0.8 1 0.5
v -0.8 1.1 0.5
v -0.8 1.2 0.5
v -0.8 1.3 0.5
v -0.8 1.4 0.5
v -0.8 1.5 0.5
v -0.4 0.7 0.5
v -0.4 0.8 0.5
v -0.4 0.9 0.5
v -0.4 1 0.5
v -0.4 1.1 0.5
v -0.4 1.2 0.5
v -0.4 1.3 0.5
v -0.4 1.4 0.5
v -0.4 1.5 0.5
v -0.3 0.8 0.5
v -0.3 0.9 0.5
v -0.3 1.1 0.5
v -0.3 1.2 0.5
v -0.3 1.4 0.5
v -0.3 1.5 0.5
v -0.9 0.9 0.4
v -0.9 1.1 0.4
v -0.9 1.2 0.4
v -0.9 1.4 0.4
v -0.9 1.5 0.4
v -0.9 1.7 0.4
v -0.8 0.5 0.4
v -0.8 0.7 0.4
v -0.8 0.8 0.4
v -0.8 0.9 0.4
v -0.8 1 0.4
v -0.8 1.1 0.4
v -0.8 1.2 0.4
v -0.8 1.3 0.4
v -0.8 1.4 0.4
v -0.8 1.5 0.4
v -0.7 0.3 0.4
v -0.7 0.5 0.4
v -0.7 1.6 0.4
v -0.7 1.7 0.4
v -0.5 0.3 0.4
v -0.5 0.5 0.4
v -0.5 1.6 0.4
v -0.5 1.7 0.4
v -0.4 0.5 0.4
v -0.4 0.7 0.4
v -0.4 0.8 0.4
v -0.4 0.9 0.4
v -0.4 1 0.4
v -0.4 1.1 0.4
v -0.4 1.2 0.4
v -0.4 1.3 0.4
v -0.4 1.4 0.4
v -0.4 1.5 0.4
v -0.3 0.9 0.4
v -0.3 1.1 0.4
v -0.3 1.2 0.4
v -0.3 1.4 0.4
v -0.3 1.5 0.4
v -0.3 1.7 0.4
v 0.3 1.7 0.4
v 0.3 1.8 0.4
v 0.4 0.3 0.4
v 0.4 1.7 0.4
v 0.4 1.8 0.4
v 0.4 2.1 0.4
v 0.6 0.3 0.4
v 0.6 1.7 0.4
v 0.6 1.8 0.4
v 0.6 2.1 0.4
v 0.7 1.7 0.4
v 0.7 1.8 0.4
v -0.6 0 0.3
v -0.6 0.1 0.3
v -0.5 1.8 0.3
v -0.5 2.1 0.3
v -0.4 1.9 0.3
v -0.4 2 0.3
v -0.2 1.5 0.3
v -0.2 1.8 0.3
v -0.1 1.5 0.3
v -0.1 1.9 0.3
v 0 1.5 0.3
v 0 1.9 0.3
v 0.1 1.5 0.3
v 0.1 1.8 0.3
v 0.3 1.8 0.3
v 0.3 1.9 0.3
v 0.3 2 0.3
v 0.4 1.8 0.3
v 0.4 2.1 0.3
v 0.5 0 0.3
v 0.5 0.1 0.3
v -0.5 0.1 0.2
v -0.5 0.6 0.2
v -0.5 1.5 0.2
v -0.5 1.8 0.2
v -0.5 2.1 0.2
v -0.5 2.2 0.2
v -0.4 0.1 0.2
v -0.4 0.5 0.2
v -0.3 0.1 0.2
v -0.3 0.5 0.2
v -0.2 0.1 0.2
v -0.2 0.5 0.2
v -0.2 1.5 0.2
v -0.2 1.8 0.2
v -0.1 0.1 0.2
v -0.1 0.5 0.2
v -0.1 2.2 0.2
v -0.1 2.5 0.2
v 0 0.1 0.2
v 0 0.5 0.2
v 0 2.2 0.2
v 0 2.5 0.2
v 0.1 0.1 0.2
v 0.1 0.5 0.2
v 0.1 1.5 0.2
v 0.1 1.8 0.2
v 0.2 0.1 0.2
v 0.2 0.5 0.2
v 0.3 0.1 0.2
v 0.3 0.5 0.2
v 0.4 0.1 0.2
v 0.4 0.6 0.2
v 0.4 1.5 0.2
v 0.4 1.8 0.2
v 0.4 2.1 0.2
v 0.4 2.2 0.2
v -0.4 0.1 0.1
v -0.4 0.5 0.1
v -0.4 1 0.1
v -0.4 1.1 0.1
v -0.4 1.3 0.1
v -0.4 1.4 0.1
v -0.4 1.9 0.1
v -0.4 2 0.1
v -0.3 0.1 0.1
v -0.3 0.5 0.1
v -0.3 0.9 0.1
v -0.3 1 0.1
v -0.3 1.1 0.1
v -0.3 1.2 0.1
v -0.3 1.3 0.1
v -0.3 1.4 0.1
v -0.2 0.1 0.1
v -0.2 0.5 0.1
v -0.1 0.1 0.1
v -0.1 0.5 0.1
v -0.1 1.5 0.1
v -0.1 1.9 0.1
v 0 0.1 0.1
v 0 0.5 0.1
v 0 1.5 0.1
v 0 1.9 0.1
v 0.1 0.1 0.1
v 0.1 0.5 0.1
v 0.2 0.1 0.1
v 0.2 0.5 0.1
v 0.2 0.9 0.1
v 0.2 1 0.1
v 0.2 1.1 0.1
v 0.2 1.2 0.1
v 0.2 1.3 0.1
v 0.2 1.4 0.1
v 0.3 0.1 0.1
v 0.3 0.5 0.1
v 0.3 1 0.1
v 0.3 1.1 0.1
v 0.3 1.9 0.1
v 0.3 2 0.1
v 0.4 1.3 0.1
v 0.4 1.4 0.1
v -0.5 0.1 0
v -0.5 0.5 0
v -0.5 1 0
v -0.5 1.1 0
v -0.5 1.3 0
v -0.5 1.4 0
v -0.4 0.1 0
v -0.4 0.5 0
v -0.4 0.9 0
v -0.4 1 0
v -0.4 1.1 0
v -0.4 1.3 0
v -0.4 1.4 0
v -0.4 1.5 0
v -0.3 0.6 0
v -0.3 0.7 0
v -0.3 0.9 0
v -0.3 1 0
v -0.3 1.1 0
v -0.3 1.2 0
v -0.3 1.3 0
v -0.3 1.4 0
v -0.1 0.6 0
v -0.1 0.7 0
v 0 0.6 0
v 0 0.7 0
v 0.2 0.6 0
v 0.2 0.7 0
v 0.2 0.9 0
v 0.2 1 0
v 0.2 1.1 0
v 0.2 1.2 0
v 0.2 1.3 0
v 0.2 1.4 0
v 0.3 0.1 0
v 0.3 0.5 0
v 0.3 0.9 0
v 0.3 1 0
v 0.3 1.1 0
v 0.3 1.3 0
v 0.3 1.4 0
v 0.3 1.5 0
v 0.4 0.1 0
v 0.4 0.5 0
v 0.4 1 0
v 0.4 1.1 0
v -0.6 1.6 -0.1
v -0.6 1.9 -0.1
v -0.5 0.9 -0.1
v -0.5 1 -0.1
v -0.5 1.2 -0.1
v -0.5 1.3 -0.1
v -0.5 1.4 -0.1
v -0.5 1.5 -0.1
v -0.5 1.6 -0.1
v -0.5 1.9 -0.1
v -0.4 0.9 -0.1
v -0.4 1 -0.1
v -0.4 1.2 -0.1
v -0.4 1.3 -0.1
v -0.4 1.4 -0.1
v -0.4 1.5 -0.1
v -0.3 0.7 -0.1
v -0.3 0.9 -0.1
v -0.1 0.7 -0.1
v -0.1 0.9 -0.1
v 0 0.7 -0.1
v 0 0.9 -0.1
v 0.2 0.7 -0.1
v 0.2 0.9 -0.1
v 0.3 0.9 -0.1
v 0.3 1 -0.1
v 0.3 1.2 -0.1
v 0.3 1.3 -0.1
v 0.3 1.4 -0.1
v 0.3 1.5 -0.1
v 0.4 0.9 -0.1
v 0.4 1 -0.1
v 0.4 1.2 -0.1
v 0.4 1.3 -0.1
v 0.4 1.4 -0.1
v 0.4 1.5 -0.1
v 0.4 1.6 -0.1
v 0.4 1.9 -0.1
v 0.5 1.6 -0.1
v 0.5 1.9 -0.1
v -0.5 0.1 -0.2
v -0.5 0.5 -0.2
v -0.4 0.1 -0.2
v -0.4 0.5 -0.2
v 0 1.7 -0.2
v 0 1.8 -0.2
v 0.1 1.7 -0.2
v 0.1 1.8 -0.2
v 0.3 0.1 -0.2
v 0.3 0.5 -0.2
v 0.4 0.1 -0.2
v 0.4 0.5 -0.2
v -0.5 1 -0.3
v -0.5 1.1 -0.3
v -0.4 1 -0.3
v -0.4 1.1 -0.3
v -0.2 1.7 -0.3
v -0.2 1.8 -0.3
v 0 1.7 -0.3
v 0 1.8 -0.3
v 0.1 1.1 -0.3
v 0.1 1.2 -0.3
v 0.2 1.1 -0.3
v 0.2 1.2 -0.3
v 0.2 1.3 -0.3
v 0.3 1 -0.3
v 0.3 1.1 -0.3
v 0.3 1.2 -0.3
v 0.3 1.3 -0.3
v 0.4 1 -0.3
v 0.4 1.1 -0.3
v -0.5 0.1 -0.4
v -0.5 0.5 -0.4
v -0.4 0.1 -0.4
v -0.4 0.5 -0.4
v -0.3 1.6 -0.4
v -0.3 1.7 -0.4
v -0.2 1.6 -0.4
v -0.2 1.7 -0.4
v 0.3 0.1 -0.4
v 0.3 0.5 -0.4
v 0.4 0.1 -0.4
v 0.4 0.5 -0.4
v -0.9 0.8 0.3
v -0.9 1.7 0.3
v -0.8 0.5 0.3
v -0.8 0.8 0.3
v -0.7 0.3 0.3
v -0.7 0.5 0.3
v -0.7 1.2 0.3
v -0.7 1.4 0.3
v -0.7 1.6 0.3
v -0.7 1.7 0.3
v -0.5 0.3 0.3
v -0.5 0.5 0.3
v -0.5 1.2 0.3
v -0.5 1.4 0.3
v -0.5 1.6 0.3
v -0.5 1.7 0.3
v -0.4 0.5 0.3
v -0.4 0.8 0.3
v -0.3 0.8 0.3
v -0.3 1.7 0.3
v 0.3 1.7 0.3
v 0.3 1.8 0.3
v 0.4 0.3 0.3
v 0.4 1.2 0.3
v 0.4 1.4 0.3
v 0.4 1.7 0.3
v 0.4 1.8 0.3
v 0.4 2.1 0.3
v 0.6 0.3 0.3
v 0.6 1.2 0.3
v 0.6 1.4 0.3
v 0.6 1.7 0.3
v 0.6 1.8 0.3
v 0.6 2.1 0.3
v 0.7 1.7 0.3
v 0.7 1.8 0.3
v -0.5 0.1 0.1
v -0.5 0.5 0.1
v -0.4 0.1 0.1
v -0.4 0.5 0.1
v -0.1 2.4 0.1
v -0.1 2.5 0.1
v 0 2.4 0.1
v 0 2.5 0.1
v 0.3 0.1 0.1
v 0.3 0.5 0.1
v 0.4 0.1 0.1
v 0.4 0.5 0.1
v -0.1 1.7 0
v -0.1 1.8 0
v 0 1.7 0
v 0 1.8 0
v -0.5 0.1 -0.1
v -0.5 0.5 -0.1
v -0.5 1 -0.1
v -0.5 1.1 -0.1
v -0.4 0.1 -0.1
v -0.4 0.5 -0.1
v -0.4 1 -0.1
v -0.4 1.1 -0.1
v 0 1.7 -0.1
v 0 1.8 -0.1
v 0.1 1.7 -0.1
v 0.1 1.8 -0.1
v 0.2 1.2 -0.1
v 0.2 1.3 -0.1
v 0.3 0.1 -0.1
v 0.3 0.5 -0.1
v 0.3 1 -0.1
v 0.3 1.1 -0.1
v 0.3 1.2 -0.1
v 0.3 1.3 -0.1
v 0.4 0.1 -0.1
v 0.4 0.5 -0.1
v 0.4 1 -0.1
v 0.4 1.1 -0.1
v -0.7 1.2 -0.2
v -0.7 1.4 -0.2
v -0.6 1.2 -0.2
v -0.6 1.4 -0.2
v -0.6 1.6 -0.2
v -0.6 1.8 -0.2
v -0.5 1.6 -0.2
v -0.5 1.8 -0.2
v -0.2 1.7 -0.2
v -0.2 1.8 -0.2
v -0.1 1.7 -0.2
v -0.1 1.8 -0.2
v -0.1 2.3 -0.2
v -0.1 2.4 -0.2
v 0 2.3 -0.2
v 0 2.4 -0.2
v 0.1 1.1 -0.2
v 0.1 1.2 -0.2
v 0.2 1.1 -0.2
v 0.2 1.2 -0.2
v 0.4 1.6 -0.2
v 0.4 1.8 -0.2
v 0.5 1.2 -0.2
v 0.5 1.4 -0.2
v 0.5 1.6 -0.2
v 0.5 1.8 -0.2
v 0.6 1.2 -0.2
v 0.6 1.4 -0.2
v -0.6 1.2 -0.3
v -0.6 1.4 -0.3
v -0.5 0.1 -0.3
v -0.5 0.5 -0.3
v -0.5 0.9 -0.3
v -0.5 1 -0.3
v -0.5 1.3 -0.3
v -0.5 1.4 -0.3
v -0.5 1.5 -0.3
v -0.4 0.1 -0.3
v -0.4 0.5 -0.3
v -0.4 0.9 -0.3
v -0.4 1 -0.3
v -0.4 1.2 -0.3
v -0.4 1.3 -0.3
v -0.4 1.4 -0.3
v -0.4 1.5 -0.3
v -0.3 0.6 -0.3
v -0.3 0.9 -0.3
v -0.3 1.6 -0.3
v -0.3 1.7 -0.3
v -0.2 1.6 -0.3
v -0.2 1.7 -0.3
v -0.1 0.6 -0.3
v -0.1 0.9 -0.3
v 0 0.6 -0.3
v 0 0.9 -0.3
v 0.2 0.6 -0.3
v 0.2 0.9 -0.3
v 0.3 0.1 -0.3
v 0.3 0.5 -0.3
v 0.3 0.9 -0.3
v 0.3 1 -0.3
v 0.3 1.2 -0.3
v 0.3 1.3 -0.3
v 0.3 1.4 -0.3
v 0.3 1.5 -0.3
v 0.4 0.1 -0.3
v 0.4 0.5 -0.3
v 0.4 0.9 -0.3
v 0.4 1 -0.3
v 0.4 1.3 -0.3
v 0.4 1.4 -0.3
v 0.4 1.5 -0.3
v 0.5 1.2 -0.3
v 0.5 1.4 -0.3
v -0.6 1.8 -0.4
v -0.6 1.9 -0.4
v -0.5 1 -0.4
v -0.5 1.1 -0.4
v -0.5 1.3 -0.4
v -0.5 1.4 -0.4
v -0.5 1.8 -0.4
v -0.5 1.9 -0.4
v -0.4 0.1 -0.4
v -0.4 0.5 -0.4
v -0.4 0.9 -0.4
v -0.4 1 -0.4
v -0.4 1.1 -0.4
v -0.4 1.3 -0.4
v -0.4 1.4 -0.4
v -0.4 1.5 -0.4
v -0.3 0.1 -0.4
v -0.3 0.5 -0.4
v -0.3 0.9 -0.4
v -0.3 1 -0.4
v -0.3 1.1 -0.4
v -0.3 1.2 -0.4
v -0.3 1.3 -0.4
v -0.3 1.4 -0.4
v -0.2 0.1 -0.4
v -0.2 0.5 -0.4
v -0.1 0.1 -0.4
v -0.1 0.5 -0.4
v 0 0.1 -0.4
v 0 0.5 -0.4
v 0.1 0.1 -0.4
v 0.1 0.5 -0.4
v 0.2 0.1 -0.4
v 0.2 0.5 -0.4
v 0.2 0.9 -0.4
v 0.2 1 -0.4
v 0.2 1.1 -0.4
v 0.2 1.2 -0.4
v 0.2 1.3 -0.4
v 0.2 1.4 -0.4
v 0.3 0.1 -0.4
v 0.3 0.5 -0.4
v 0.3 0.9 -0.4
v 0.3 1 -0.4
v 0.3 1.1 -0.4
v 0.3 1.3 -0.4
v 0.3 1.4 -0.4
v 0.3 1.5 -0.4
v 0.4 1 -0.4
v 0.4 1.1 -0.4
v 0.4 1.3 -0.4
v 0.4 1.4 -0.4
v 0.4 1.8 -0.4
v 0.4 1.9 -0.4
v 0.5 1.8 -0.4
v 0.5 1.9 -0.4
v -0.5 0.1 -0.5
v -0.5 0.6 -0.5
v -0.4 0.1 -0.5
v -0.4 0.5 -0.5
v -0.4 1 -0.5
v -0.4 1.1 -0.5
v -0.4 1.3 -0.5
v -0.4 1.4 -0.5
v -0.3 0.1 -0.5
v -0.3 0.5 -0.5
v -0.3 0.9 -0.5
v -0.3 1 -0.5
v -0.3 1.1 -0.5
v -0.3 1.2 -0.5
v -0.3 1.3 -0.5
v -0.3 1.4 -0.5
v -0.2 0.1 -0.5
v -0.2 0.5 -0.5
v -0.1 0.1 -0.5
v -0.1 0.5 -0.5
v 0 0.1 -0.5
v 0 0.5 -0.5
v 0.1 0.1 -0.5
v 0.1 0.5 -0.5
v 0.2 0.1 -0.5
v 0.2 0.5 -0.5
v 0.2 0.9 -0.5
v 0.2 1 -0.5
v 0.2 1.1 -0.5
v 0.2 1.2 -0.5
v 0.2 1.3 -0.5
v 0.2 1.4 -0.5
v 0.3 0.1 -0.5
v 0.3 0.5 -0.5
v 0.3 1 -0.5
v 0.3 1.1 -0.5
v 0.3 1.3 -0.5
v 0.3 1.4 -0.5
v 0.4 0.1 -0.5
v 0.4 0.6 -0.5
v -0.6 0 -0.6
v -0.6 0.1 -0.6
v -0.5 1.5 -0.6
v -0.5 2.2 -0.6
v -0.1 1.5 -0.6
v -0.1 2.2 -0.6
v 0 1.5 -0.6
v 0 2.2 -0.6
v 0.4 1.5 -0.6
v 0.4 2.2 -0.6
v 0.5 0 -0.6
v 0.5 0.1 -0.6
v -0.1 1.5 -0.7
v -0.1 2.3 -0.7
v 0 1.5 -0.7
v 0 2.3 -0.7
v -0.6 0 0.3
v 0.5 0 0.3
v -0.6 0 -0.6
v 0.5 0 -0.6
v -0.7 0.3 0.4
v -0.5 0.3 0.4
v 0.4 0.3 0.4
v 0.6 0.3 0.4
v -0.7 0.3 0.3
v -0.5 0.3 0.3
v 0.4 0.3 0.3
v 0.6 0.3 0.3
v -0.8 0.5 0.4
v -0.7 0.5 0.4
v -0.5 0.5 0.4
v -0.4 0.5 0.4
v -0.8 0.5 0.3
v -0.7 0.5 0.3
v -0.5 0.5 0.3
v -0.4 0.5 0.3
v -0.4 0.5 0.2
v -0.3 0.5 0.2
v -0.2 0.5 0.2
v -0.1 0.5 0.2
v 0 0.5 0.2
v 0.1 0.5 0.2
v 0.2 0.5 0.2
v 0.3 0.5 0.2
v -0.5 0.5 0.1
v -0.4 0.5 0.1
v -0.3 0.5 0.1
v -0.2 0.5 0.1
v -0.1 0.5 0.1
v 0 0.5 0.1
v 0.1 0.5 0.1
v 0.2 0.5 0.1
v 0.3 0.5 0.1
v 0.4 0.5 0.1
v -0.5 0.5 0
v -0.4 0.5 0
v 0.3 0.5 0
v 0.4 0.5 0
v -0.5 0.5 -0.1
v -0.4 0.5 -0.1
v 0.3 0.5 -0.1
v 0.4 0.5 -0.1
v -0.5 0.5 -0.2
v -0.4 0.5 -0.2
v 0.3 0.5 -0.2
v 0.4 0.5 -0.2
v -0.5 0.5 -0.3
v -0.4 0.5 -0.3
v 0.3 0.5 -0.3
v 0.4 0.5 -0.3
v -0.5 0.5 -0.4
v -0.4 0.5 -0.4
v -0.3 0.5 -0.4
v -0.2 0.5 -0.4
v -0.1 0.5 -0.4
v 0 0.5 -0.4
v 0.1 0.5 -0.4
v 0.2 0.5 -0.4
v 0.3 0.5 -0.4
v 0.4 0.5 -0.4
v -0.4 0.5 -0.5
v -0.3 0.5 -0.5
v -0.2 0.5 -0.5
v -0.1 0.5 -0.5
v 0 0.5 -0.5
v 0.1 0.5 -0.5
v 0.2 0.5 -0.5
v 0.3 0.5 -0.5
v -0.8 0.7 0.5
v -0.4 0.7 0.5
v -0.8 0.7 0.4
v -0.4 0.7 0.4
v -0.9 0.8 0.5
v -0.8 0.8 0.5
v -0.4 0.8 0.5
v -0.3 0.8 0.5
v -0.9 0.8 0.4
v -0.8 0.8 0.4
v -0.4 0.8 0.4
v -0.3 0.8 0.4
v -0.9 0.8 0.3
v -0.8 0.8 0.3
v -0.4 0.8 0.3
v -0.3 0.8 0.3
v -0.3 0.9 0.1
v 0.2 0.9 0.1
v -0.4 0.9 0
v -0.3 0.9 0
v 0.2 0.9 0
v 0.3 0.9 0
v -0.5 0.9 -0.1
v -0.4 0.9 -0.1
v -0.3 0.9 -0.1
v -0.1 0.9 -0.1
v 0 0.9 -0.1
v 0.2 0.9 -0.1
v 0.3 0.9 -0.1
v 0.4 0.9 -0.1
v -0.5 0.9 -0.3
v -0.4 0.9 -0.3
v -0.3 0.9 -0.3
v -0.1 0.9 -0.3
v 0 0.9 -0.3
v 0.2 0.9 -0.3
v 0.3 0.9 -0.3
v 0.4 0.9 -0.3
v -0.4 0.9 -0.4
v -0.3 0.9 -0.4
v 0.2 0.9 -0.4
v 0.3 0.9 -0.4
v -0.3 0.9 -0.5
v 0.2 0.9 -0.5
v -0.8 1 0.5
v -0.4 1 0.5
v -0.8 1 0.4
v -0.4 1 0.4
v -0.4 1 0.1
v -0.3 1 0.1
v 0.2 1 0.1
v 0.3 1 0.1
v -0.5 1 0
v -0.4 1 0
v -0.3 1 0
v 0.2 1 0
v 0.3 1 0
v 0.4 1 0
v -0.5 1 -0.1
v -0.4 1 -0.1
v 0.3 1 -0.1
v 0.4 1 -0.1
v -0.5 1 -0.3
v -0.4 1 -0.3
v 0.3 1 -0.3
v 0.4 1 -0.3
v -0.5 1 -0.4
v -0.4 1 -0.4
v -0.3 1 -0.4
v 0.2 1 -0.4
v 0.3 1 -0.4
v 0.4 1 -0.4
v -0.4 1 -0.5
v -0.3 1 -0.5
v 0.2 1 -0.5
v 0.3 1 -0.5
v -0.9 1.1 0.5
v -0.8 1.1 0.5
v -0.4 1.1 0.5
v -0.3 1.1 0.5
v -0.9 1.1 0.4
v -0.8 1.1 0.4
v -0.4 1.1 0.4
v -0.3 1.1 0.4
v -0.7 1.2 0.3
v -0.5 1.2 0.3
v 0.4 1.2 0.3
v 0.6 1.2 0.3
v -0.3 1.2 0.1
v 0.2 1.2 0.1
v -0.3 1.2 0
v 0.2 1.2 0
v -0.5 1.2 -0.1
v -0.4 1.2 -0.1
v 0.3 1.2 -0.1
v 0.4 1.2 -0.1
v -0.7 1.2 -0.2
v -0.6 1.2 -0.2
v 0.1 1.2 -0.2
v 0.2 1.2 -0.2
v 0.5 1.2 -0.2
v 0.6 1.2 -0.2
v -0.6 1.2 -0.3
v -0.4 1.2 -0.3
v 0.1 1.2 -0.3
v 0.2 1.2 -0.3
v 0.3 1.2 -0.3
v 0.5 1.2 -0.3
v -0.3 1.2 -0.4
v 0.2 1.2 -0.4
v -0.3 1.2 -0.5
v 0.2 1.2 -0.5
v -0.8 1.3 0.5
v -0.4 1.3 0.5
v -0.8 1.3 0.4
v -0.4 1.3 0.4
v -0.4 1.3 0.1
v -0.3 1.3 0.1
v 0.2 1.3 0.1
v 0.4 1.3 0.1
v -0.5 1.3 0
v -0.4 1.3 0
v -0.3 1.3 0
v 0.2 1.3 0
v 0.3 1.3 0
v -0.5 1.3 -0.1
v -0.4 1.3 -0.1
v 0.2 1.3 -0.1
v 0.3 1.3 -0.1
v 0.4 1.3 -0.1
v -0.5 1.3 -0.3
v -0.4 1.3 -0.3
v 0.2 1.3 -0.3
v 0.3 1.3 -0.3
v 0.4 1.3 -0.3
v -0.5 1.3 -0.4
v -0.4 1.3 -0.4
v -0.3 1.3 -0.4
v 0.2 1.3 -0.4
v 0.3 1.3 -0.4
v 0.4 1.3 -0.4
v -0.4 1.3 -0.5
v -0.3 1.3 -0.5
v 0.2 1.3 -0.5
v 0.3 1.3 -0.5
v -0.9 1.4 0.5
v -0.8 1.4 0.5
v -0.4 1.4 0.5
v -0.3 1.4 0.5
v -0.9 1.4 0.4
v -0.8 1.4 0.4
v -0.4 1.4 0.4
v -0.3 1.4 0.4
v -0.2 1.5 0.3
v -0.1 1.5 0.3
v 0 1.5 0.3
v 0.1 1.5 0.3
v -0.5 1.5 0.2
v -0.2 1.5 0.2
v -0.1 1.5 0.2
v 0 1.5 0.2
v 0.1 1.5 0.2
v 0.4 1.5 0.2
v -0.4 1.5 0.1
v -0.1 1.5 0.1
v 0 1.5 0.1
v 0.3 1.5 0.1
v -0.4 1.5 0
v 0.3 1.5 0
v -0.5 1.5 -0.1
v -0.4 1.5 -0.1
v 0.3 1.5 -0.1
v 0.4 1.5 -0.1
v -0.5 1.5 -0.3
v -0.4 1.5 -0.3
v 0.3 1.5 -0.3
v 0.4 1.5 -0.3
v -0.4 1.5 -0.4
v 0.3 1.5 -0.4
v -0.4 1.5 -0.5
v 0.3 1.5 -0.5
v -0.5 1.5 -0.6
v -0.1 1.5 -0.6
v 0 1.5 -0.6
v 0.4 1.5 -0.6
v -0.1 1.5 -0.7
v 0 1.5 -0.7
v -0.6 1.6 -0.1
v -0.5 1.6 -0.1
v 0.4 1.6 -0.1
v 0.5 1.6 -0.1
v -0.6 1.6 -0.2
v -0.5 1.6 -0.2
v 0.4 1.6 -0.2
v 0.5 1.6 -0.2
v 0.3 1.7 0.4
v 0.4 1.7 0.4
v 0.6 1.7 0.4
v 0.7 1.7 0.4
v 0.3 1.7 0.3
v 0.4 1.7 0.3
v 0.6 1.7 0.3
v 0.7 1.7 0.3
v -0.3 1.7 -0.3
v -0.2 1.7 -0.3
v -0.3 1.7 -0.4
v -0.2 1.7 -0.4
v -0.5 1.8 0.3
v -0.2 1.8 0.3
v 0.1 1.8 0.3
v 0.3 1.8 0.3
v 0.4 1.8 0.3
v -0.5 1.8 0.2
v -0.2 1.8 0.2
v 0.1 1.8 0.2
v 0.4 1.8 0.2
v -0.1 1.8 0
v 0 1.8 0
v 0 1.8 -0.1
v 0.1 1.8 -0.1
v -0.6 1.8 -0.2
v -0.5 1.8 -0.2
v -0.2 1.8 -0.2
v -0.1 1.8 -0.2
v 0 1.8 -0.2
v 0.1 1.8 -0.2
v 0.4 1.8 -0.2
v 0.5 1.8 -0.2
v -0.2 1.8 -0.3
v 0 1.8 -0.3
v -0.6 1.8 -0.4
v -0.5 1.8 -0.4
v 0.4 1.8 -0.4
v 0.5 1.8 -0.4
v -0.4 2 0.3
v 0.3 2 0.3
v -0.4 2 0.2
v 0.3 2 0.2
v -0.4 2 0.1
v 0.3 2 0.1
v -0.6 0.1 0.3
v 0.5 0.1 0.3
v -0.5 0.1 0.2
v -0.4 0.1 0.2
v -0.3 0.1 0.2
v -0.2 0.1 0.2
v -0.1 0.1 0.2
v 0 0.1 0.2
v 0.1 0.1 0.2
v 0.2 0.1 0.2
v 0.3 0.1 0.2
v 0.4 0.1 0.2
v -0.5 0.1 0.1
v -0.4 0.1 0.1
v -0.3 0.1 0.1
v -0.2 0.1 0.1
v -0.1 0.1 0.1
v 0 0.1 0.1
v 0.1 0.1 0.1
v 0.2 0.1 0.1
v 0.3 0.1 0.1
v 0.4 0.1 0.1
v -0.5 0.1 0
v -0.4 0.1 0
v 0.3 0.1 0
v 0.4 0.1 0
v -0.5 0.1 -0.1
v -0.4 0.1 -0.1
v 0.3 0.1 -0.1
v 0.4 0.1 -0.1
v -0.5 0.1 -0.2
v -0.4 0.1 -0.2
v 0.3 0.1 -0.2
v 0.4 0.1 -0.2
v -0.5 0.1 -0.3
v -0.4 0.1 -0.3
v 0.3 0.1 -0.3
v 0.4 0.1 -0.3
v -0.5 0.1 -0.4
v -0.4 0.1 -0.4
v -0.3 0.1 -0.4
v -0.2 0.1 -0.4
v -0.1 0.1 -0.4
v 0 0.1 -0.4
v 0.1 0.1 -0.4
v 0.2 0.1 -0.4
v 0.3 0.1 -0.4
v 0.4 0.1 -0.4
v -0.5 0.1 -0.5
v -0.4 0.1 -0.5
v -0.3 0.1 -0.5
v -0.2 0.1 -0.5
v -0.1 0.1 -0.5
v 0 0.1 -0.5
v 0.1 0.1 -0.5
v 0.2 0.1 -0.5
v 0.3 0.1 -0.5
v 0.4 0.1 -0.5
v -0.6 0.1 -0.6
v 0.5 0.1 -0.6
v -0.5 0.6 0.2
v 0.4 0.6 0.2
v -0.3 0.6 0
v -0.1 0.6 0
v 0 0.6 0
v 0.2 0.6 0
v -0.3 0.6 -0.1
v -0.1 0.6 -0.1
v 0 0.6 -0.1
v 0.2 0.6 -0.1
v -0.3 0.6 -0.3
v -0.1 0.6 -0.3
v 0 0.6 -0.3
v 0.2 0.6 -0.3
v -0.5 0.6 -0.5
v 0.4 0.6 -0.5
v -0.3 0.7 0
v -0.1 0.7 0
v 0 0.7 0
v 0.2 0.7 0
v -0.3 0.7 -0.1
v -0.1 0.7 -0.1
v 0 0.7 -0.1
v 0.2 0.7 -0.1
v -0.8 0.8 0.5
v -0.4 0.8 0.5
v -0.8 0.8 0.4
v -0.4 0.8 0.4
v -0.9 0.9 0.5
v -0.8 0.9 0.5
v -0.4 0.9 0.5
v -0.3 0.9 0.5
v -0.9 0.9 0.4
v -0.8 0.9 0.4
v -0.4 0.9 0.4
v -0.3 0.9 0.4
v -0.3 1 0.1
v 0.2 1 0.1
v -0.3 1 0
v 0.2 1 0
v -0.5 1 -0.1
v -0.4 1 -0.1
v 0.3 1 -0.1
v 0.4 1 -0.1
v -0.5 1 -0.3
v -0.4 1 -0.3
v 0.3 1 -0.3
v 0.4 1 -0.3
v -0.3 1 -0.4
v 0.2 1 -0.4
v -0.3 1 -0.5
v 0.2 1 -0.5
v -0.8 1.1 0.5
v -0.4 1.1 0.5
v -0.8 1.1 0.4
v -0.4 1.1 0.4
v -0.4 1.1 0.1
v -0.3 1.1 0.1
v 0.2 1.1 0.1
v 0.3 1.1 0.1
v -0.5 1.1 0
v -0.4 1.1 0
v -0.3 1.1 0
v 0.2 1.1 0
v 0.3 1.1 0
v 0.4 1.1 0
v -0.5 1.1 -0.1
v -0.4 1.1 -0.1
v 0.3 1.1 -0.1
v 0.4 1.1 -0.1
v 0.1 1.1 -0.2
v 0.2 1.1 -0.2
v -0.5 1.1 -0.3
v -0.4 1.1 -0.3
v 0.1 1.1 -0.3
v 0.2 1.1 -0.3
v 0.3 1.1 -0.3
v 0.4 1.1 -0.3
v -0.5 1.1 -0.4
v -0.4 1.1 -0.4
v -0.3 1.1 -0.4
v 0.2 1.1 -0.4
v 0.3 1.1 -0.4
v 0.4 1.1 -0.4
v -0.4 1.1 -0.5
v -0.3 1.1 -0.5
v 0.2 1.1 -0.5
v 0.3 1.1 -0.5
v -0.9 1.2 0.5
v -0.8 1.2 0.5
v -0.4 1.2 0.5
v -0.3 1.2 0.5
v -0.9 1.2 0.4
v -0.8 1.2 0.4
v -0.4 1.2 0.4
v -0.3 1.2 0.4
v 0.2 1.2 -0.1
v 0.3 1.2 -0.1
v 0.2 1.2 -0.3
v 0.3 1.2 -0.3
v -0.3 1.3 0.1
v 0.2 1.3 0.1
v -0.3 1.3 0
v 0.2 1.3 0
v -0.3 1.3 -0.4
v 0.2 1.3 -0.4
v -0.3 1.3 -0.5
v 0.2 1.3 -0.5
v -0.8 1.4 0.5
v -0.4 1.4 0.5
v -0.8 1.4 0.4
v -0.4 1.4 0.4
v -0.7 1.4 0.3
v -0.5 1.4 0.3
v 0.4 1.4 0.3
v 0.6 1.4 0.3
v -0.4 1.4 0.1
v -0.3 1.4 0.1
v 0.2 1.4 0.1
v 0.4 1.4 0.1
v -0.5 1.4 0
v -0.4 1.4 0
v -0.3 1.4 0
v 0.2 1.4 0
v 0.3 1.4 0
v -0.5 1.4 -0.1
v -0.4 1.4 -0.1
v 0.3 1.4 -0.1
v 0.4 1.4 -0.1
v -0.7 1.4 -0.2
v -0.6 1.4 -0.2
v 0.5 1.4 -0.2
v 0.6 1.4 -0.2
v -0.6 1.4 -0.3
v -0.5 1.4 -0.3
v -0.4 1.4 -0.3
v 0.3 1.4 -0.3
v 0.4 1.4 -0.3
v 0.5 1.4 -0.3
v -0.5 1.4 -0.4
v -0.4 1.4 -0.4
v -0.3 1.4 -0.4
v 0.2 1.4 -0.4
v 0.3 1.4 -0.4
v 0.4 1.4 -0.4
v -0.4 1.4 -0.5
v -0.3 1.4 -0.5
v 0.2 1.4 -0.5
v 0.3 1.4 -0.5
v -0.9 1.5 0.5
v -0.8 1.5 0.5
v -0.4 1.5 0.5
v -0.3 1.5 0.5
v -0.9 1.5 0.4
v -0.8 1.5 0.4
v -0.4 1.5 0.4
v -0.3 1.5 0.4
v -0.7 1.6 0.4
v -0.5 1.6 0.4
v -0.7 1.6 0.3
v -0.5 1.6 0.3
v -0.3 1.6 -0.3
v -0.2 1.6 -0.3
v -0.3 1.6 -0.4
v -0.2 1.6 -0.4
v -0.9 1.7 0.4
v -0.7 1.7 0.4
v -0.5 1.7 0.4
v -0.3 1.7 0.4
v -0.9 1.7 0.3
v -0.7 1.7 0.3
v -0.5 1.7 0.3
v -0.3 1.7 0.3
v -0.1 1.7 0
v 0 1.7 0
v 0 1.7 -0.1
v 0.1 1.7 -0.1
v -0.2 1.7 -0.2
v -0.1 1.7 -0.2
v 0 1.7 -0.2
v 0.1 1.7 -0.2
v -0.2 1.7 -0.3
v 0 1.7 -0.3
v 0.3 1.8 0.4
v 0.4 1.8 0.4
v 0.6 1.8 0.4
v 0.7 1.8 0.4
v 0.3 1.8 0.3
v 0.4 1.8 0.3
v 0.6 1.8 0.3
v 0.7 1.8 0.3
v -0.4 1.9 0.3
v -0.1 1.9 0.3
v 0 1.9 0.3
v 0.3 1.9 0.3
v -0.4 1.9 0.2
v -0.1 1.9 0.2
v 0 1.9 0.2
v 0.3 1.9 0.2
v -0.4 1.9 0.1
v -0.1 1.9 0.1
v 0 1.9 0.1
v 0.3 1.9 0.1
v -0.6 1.9 -0.1
v -0.5 1.9 -0.1
v 0.4 1.9 -0.1
v 0.5 1.9 -0.1
v -0.6 1.9 -0.4
v -0.5 1.9 -0.4
v 0.4 1.9 -0.4
v 0.5 1.9 -0.4
v 0.4 2.1 0.4
v 0.6 2.1 0.4
v -0.5 2.1 0.3
v 0.4 2.1 0.3
v 0.6 2.1 0.3
v -0.5 2.1 0.2
v 0.4 2.1 0.2
v -0.5 2.2 0.2
v -0.1 2.2 0.2
v 0 2.2 0.2
v 0.4 2.2 0.2
v -0.5 2.2 -0.6
v -0.1 2.2 -0.6
v 0 2.2 -0.6
v 0.4 2.2 -0.6
v -0.1 2.3 -0.2
v 0 2.3 -0.2
v -0.1 2.3 -0.7
v 0 2.3 -0.7
v -0.1 2.4 0.1
v 0 2.4 0.1
v -0.1 2.4 -0.2
v 0 2.4 -0.2
v -0.1 2.5 0.2
v 0 2.5 0.2
v -0.1 2.5 0.1
v 0 2.5 0.1

# faces
f 4/2/1 2/2/1 1/2/1
f 5/1/1 3/1/1 2/1/1
f 5/2/1 2/2/1 4/2/1
f 7/1/1 3/1/1 5/1/1
f 8/2/1 7/2/1 6/2/1
f 9/1/1 3/1/1 7/1/1
f 9/2/1 7/2/1 8/2/1
f 11/1/1 3/1/1 9/1/1
f 12/2/1 11/2/1 10/2/1
f 13/1/1 3/1/1 11/1/1
f 13/2/1 11/2/1 12/2/1
f 14/1/1 3/1/1 13/1/1
f 15/1/1 3/1/1 14/1/1
f 19/1/1 17/1/1 16/1/1
f 20/2/1 19/2/1 18/2/1
f 21/1/1 17/1/1 19/1/1
f 21/2/1 19/2/1 20/2/1
f 22/1/1 17/1/1 21/1/1
f 25/2/1 24/2/1 23/2/1
f 26/2/1 24/2/1 25/2/1
f 29/2/1 28/2/1 27/2/1
f 30/2/1 28/2/1 29/2/1
f 33/1/1 32/1/1 31/1/1
f 34/1/1 32/1/1 33/1/1
f 37/1/1 36/1/1 35/1/1
f 38/1/1 36/1/1 37/1/1
f 41/1/1 40/1/1 39/1/1
f 42/1/1 40/1/1 41/1/1
f 45/1/1 44/1/1 43/1/1
f 46/1/1 44/1/1 45/1/1
f 49/2/1 48/2/1 47/2/1
f 51/2/1 49/2/1 47/2/1
f 51/2/1 50/2/1 49/2/1
f 52/2/1 50/2/1 51/2/1
f 61/1/1 54/1/1 53/1/1
f 62/1/1 56/1/1 55/1/1
f 63/1/1 56/1/1 62/1/1
f 64/1/1 58/1/1 57/1/1
f 65/1/1 58/1/1 64/1/1
f 66/1/1 60/1/1 59/1/1
f 67/1/1 65/1/1 64/1/1
f 67/1/1 66/1/1 65/1/1
f 67/1/1 61/1/1 53/1/1
f 67/1/1 63/1/1 62/1/1
f 67/1/1 64/1/1 63/1/1
f 67/1/1 62/1/1 61/1/1
f 68/1/1 60/1/1 66/1/1
f 68/1/1 66/1/1 67/1/1
f 72/2/1 70/2/1 69/2/1
f 73/2/1 70/2/1 72/2/1
f 75/2/1 72/2/1 71/2/1
f 76/2/1 72/2/1 75/2/1
f 77/2/1 74/2/1 73/2/1
f 78/2/1 74/2/1 77/2/1
f 82/2/1 80/2/1 79/2/1
f 83/2/1 80/2/1 82/2/1
f 85/2/1 82/2/1 81/2/1
f 86/2/1 82/2/1 85/2/1
f 90/1/1 86/1/1 85/1/1
f 90/1/1 85/1/1 84/1/1
f 90/1/1 87/1/1 86/1/1
f 91/1/1 87/1/1 90/1/1
f 92/1/1 89/1/1 88/1/1
f 93/1/1 89/1/1 92/1/1
f 95/1/1 90/1/1 84/1/1
f 96/1/1 87/1/1 91/1/1
f 97/1/1 87/1/1 96/1/1
f 98/1/1 90/1/1 95/1/1
f 99/1/1 87/1/1 97/1/1
f 100/2/1 95/2/1 94/2/1
f 101/1/1 99/1/1 98/1/1
f 101/2/1 95/2/1 100/2/1
f 101/1/1 98/1/1 95/1/1
f 102/1/1 99/1/1 101/1/1
f 103/1/1 87/1/1 99/1/1
f 103/1/1 99/1/1 102/1/1
f 110/2/1 105/2/1 104/2/1
f 111/2/1 105/2/1 110/2/1
f 112/2/1 107/2/1 106/2/1
f 113/2/1 107/2/1 112/2/1
f 114/2/1 109/2/1 108/2/1
f 115/2/1 109/2/1 114/2/1
f 118/2/1 117/2/1 116/2/1
f 119/2/1 117/2/1 118/2/1
f 125/1/1 121/1/1 120/1/1
f 126/1/1 121/1/1 125/1/1
f 127/1/1 123/1/1 122/1/1
f 128/1/1 123/1/1 127/1/1
f 132/2/1 125/2/1 124/2/1
f 133/2/1 125/2/1 132/2/1
f 134/1/1 127/1/1 126/1/1
f 135/1/1 127/1/1 134/1/1
f 136/2/1 129/2/1 128/2/1
f 137/2/1 129/2/1 136/2/1
f 138/2/1 131/2/1 130/2/1
f 139/2/1 131/2/1 138/2/1
f 140/1/1 135/1/1 134/1/1
f 140/1/1 136/1/1 135/1/1
f 140/1/1 134/1/1 133/1/1
f 141/1/1 136/1/1 140/1/1
f 143/1/1 140/1/1 133/1/1
f 144/1/1 140/1/1 143/1/1
f 145/1/1 136/1/1 141/1/1
f 146/1/1 136/1/1 145/1/1
f 150/2/1 143/2/1 142/2/1
f 151/2/1 143/2/1 150/2/1
f 154/2/1 147/2/1 146/2/1
f 155/2/1 147/2/1 154/2/1
f 156/2/1 149/2/1 148/2/1
f 157/2/1 149/2/1 156/2/1
f 158/1/1 152/1/1 151/1/1
f 159/1/1 152/1/1 158/1/1
f 160/1/1 154/1/1 153/1/1
f 161/1/1 154/1/1 160/1/1
f 166/1/1 163/1/1 162/1/1
f 167/1/1 163/1/1 166/1/1
f 168/1/1 165/1/1 164/1/1
f 169/1/1 165/1/1 168/1/1
f 173/2/1 171/2/1 170/2/1
f 174/1/1 172/1/1 171/1/1
f 174/2/1 171/2/1 173/2/1
f 177/1/1 172/1/1 174/1/1
f 178/1/1 172/1/1 177/1/1
f 181/2/1 176/2/1 175/2/1
f 182/2/1 176/2/1 181/2/1
f 183/2/1 180/2/1 179/2/1
f 184/2/1 180/2/1 183/2/1
f 189/2/1 186/2/1 185/2/1
f 190/2/1 186/2/1 189/2/1
f 191/2/1 188/2/1 187/2/1
f 192/2/1 188/2/1 191/2/1
f 197/3/1 196/3/1 195/3/1
f 198/3/1 196/3/1 197/3/1
f 199/2/1 194/2/1 193/2/1
f 200/2/1 194/2/1 199/2/1
f 205/1/1 202/1/1 201/1/1
f 206/1/1 202/1/1 205/1/1
f 207/1/1 204/1/1 203/1/1
f 208/1/1 204/1/1 207/1/1
f 212/2/1 210/2/1 209/2/1
f 213/2/1 212/2/1 211/2/1
f 214/2/1 210/2/1 212/2/1
f 214/2/1 212/2/1 213/2/1
f 215/2/1 213/2/1 211/2/1
f 216/2/1 213/2/1 215/2/1
f 217/2/1 215/2/1 211/2/1
f 218/2/1 215/2/1 217/2/1
f 222/2/1 220/2/1 219/2/1
f 223/1/1 221/1/1 220/1/1
f 223/2/1 220/2/1 222/2/1
f 224/1/1 221/1/1 223/1/1
f 225/1/1 221/1/1 224/1/1
f 233/3/1 230/3/1 229/3/1
f 234/3/1 230/3/1 233/3/1
f 235/3/1 232/3/1 231/3/1
f 236/3/1 232/3/1 235/3/1
f 237/2/1 227/2/1 226/2/1
f 238/1/1 228/1/1 227/1/1
f 238/2/1 227/2/1 237/2/1
f 239/1/1 228/1/1 238/1/1
f 244/1/1 241/1/1 240/1/1
f 245/1/1 241/1/1 244/1/1
f 246/1/1 243/1/1 242/1/1
f 247/1/1 243/1/1 246/1/1
f 250/3/1 249/3/1 248/3/1
f 251/3/1 249/3/1 250/3/1
f 256/2/1 253/2/1 252/2/1
f 257/2/1 253/2/1 256/2/1
f 260/2/1 255/2/1 254/2/1
f 261/2/1 255/2/1 260/2/1
f 262/1/1 259/1/1 258/1/1
f 263/1/1 259/1/1 262/1/1
f 268/2/1 265/2/1 264/2/1
f 269/2/1 265/2/1 268/2/1
f 270/2/1 267/2/1 266/2/1
f 271/2/1 267/2/1 270/2/1
f 276/1/1 273/1/1 272/1/1
f 277/1/1 273/1/1 276/1/1
f 278/1/1 275/1/1 274/1/1
f 279/1/1 275/1/1 278/1/1
f 282/1/1 281/1/1 280/1/1
f 283/1/1 281/1/1 282/1/1
f 286/2/1 285/2/1 284/2/1
f 287/2/1 285/2/1 286/2/1
f 291/2/1 289/2/1 288/2/1
f 292/1/1 290/1/1 289/1/1
f 292/2/1 289/2/1 291/2/1
f 293/1/1 290/1/1 292/1/1
f 296/1/1 295/1/1 294/1/1
f 298/1/1 297/1/1 296/1/1
f 299/1/1 297/1/1 298/1/1
f 300/1/1 296/1/1 294/1/1
f 300/1/1 298/1/1 296/1/1
f 301/1/1 298/1/1 300/1/1
f 302/1/1 300/1/1 294/1/1
f 303/1/1 300/1/1 302/1/1
f 306/2/1 305/2/1 304/2/1
f 307/2/1 305/2/1 306/2/1
f 308/2/2 309/2/2 310/2/2
f 310/2/2 309/2/2 311/2/2
f 312/2/2 313/2/2 314/2/2
f 314/2/2 313/2/2 315/2/2
f 316/2/2 317/2/2 318/2/2
f 318/2/2 317/2/2 319/2/2
f 320/1/2 321/1/2 322/1/2
f 322/1/2 321/1/2 323/1/2
f 324/1/2 325/1/2 326/1/2
f 326/1/2 325/1/2 327/1/2
f 328/1/2 329/1/2 330/1/2
f 330/1/2 329/1/2 331/1/2
f 328/1/2 330/1/2 332/1/2
f 332/1/2 330/1/2 333/1/2
f 334/1/2 335/1/2 340/1/2
f 340/1/2 335/1/2 341/1/2
f 336/1/2 337/1/2 342/1/2
f 342/1/2 337/1/2 343/1/2
f 338/1/2 339/1/2 345/1/2
f 344/2/2 345/2/2 346/2/2
f 345/1/2 339/1/2 347/1/2
f 346/2/2 345/2/2 347/2/2
f 347/1/2 339/1/2 348/1/2
f 349/2/2 350/2/2 351/2/2
f 351/2/2 350/2/2 352/2/2
f 353/2/2 354/2/2 355/2/2
f 355/2/2 354/2/2 356/2/2
f 357/2/2 358/2/2 360/2/2
f 358/1/2 359/1/2 361/1/2
f 360/2/2 358/2/2 361/2/2
f 361/1/2 359/1/2 362/1/2
f 363/2/2 364/2/2 366/2/2
f 364/1/2 365/1/2 367/1/2
f 366/2/2 364/2/2 367/2/2
f 367/1/2 365/1/2 373/1/2
f 368/2/2 369/2/2 374/2/2
f 374/2/2 369/2/2 375/2/2
f 370/2/2 371/2/2 376/2/2
f 376/2/2 371/2/2 377/2/2
f 372/2/2 373/2/2 378/2/2
f 373/1/2 365/1/2 379/1/2
f 378/2/2 373/2/2 379/2/2
f 379/1/2 365/1/2 385/1/2
f 380/2/2 381/2/2 386/2/2
f 386/2/2 381/2/2 387/2/2
f 382/2/2 383/2/2 388/2/2
f 388/2/2 383/2/2 389/2/2
f 384/2/2 385/2/2 390/2/2
f 385/1/2 365/1/2 391/1/2
f 390/2/2 385/2/2 391/2/2
f 391/1/2 365/1/2 394/1/2
f 394/1/2 365/1/2 395/1/2
f 392/3/2 393/3/2 396/3/2
f 396/3/2 393/3/2 397/3/2
f 398/1/2 399/1/2 402/1/2
f 402/1/2 399/1/2 403/1/2
f 400/1/2 401/1/2 404/1/2
f 404/1/2 401/1/2 405/1/2
f 406/3/2 407/3/2 408/3/2
f 408/3/2 407/3/2 409/3/2
f 410/2/2 411/2/2 413/2/2
f 411/1/2 412/1/2 414/1/2
f 413/2/2 411/2/2 414/2/2
f 414/1/2 412/1/2 415/1/2
f 415/1/2 412/1/2 416/1/2
f 420/3/2 421/3/2 422/3/2
f 422/3/2 421/3/2 423/3/2
f 417/2/2 418/2/2 424/2/2
f 418/1/2 419/1/2 425/1/2
f 424/2/2 418/2/2 425/2/2
f 425/1/2 419/1/2 426/1/2
f 427/1/2 428/1/2 431/1/2
f 431/1/2 428/1/2 432/1/2
f 429/1/2 430/1/2 433/1/2
f 433/1/2 430/1/2 434/1/2
f 435/2/2 436/2/2 438/2/2
f 437/2/2 438/2/2 439/2/2
f 438/2/2 436/2/2 440/2/2
f 439/2/2 438/2/2 440/2/2
f 437/2/2 439/2/2 441/2/2
f 441/2/2 439/2/2 442/2/2
f 437/2/2 441/2/2 443/2/2
f 443/2/2 441/2/2 444/2/2
f 445/1/2 446/1/2 447/1/2
f 447/1/2 446/1/2 448/1/2
f 449/2/2 450/2/2 451/2/2
f 451/2/2 450/2/2 452/2/2
f 453/1/2 454/1/2 457/1/2
f 457/1/2 454/1/2 458/1/2
f 455/1/2 456/1/2 459/1/2
f 459/1/2 456/1/2 460/1/2
f 461/2/2 462/2/2 464/2/2
f 462/1/2 463/1/2 465/1/2
f 464/2/2 462/2/2 465/2/2
f 465/1/2 463/1/2 468/1/2
f 468/1/2 463/1/2 469/1/2
f 466/2/2 467/2/2 472/2/2
f 472/2/2 467/2/2 473/2/2
f 470/2/2 471/2/2 474/2/2
f 474/2/2 471/2/2 475/2/2
f 476/2/2 477/2/2 482/2/2
f 482/2/2 477/2/2 483/2/2
f 478/1/2 479/1/2 484/1/2
f 484/1/2 479/1/2 485/1/2
f 480/2/2 481/2/2 486/2/2
f 486/2/2 481/2/2 487/2/2
f 488/2/2 489/2/2 494/2/2
f 494/2/2 489/2/2 495/2/2
f 490/2/2 491/2/2 496/2/2
f 496/2/2 491/2/2 497/2/2
f 492/2/2 493/2/2 498/2/2
f 498/2/2 493/2/2 499/2/2
f 500/1/2 501/1/2 505/1/2
f 505/1/2 501/1/2 506/1/2
f 502/1/2 503/1/2 507/1/2
f 507/1/2 503/1/2 508/1/2
f 504/2/2 505/2/2 510/2/2
f 510/2/2 505/2/2 511/2/2
f 506/1/2 507/1/2 512/1/2
f 512/1/2 507/1/2 513/1/2
f 508/2/2 509/2/2 514/2/2
f 514/2/2 509/2/2 515/2/2
f 512/1/2 513/1/2 516/1/2
f 513/1/2 514/1/2 516/1/2
f 511/1/2 512/1/2 516/1/2
f 516/1/2 514/1/2 517/1/2
f 511/1/2 516/1/2 518/1/2
f 518/1/2 516/1/2 519/1/2
f 517/1/2 514/1/2 520/1/2
f 520/1/2 514/1/2 521/1/2
f 521/2/2 522/2/2 526/2/2
f 526/2/2 522/2/2 527/2/2
f 523/1/2 524/1/2 528/1/2
f 528/1/2 524/1/2 529/1/2
f 525/1/2 526/1/2 530/1/2
f 530/1/2 526/1/2 531/1/2
f 532/1/2 533/1/2 540/1/2
f 534/1/2 535/1/2 541/1/2
f 541/1/2 535/1/2 542/1/2
f 536/1/2 537/1/2 543/1/2
f 543/1/2 537/1/2 544/1/2
f 538/1/2 539/1/2 545/1/2
f 543/1/2 544/1/2 546/1/2
f 544/1/2 545/1/2 546/1/2
f 532/1/2 540/1/2 546/1/2
f 541/1/2 542/1/2 546/1/2
f 542/1/2 543/1/2 546/1/2
f 540/1/2 541/1/2 546/1/2
f 545/1/2 539/1/2 547/1/2
f 546/1/2 545/1/2 547/1/2
f 548/2/2 549/2/2 551/2/2
f 551/2/2 549/2/2 552/2/2
f 550/2/2 551/2/2 554/2/2
f 554/2/2 551/2/2 555/2/2
f 552/2/2 553/2/2 556/2/2
f 556/2/2 553/2/2 557/2/2
f 558/2/2 559/2/2 561/2/2
f 561/2/2 559/2/2 562/2/2
f 560/2/2 561/2/2 564/2/2
f 564/2/2 561/2/2 565/2/2
f 564/1/2 565/1/2 567/1/2
f 565/1/2 566/1/2 567/1/2
f 563/1/2 564/1/2 567/1/2
f 567/1/2 566/1/2 568/1/2
f 563/1/2 567/1/2 570/1/2
f 568/1/2 566/1/2 571/1/2
f 571/1/2 566/1/2 572/1/2
f 570/1/2 567/1/2 573/1/2
f 572/1/2 566/1/2 574/1/2
f 569/2/2 570/2/2 575/2/2
f 573/1/2 574/1/2 576/1/2
f 575/2/2 570/2/2 576/2/2
f 570/1/2 573/1/2 576/1/2
f 576/1/2 574/1/2 577/1/2
f 574/1/2 566/1/2 578/1/2
f 577/1/2 574/1/2 578/1/2
f 579/1/2 580/1/2 581/1/2
f 581/1/2 580/1/2 582/1/2
f 583/1/2 584/1/2 585/1/2
f 585/1/2 584/1/2 586/1/2
f 587/2/2 588/2/2 589/2/2
f 587/2/2 589/2/2 591/2/2
f 589/2/2 590/2/2 591/2/2
f 591/2/2 590/2/2 592/2/2
f 593/1/2 594/1/2 595/1/2
f 593/1/2 595/1/2 597/1/2
f 595/1/2 596/1/2 597/1/2
f 597/1/2 596/1/2 598/1/2
f 593/1/2 597/1/2 599/1/2
f 599/1/2 597/1/2 600/1/2
f 601/2/2 602/2/2 603/2/2
f 603/2/2 602/2/2 604/2/2
f 605/2/2 606/2/2 607/2/2
f 607/2/2 606/2/2 608/2/2
f 616/2/3 610/2/3 609/2/3
f 617/2/3 610/2/3 616/2/3
f 619/2/3 612/2/3 611/2/3
f 620/2/3 612/2/3 619/2/3
f 622/2/3 614/2/3 613/2/3
f 623/2/3 614/2/3 622/2/3
f 624/2/3 616/2/3 615/2/3
f 625/2/3 616/2/3 624/2/3
f 627/2/3 619/2/3 618/2/3
f 628/2/3 619/2/3 627/2/3
f 630/2/3 622/2/3 621/2/3
f 631/2/3 622/2/3 630/2/3
f 633/2/3 626/2/3 625/2/3
f 634/2/3 626/2/3 633/2/3
f 635/2/3 629/2/3 628/2/3
f 636/2/3 629/2/3 635/2/3
f 637/2/3 632/2/3 631/2/3
f 638/2/3 632/2/3 637/2/3
f 648/1/3 640/1/3 639/1/3
f 649/1/3 640/1/3 648/1/3
f 650/1/3 640/1/3 649/1/3
f 651/1/3 642/1/3 641/1/3
f 652/1/3 642/1/3 651/1/3
f 653/1/3 642/1/3 652/1/3
f 654/1/3 644/1/3 643/1/3
f 656/1/3 646/1/3 645/1/3
f 657/1/3 654/1/3 653/1/3
f 657/1/3 644/1/3 654/1/3
f 658/1/3 644/1/3 657/1/3
f 659/1/3 656/1/3 655/1/3
f 660/1/3 646/1/3 656/1/3
f 660/1/3 656/1/3 659/1/3
f 661/1/3 657/1/3 653/1/3
f 663/1/3 646/1/3 660/1/3
f 664/1/3 646/1/3 663/1/3
f 665/1/3 648/1/3 647/1/3
f 665/1/3 649/1/3 648/1/3
f 666/1/3 649/1/3 665/1/3
f 667/1/3 649/1/3 666/1/3
f 668/1/3 651/1/3 650/1/3
f 668/1/3 652/1/3 651/1/3
f 669/1/3 652/1/3 668/1/3
f 670/1/3 652/1/3 669/1/3
f 671/1/3 662/1/3 661/1/3
f 671/1/3 661/1/3 653/1/3
f 672/1/3 662/1/3 671/1/3
f 673/1/3 667/1/3 666/1/3
f 673/1/3 668/1/3 667/1/3
f 674/1/3 668/1/3 673/1/3
f 675/1/3 671/1/3 670/1/3
f 675/1/3 670/1/3 669/1/3
f 676/1/3 671/1/3 675/1/3
f 677/1/3 662/1/3 672/1/3
f 678/1/3 662/1/3 677/1/3
f 682/2/3 680/2/3 679/2/3
f 683/2/3 680/2/3 682/2/3
f 685/1/3 682/1/3 681/1/3
f 686/2/3 684/2/3 683/2/3
f 686/1/3 682/1/3 685/1/3
f 686/2/3 683/2/3 682/2/3
f 687/2/3 684/2/3 686/2/3
f 688/2/3 684/2/3 687/2/3
f 689/2/3 687/2/3 686/2/3
f 690/2/3 687/2/3 689/2/3
f 695/2/3 694/2/3 693/2/3
f 696/2/3 694/2/3 695/2/3
f 698/2/3 695/2/3 693/2/3
f 699/2/3 698/2/3 697/2/3
f 700/2/3 695/2/3 698/2/3
f 700/2/3 698/2/3 699/2/3
f 703/2/3 702/2/3 701/2/3
f 704/2/3 702/2/3 703/2/3
f 705/2/3 702/2/3 704/2/3
f 706/2/3 702/2/3 705/2/3
f 707/2/3 694/2/3 696/2/3
f 708/2/3 706/2/3 705/2/3
f 708/2/3 707/2/3 706/2/3
f 709/2/3 694/2/3 707/2/3
f 709/2/3 707/2/3 708/2/3
f 710/1/3 692/1/3 691/1/3
f 711/1/3 692/1/3 710/1/3
f 718/1/3 713/1/3 712/1/3
f 719/1/3 713/1/3 718/1/3
f 721/1/3 713/1/3 719/1/3
f 722/1/3 721/1/3 720/1/3
f 723/1/3 713/1/3 721/1/3
f 723/1/3 721/1/3 722/1/3
f 724/1/3 715/1/3 714/1/3
f 725/1/3 715/1/3 724/1/3
f 727/1/3 713/1/3 723/1/3
f 728/1/3 717/1/3 716/1/3
f 730/1/3 727/1/3 726/1/3
f 731/1/3 713/1/3 727/1/3
f 731/1/3 727/1/3 730/1/3
f 732/2/3 729/2/3 728/2/3
f 732/1/3 728/1/3 716/1/3
f 733/2/3 729/2/3 732/2/3
f 735/1/3 713/1/3 731/1/3
f 738/1/3 735/1/3 734/1/3
f 739/1/3 713/1/3 735/1/3
f 739/1/3 735/1/3 738/1/3
f 741/1/3 713/1/3 739/1/3
f 742/1/3 741/1/3 740/1/3
f 743/1/3 713/1/3 741/1/3
f 743/1/3 741/1/3 742/1/3
f 744/1/3 737/1/3 736/1/3
f 745/1/3 737/1/3 744/1/3
f 746/1/3 732/1/3 716/1/3
f 747/1/3 732/1/3 746/1/3
f 756/2/3 749/2/3 748/2/3
f 757/2/3 749/2/3 756/2/3
f 759/2/3 751/2/3 750/2/3
f 760/2/3 751/2/3 759/2/3
f 762/2/3 753/2/3 752/2/3
f 763/2/3 753/2/3 762/2/3
f 766/2/3 765/2/3 764/2/3
f 767/2/3 765/2/3 766/2/3
f 769/3/3 755/3/3 754/3/3
f 772/3/3 769/3/3 768/3/3
f 773/3/3 755/3/3 769/3/3
f 773/3/3 769/3/3 772/3/3
f 774/2/3 771/2/3 770/2/3
f 775/2/3 771/2/3 774/2/3
f 778/2/3 759/2/3 758/2/3
f 779/2/3 759/2/3 778/2/3
f 781/2/3 762/2/3 761/2/3
f 782/2/3 762/2/3 781/2/3
f 784/2/3 777/2/3 776/2/3
f 785/2/3 777/2/3 784/2/3
f 786/2/3 780/2/3 779/2/3
f 787/2/3 780/2/3 786/2/3
f 788/3/3 755/3/3 773/3/3
f 789/3/3 755/3/3 788/3/3
f 790/2/3 783/2/3 782/2/3
f 791/2/3 783/2/3 790/2/3
f 798/1/3 793/1/3 792/1/3
f 799/1/3 793/1/3 798/1/3
f 801/2/3 795/2/3 794/2/3
f 802/2/3 795/2/3 801/2/3
f 803/2/3 797/2/3 796/2/3
f 804/2/3 797/2/3 803/2/3
f 808/1/3 801/1/3 800/1/3
f 809/1/3 801/1/3 808/1/3
f 810/1/3 803/1/3 802/1/3
f 811/1/3 803/1/3 810/1/3
f 812/1/3 803/1/3 811/1/3
f 813/1/3 805/1/3 804/1/3
f 814/2/3 807/2/3 806/2/3
f 815/2/3 807/2/3 814/2/3
f 818/2/3 817/2/3 816/2/3
f 819/2/3 817/2/3 818/2/3
f 821/1/3 810/1/3 809/1/3
f 821/1/3 811/1/3 810/1/3
f 822/1/3 811/1/3 821/1/3
f 823/1/3 811/1/3 822/1/3
f 824/1/3 813/1/3 812/1/3
f 825/1/3 805/1/3 813/1/3
f 825/1/3 813/1/3 824/1/3
f 828/1/3 821/1/3 820/1/3
f 829/1/3 821/1/3 828/1/3
f 830/1/3 823/1/3 822/1/3
f 830/1/3 824/1/3 823/1/3
f 831/1/3 824/1/3 830/1/3
f 832/1/3 805/1/3 825/1/3
f 833/1/3 805/1/3 832/1/3
f 834/1/3 827/1/3 826/1/3
f 835/1/3 827/1/3 834/1/3
f 836/2/3 830/2/3 829/2/3
f 837/2/3 830/2/3 836/2/3
f 846/2/3 839/2/3 838/2/3
f 847/2/3 839/2/3 846/2/3
f 848/2/3 841/2/3 840/2/3
f 849/2/3 841/2/3 848/2/3
f 850/1/3 843/1/3 842/1/3
f 851/1/3 843/1/3 850/1/3
f 852/2/3 845/2/3 844/2/3
f 853/2/3 845/2/3 852/2/3
f 856/1/3 855/1/3 854/1/3
f 857/1/3 855/1/3 856/1/3
f 860/1/3 859/1/3 858/1/3
f 861/1/3 859/1/3 860/1/3
f 868/2/3 863/2/3 862/2/3
f 869/2/3 863/2/3 868/2/3
f 870/1/3 865/1/3 864/1/3
f 871/1/3 865/1/3 870/1/3
f 872/2/3 867/2/3 866/2/3
f 873/2/3 867/2/3 872/2/3
f 876/2/3 875/2/3 874/2/3
f 877/2/3 875/2/3 876/2/3
f 880/1/3 879/1/3 878/1/3
f 881/1/3 879/1/3 880/1/3
f 884/3/3 883/3/3 882/3/3
f 885/3/3 883/3/3 884/3/3
f 888/1/3 887/1/3 886/1/3
f 889/1/3 887/1/3 888/1/3
f 892/2/3 891/2/3 890/2/3
f 893/2/3 891/2/3 892/2/3
f 896/3/3 895/3/3 894/3/3
f 897/3/3 895/3/3 896/3/3
f 900/1/3 899/1/3 898/1/3
f 901/1/3 899/1/3 900/1/3
f 905/1/3 902/1/3 901/1/3
f 906/1/3 902/1/3 905/1/3
f 907/2/3 904/2/3 903/2/3
f 908/2/3 904/2/3 907/2/3
f 911/1/3 910/1/3 909/1/3
f 912/1/3 910/1/3 911/1/3
f 915/3/3 914/3/3 913/3/3
f 916/3/3 914/3/3 915/3/3
f 919/1/3 918/1/3 917/1/3
f 920/1/3 918/1/3 919/1/3
f 921/1/4 922/1/4 924/1/4
f 923/1/4 924/1/4 926/1/4
f 924/1/4 922/1/4 927/1/4
f 926/1/4 924/1/4 927/1/4
f 927/1/4 922/1/4 928/1/4
f 928/1/4 922/1/4 929/1/4
f 929/1/4 922/1/4 930/1/4
f 925/1/4 926/1/4 931/1/4
f 926/1/4 927/1/4 931/1/4
f 931/1/4 927/1/4 932/1/4
f 932/1/4 927/1/4 933/1/4
f 928/1/4 929/1/4 934/1/4
f 934/1/4 929/1/4 935/1/4
f 932/1/4 933/1/4 937/1/4
f 935/1/4 936/1/4 937/1/4
f 934/1/4 935/1/4 937/1/4
f 933/1/4 934/1/4 937/1/4
f 937/1/4 936/1/4 938/1/4
f 938/1/4 936/1/4 939/1/4
f 939/1/4 936/1/4 940/1/4
f 941/2/4 942/2/4 946/2/4
f 946/2/4 942/2/4 947/2/4
f 943/1/4 944/1/4 949/1/4
f 949/1/4 944/1/4 950/1/4
f 945/1/4 946/1/4 951/1/4
f 947/2/4 948/2/4 952/2/4
f 951/1/4 946/1/4 952/1/4
f 946/2/4 947/2/4 952/2/4
f 952/2/4 948/2/4 953/2/4
f 953/2/4 948/2/4 954/2/4
f 952/2/4 953/2/4 955/2/4
f 955/2/4 953/2/4 956/2/4
f 957/1/4 958/1/4 959/1/4
f 959/1/4 958/1/4 960/1/4
f 961/2/4 962/2/4 963/2/4
f 963/2/4 962/2/4 964/2/4
f 965/1/4 966/1/4 967/1/4
f 967/1/4 966/1/4 968/1/4
f 969/3/4 970/3/4 971/3/4
f 971/3/4 970/3/4 972/3/4
f 973/1/4 974/1/4 977/1/4
f 977/1/4 974/1/4 978/1/4
f 975/2/4 976/2/4 979/2/4
f 979/2/4 976/2/4 980/2/4
f 981/3/4 982/3/4 983/3/4
f 983/3/4 982/3/4 984/3/4
f 985/1/4 986/1/4 991/1/4
f 991/1/4 986/1/4 992/1/4
f 987/1/4 988/1/4 993/1/4
f 993/1/4 988/1/4 994/1/4
f 989/2/4 990/2/4 995/2/4
f 995/2/4 990/2/4 996/2/4
f 997/1/4 998/1/4 999/1/4
f 999/1/4 998/1/4 1000/1/4
f 1001/2/4 1002/2/4 1003/2/4
f 1003/2/4 1002/2/4 1004/2/4
f 1005/3/4 1006/3/4 1007/3/4
f 1007/3/4 1006/3/4 1008/3/4
f 1009/2/4 1010/2/4 1011/2/4
f 1011/2/4 1010/2/4 1012/2/4
f 1013/1/4 1014/1/4 1015/1/4
f 1015/1/4 1014/1/4 1016/1/4
f 1017/2/4 1018/2/4 1021/2/4
f 1021/2/4 1018/2/4 1022/2/4
f 1019/1/4 1020/1/4 1023/1/4
f 1023/1/4 1020/1/4 1024/1/4
f 1025/1/4 1026/1/4 1031/1/4
f 1031/1/4 1026/1/4 1032/1/4
f 1027/1/4 1028/1/4 1034/1/4
f 1034/1/4 1028/1/4 1035/1/4
f 1029/2/4 1030/2/4 1036/2/4
f 1036/2/4 1030/2/4 1037/2/4
f 1025/1/4 1031/1/4 1038/1/4
f 1038/1/4 1031/1/4 1039/1/4
f 1032/2/4 1033/2/4 1040/2/4
f 1040/2/4 1033/2/4 1041/2/4
f 1044/3/4 1045/3/4 1046/3/4
f 1046/3/4 1045/3/4 1047/3/4
f 1042/1/4 1043/1/4 1048/1/4
f 1048/1/4 1043/1/4 1049/1/4
f 1050/1/4 1051/1/4 1052/1/4
f 1052/1/4 1051/1/4 1053/1/4
f 1054/1/4 1055/1/4 1062/1/4
f 1062/1/4 1055/1/4 1063/1/4
f 1056/2/4 1057/2/4 1064/2/4
f 1064/2/4 1057/2/4 1065/2/4
f 1058/1/4 1059/1/4 1066/1/4
f 1060/2/4 1061/2/4 1067/2/4
f 1067/2/4 1061/2/4 1068/2/4
f 1058/1/4 1066/1/4 1069/1/4
f 1066/1/4 1067/1/4 1069/1/4
f 1069/1/4 1067/1/4 1070/1/4
f 1071/2/4 1072/2/4 1077/2/4
f 1077/2/4 1072/2/4 1078/2/4
f 1073/2/4 1074/2/4 1082/2/4
f 1082/2/4 1074/2/4 1083/2/4
f 1075/2/4 1076/2/4 1084/2/4
f 1084/2/4 1076/2/4 1085/2/4
f 1079/2/4 1080/2/4 1087/2/4
f 1087/2/4 1080/2/4 1088/2/4
f 1081/1/4 1082/1/4 1089/1/4
f 1089/1/4 1082/1/4 1090/1/4
f 1083/1/4 1084/1/4 1091/1/4
f 1091/1/4 1084/1/4 1092/1/4
f 1092/1/4 1084/1/4 1093/1/4
f 1085/1/4 1086/1/4 1094/1/4
f 1095/2/4 1096/2/4 1097/2/4
f 1097/2/4 1096/2/4 1098/2/4
f 1099/2/4 1100/2/4 1101/2/4
f 1101/2/4 1100/2/4 1102/2/4
f 1090/1/4 1091/1/4 1106/1/4
f 1091/1/4 1092/1/4 1106/1/4
f 1106/1/4 1092/1/4 1107/1/4
f 1107/1/4 1092/1/4 1108/1/4
f 1093/1/4 1094/1/4 1109/1/4
f 1094/1/4 1086/1/4 1110/1/4
f 1109/1/4 1094/1/4 1110/1/4
f 1103/2/4 1104/2/4 1111/2/4
f 1111/2/4 1104/2/4 1112/2/4
f 1105/1/4 1106/1/4 1113/1/4
f 1113/1/4 1106/1/4 1114/1/4
f 1107/1/4 1108/1/4 1115/1/4
f 1108/1/4 1109/1/4 1115/1/4
f 1115/1/4 1109/1/4 1116/1/4
f 1110/1/4 1086/1/4 1117/1/4
f 1117/1/4 1086/1/4 1118/1/4
f 1114/2/4 1115/2/4 1119/2/4
f 1119/2/4 1115/2/4 1120/2/4
f 1116/2/4 1117/2/4 1121/2/4
f 1121/2/4 1117/2/4 1122/2/4
f 1123/2/4 1124/2/4 1125/2/4
f 1125/2/4 1124/2/4 1126/2/4
f 1127/1/4 1128/1/4 1129/1/4
f 1129/1/4 1128/1/4 1130/1/4
f 1130/1/4 1128/1/4 1136/1/4
f 1131/2/4 1132/2/4 1138/2/4
f 1138/2/4 1132/2/4 1139/2/4
f 1133/2/4 1134/2/4 1141/2/4
f 1141/2/4 1134/2/4 1142/2/4
f 1135/1/4 1136/1/4 1143/1/4
f 1136/1/4 1128/1/4 1144/1/4
f 1143/1/4 1136/1/4 1144/1/4
f 1144/1/4 1128/1/4 1146/1/4
f 1145/1/4 1146/1/4 1147/1/4
f 1146/1/4 1128/1/4 1148/1/4
f 1147/1/4 1146/1/4 1148/1/4
f 1148/1/4 1128/1/4 1150/1/4
f 1149/1/4 1150/1/4 1151/1/4
f 1150/1/4 1128/1/4 1152/1/4
f 1151/1/4 1150/1/4 1152/1/4
f 1137/2/4 1138/2/4 1153/2/4
f 1153/2/4 1138/2/4 1154/2/4
f 1140/2/4 1141/2/4 1156/2/4
f 1156/2/4 1141/2/4 1157/2/4
f 1152/1/4 1128/1/4 1160/1/4
f 1154/2/4 1155/2/4 1161/2/4
f 1161/2/4 1155/2/4 1162/2/4
f 1157/2/4 1158/2/4 1163/2/4
f 1163/2/4 1158/2/4 1164/2/4
f 1159/1/4 1160/1/4 1165/1/4
f 1160/1/4 1128/1/4 1166/1/4
f 1165/1/4 1160/1/4 1166/1/4
f 1169/1/4 1170/1/4 1171/1/4
f 1171/1/4 1170/1/4 1172/1/4
f 1173/1/4 1174/1/4 1175/1/4
f 1175/1/4 1174/1/4 1176/1/4
f 1167/1/4 1168/1/4 1177/1/4
f 1177/1/4 1168/1/4 1178/1/4
f 1179/2/4 1180/2/4 1181/2/4
f 1181/2/4 1180/2/4 1182/2/4
f 1185/1/5 1184/1/5 1183/1/5
f 1186/1/5 1184/1/5 1185/1/5
f 1191/1/5 1188/1/5 1187/1/5
f 1192/1/5 1188/1/5 1191/1/5
f 1193/1/5 1190/1/5 1189/1/5
f 1194/1/5 1190/1/5 1193/1/5
f 1199/1/5 1196/1/5 1195/1/5
f 1200/1/5 1196/1/5 1199/1/5
f 1201/1/5 1198/1/5 1197/1/5
f 1202/1/5 1198/1/5 1201/1/5
f 1212/1/5 1204/1/5 1203/1/5
f 1213/1/5 1204/1/5 1212/1/5
f 1214/1/5 1206/1/5 1205/1/5
f 1215/1/5 1206/1/5 1214/1/5
f 1216/1/5 1208/1/5 1207/1/5
f 1217/1/5 1208/1/5 1216/1/5
f 1218/1/5 1210/1/5 1209/1/5
f 1219/1/5 1210/1/5 1218/1/5
f 1221/1/5 1212/1/5 1211/1/5
f 1222/1/5 1212/1/5 1221/1/5
f 1223/1/5 1220/1/5 1219/1/5
f 1224/1/5 1220/1/5 1223/1/5
f 1229/1/5 1226/1/5 1225/1/5
f 1230/1/5 1226/1/5 1229/1/5
f 1231/1/5 1228/1/5 1227/1/5
f 1232/1/5 1228/1/5 1231/1/5
f 1237/1/5 1234/1/5 1233/1/5
f 1238/1/5 1234/1/5 1237/1/5
f 1245/1/5 1236/1/5 1235/1/5
f 1246/1/5 1236/1/5 1245/1/5
f 1247/1/5 1239/1/5 1238/1/5
f 1248/1/5 1239/1/5 1247/1/5
f 1249/1/5 1241/1/5 1240/1/5
f 1250/1/5 1241/1/5 1249/1/5
f 1251/1/5 1243/1/5 1242/1/5
f 1252/1/5 1243/1/5 1251/1/5
f 1253/1/5 1245/1/5 1244/1/5
f 1254/1/5 1245/1/5 1253/1/5
f 1257/2/5 1256/2/5 1255/2/5
f 1258/2/5 1256/2/5 1257/2/5
f 1263/2/5 1260/2/5 1259/2/5
f 1264/2/5 1260/2/5 1263/2/5
f 1265/2/5 1262/2/5 1261/2/5
f 1266/2/5 1262/2/5 1265/2/5
f 1267/1/5 1264/1/5 1263/1/5
f 1268/1/5 1264/1/5 1267/1/5
f 1269/1/5 1266/1/5 1265/1/5
f 1270/1/5 1266/1/5 1269/1/5
f 1274/2/5 1272/2/5 1271/2/5
f 1275/2/5 1272/2/5 1274/2/5
f 1278/1/5 1274/1/5 1273/1/5
f 1278/1/5 1276/1/5 1275/1/5
f 1278/1/5 1275/1/5 1274/1/5
f 1279/1/5 1276/1/5 1278/1/5
f 1280/1/5 1276/1/5 1279/1/5
f 1281/1/5 1276/1/5 1280/1/5
f 1282/1/5 1276/1/5 1281/1/5
f 1283/1/5 1276/1/5 1282/1/5
f 1285/2/5 1278/2/5 1277/2/5
f 1286/1/5 1279/1/5 1278/1/5
f 1286/2/5 1278/2/5 1285/2/5
f 1287/1/5 1279/1/5 1286/1/5
f 1288/1/5 1281/1/5 1280/1/5
f 1289/1/5 1281/1/5 1288/1/5
f 1290/1/5 1283/1/5 1282/1/5
f 1291/2/5 1284/2/5 1283/2/5
f 1291/1/5 1283/1/5 1290/1/5
f 1292/2/5 1284/2/5 1291/2/5
f 1293/1/5 1290/1/5 1289/1/5
f 1293/1/5 1289/1/5 1288/1/5
f 1293/1/5 1291/1/5 1290/1/5
f 1293/1/5 1287/1/5 1286/1/5
f 1293/1/5 1288/1/5 1287/1/5
f 1294/1/5 1291/1/5 1293/1/5
f 1295/1/5 1291/1/5 1294/1/5
f 1296/1/5 1291/1/5 1295/1/5
f 1297/2/5 1295/2/5 1294/2/5
f 1298/2/5 1295/2/5 1297/2/5
f 1301/2/5 1300/2/5 1299/2/5
f 1302/2/5 1300/2/5 1301/2/5
f 1308/2/5 1304/2/5 1303/2/5
f 1309/2/5 1304/2/5 1308/2/5
f 1310/2/5 1306/2/5 1305/2/5
f 1311/2/5 1306/2/5 1310/2/5
f 1313/2/5 1308/2/5 1307/2/5
f 1314/2/5 1308/2/5 1313/2/5
f 1315/2/5 1312/2/5 1311/2/5
f 1316/2/5 1312/2/5 1315/2/5
f 1321/2/5 1318/2/5 1317/2/5
f 1322/2/5 1318/2/5 1321/2/5
f 1325/2/5 1320/2/5 1319/2/5
f 1326/2/5 1320/2/5 1325/2/5
f 1327/2/5 1323/2/5 1322/2/5
f 1328/2/5 1323/2/5 1327/2/5
f 1329/2/5 1325/2/5 1324/2/5
f 1330/2/5 1325/2/5 1329/2/5
f 1335/2/5 1332/2/5 1331/2/5
f 1336/2/5 1332/2/5 1335/2/5
f 1337/2/5 1334/2/5 1333/2/5
f 1338/2/5 1334/2/5 1337/2/5
f 1345/2/5 1344/2/5 1343/2/5
f 1346/2/5 1344/2/5 1345/2/5
f 1347/1/5 1340/1/5 1339/1/5
f 1350/1/5 1342/1/5 1341/1/5
f 1351/1/5 1348/1/5 1347/1/5
f 1351/1/5 1347/1/5 1339/1/5
f 1352/1/5 1348/1/5 1351/1/5
f 1355/1/5 1350/1/5 1349/1/5
f 1355/1/5 1342/1/5 1350/1/5
f 1356/1/5 1342/1/5 1355/1/5
f 1357/1/5 1348/1/5 1352/1/5
f 1358/1/5 1348/1/5 1357/1/5
f 1359/1/5 1354/1/5 1353/1/5
f 1360/1/5 1354/1/5 1359/1/5
f 1361/1/5 1355/1/5 1349/1/5
f 1362/1/5 1355/1/5 1361/1/5
f 1365/2/5 1364/2/5 1363/2/5
f 1366/2/5 1364/2/5 1365/2/5
f 1369/2/5 1368/2/5 1367/2/5
f 1370/2/5 1368/2/5 1369/2/5
f 1376/2/5 1372/2/5 1371/2/5
f 1377/2/5 1372/2/5 1376/2/5
f 1378/2/5 1374/2/5 1373/2/5
f 1379/2/5 1374/2/5 1378/2/5
f 1380/2/5 1376/2/5 1375/2/5
f 1381/2/5 1376/2/5 1380/2/5
f 1383/2/5 1374/2/5 1379/2/5
f 1384/2/5 1374/2/5 1383/2/5
f 1387/1/5 1383/1/5 1382/1/5
f 1388/1/5 1383/1/5 1387/1/5
f 1390/2/5 1386/2/5 1385/2/5
f 1391/2/5 1386/2/5 1390/2/5
f 1394/2/5 1389/2/5 1388/2/5
f 1395/2/5 1389/2/5 1394/2/5
f 1396/2/5 1392/2/5 1391/2/5
f 1397/2/5 1392/2/5 1396/2/5
f 1398/2/5 1394/2/5 1393/2/5
f 1399/2/5 1394/2/5 1398/2/5
f 1404/2/5 1401/2/5 1400/2/5
f 1405/2/5 1401/2/5 1404/2/5
f 1406/2/5 1403/2/5 1402/2/5
f 1407/2/5 1403/2/5 1406/2/5
f 1413/2/5 1409/2/5 1408/2/5
f 1414/2/5 1409/2/5 1413/2/5
f 1415/2/5 1411/2/5 1410/2/5
f 1416/2/5 1411/2/5 1415/2/5
f 1418/1/5 1414/1/5 1413/1/5
f 1418/1/5 1413/1/5 1412/1/5
f 1419/1/5 1414/1/5 1418/1/5
f 1420/1/5 1417/1/5 1416/1/5
f 1420/1/5 1416/1/5 1415/1/5
f 1421/1/5 1417/1/5 1420/1/5
f 1422/3/5 1419/3/5 1418/3/5
f 1422/1/5 1418/1/5 1412/1/5
f 1422/3/5 1421/3/5 1420/3/5
f 1422/3/5 1420/3/5 1419/3/5
f 1423/1/5 1417/1/5 1421/1/5
f 1423/3/5 1421/3/5 1422/3/5
f 1424/1/5 1422/1/5 1412/1/5
f 1425/1/5 1422/1/5 1424/1/5
f 1426/1/5 1417/1/5 1423/1/5
f 1427/1/5 1417/1/5 1426/1/5
f 1432/1/5 1429/1/5 1428/1/5
f 1433/1/5 1431/1/5 1430/1/5
f 1434/1/5 1432/1/5 1428/1/5
f 1434/3/5 1433/3/5 1432/3/5
f 1435/1/5 1431/1/5 1433/1/5
f 1435/3/5 1433/3/5 1434/3/5
f 1436/1/5 1434/1/5 1428/1/5
f 1436/1/5 1435/1/5 1434/1/5
f 1437/1/5 1435/1/5 1436/1/5
f 1438/1/5 1435/1/5 1437/1/5
f 1439/1/5 1431/1/5 1435/1/5
f 1439/1/5 1435/1/5 1438/1/5
f 1440/2/5 1438/2/5 1437/2/5
f 1441/2/5 1438/2/5 1440/2/5
f 1446/2/5 1443/2/5 1442/2/5
f 1447/2/5 1443/2/5 1446/2/5
f 1448/2/5 1445/2/5 1444/2/5
f 1449/2/5 1445/2/5 1448/2/5
f 1454/2/5 1451/2/5 1450/2/5
f 1455/2/5 1451/2/5 1454/2/5
f 1456/2/5 1453/2/5 1452/2/5
f 1457/2/5 1453/2/5 1456/2/5
f 1460/3/5 1459/3/5 1458/3/5
f 1461/3/5 1459/3/5 1460/3/5
f 1467/2/5 1463/2/5 1462/2/5
f 1468/2/5 1463/2/5 1467/2/5
f 1469/2/5 1466/2/5 1465/2/5
f 1469/2/5 1465/2/5 1464/2/5
f 1470/2/5 1466/2/5 1469/2/5
f 1473/3/5 1472/3/5 1471/3/5
f 1478/3/5 1473/3/5 1471/3/5
f 1478/3/5 1474/3/5 1473/3/5
f 1479/3/5 1474/3/5 1478/3/5
f 1480/3/5 1474/3/5 1479/3/5
f 1483/3/5 1478/3/5 1477/3/5
f 1483/3/5 1479/3/5 1478/3/5
f 1484/3/5 1479/3/5 1483/3/5
f 1485/2/5 1476/2/5 1475/2/5
f 1486/2/5 1476/2/5 1485/2/5
f 1487/2/5 1482/2/5 1481/2/5
f 1488/2/5 1482/2/5 1487/2/5
f 1491/2/5 1490/2/5 1489/2/5
f 1492/2/5 1490/2/5 1491/2/5
f 1493/1/5 1492/1/5 1491/1/5
f 1494/1/5 1492/1/5 1493/1/5
f 1495/1/6 1496/1/6 1497/1/6
f 1497/1/6 1496/1/6 1498/1/6
f 1498/1/6 1496/1/6 1499/1/6
f 1499/1/6 1496/1/6 1500/1/6
f 1500/1/6 1496/1/6 1501/1/6
f 1501/1/6 1496/1/6 1502/1/6
f 1502/1/6 1496/1/6 1503/1/6
f 1503/1/6 1496/1/6 1504/1/6
f 1504/1/6 1496/1/6 1505/1/6
f 1505/1/6 1496/1/6 1506/1/6
f 1495/1/6 1497/1/6 1507/1/6
f 1498/1/6 1499/1/6 1508/1/6
f 1508/1/6 1499/1/6 1509/1/6
f 1500/1/6 1501/1/6 1510/1/6
f 1510/1/6 1501/1/6 1511/1/6
f 1502/1/6 1503/1/6 1512/1/6
f 1512/1/6 1503/1/6 1513/1/6
f 1504/1/6 1505/1/6 1514/1/6
f 1514/1/6 1505/1/6 1515/1/6
f 1506/1/6 1496/1/6 1516/1/6
f 1495/1/6 1507/1/6 1517/1/6
f 1507/1/6 1508/1/6 1517/1/6
f 1517/1/6 1508/1/6 1518/1/6
f 1515/1/6 1516/1/6 1519/1/6
f 1516/1/6 1496/1/6 1520/1/6
f 1519/1/6 1516/1/6 1520/1/6
f 1495/1/6 1517/1/6 1521/1/6
f 1520/1/6 1496/1/6 1524/1/6
f 1521/1/6 1522/1/6 1525/1/6
f 1495/1/6 1521/1/6 1525/1/6
f 1525/1/6 1522/1/6 1526/1/6
f 1523/1/6 1524/1/6 1527/1/6
f 1524/1/6 1496/1/6 1528/1/6
f 1527/1/6 1524/1/6 1528/1/6
f 1495/1/6 1525/1/6 1529/1/6
f 1528/1/6 1496/1/6 1532/1/6
f 1529/1/6 1530/1/6 1533/1/6
f 1495/1/6 1529/1/6 1533/1/6
f 1533/1/6 1530/1/6 1534/1/6
f 1531/1/6 1532/1/6 1541/1/6
f 1532/1/6 1496/1/6 1542/1/6
f 1541/1/6 1532/1/6 1542/1/6
f 1495/1/6 1533/1/6 1543/1/6
f 1534/1/6 1535/1/6 1544/1/6
f 1544/1/6 1535/1/6 1545/1/6
f 1536/1/6 1537/1/6 1546/1/6
f 1546/1/6 1537/1/6 1547/1/6
f 1538/1/6 1539/1/6 1548/1/6
f 1548/1/6 1539/1/6 1549/1/6
f 1540/1/6 1541/1/6 1550/1/6
f 1550/1/6 1541/1/6 1551/1/6
f 1542/1/6 1496/1/6 1552/1/6
f 1546/1/6 1547/1/6 1553/1/6
f 1551/1/6 1552/1/6 1553/1/6
f 1548/1/6 1549/1/6 1553/1/6
f 1550/1/6 1551/1/6 1553/1/6
f 1549/1/6 1550/1/6 1553/1/6
f 1495/1/6 1543/1/6 1553/1/6
f 1547/1/6 1548/1/6 1553/1/6
f 1544/1/6 1545/1/6 1553/1/6
f 1545/1/6 1546/1/6 1553/1/6
f 1543/1/6 1544/1/6 1553/1/6
f 1552/1/6 1496/1/6 1554/1/6
f 1553/1/6 1552/1/6 1554/1/6
f 1555/1/6 1556/1/6 1557/1/6
f 1557/1/6 1556/1/6 1558/1/6
f 1558/1/6 1556/1/6 1559/1/6
f 1559/1/6 1556/1/6 1560/1/6
f 1555/1/6 1557/1/6 1561/1/6
f 1558/1/6 1559/1/6 1562/1/6
f 1562/1/6 1559/1/6 1563/1/6
f 1560/1/6 1556/1/6 1564/1/6
f 1555/1/6 1561/1/6 1565/1/6
f 1562/1/6 1563/1/6 1566/1/6
f 1566/1/6 1563/1/6 1567/1/6
f 1564/1/6 1556/1/6 1568/1/6
f 1555/1/6 1565/1/6 1569/1/6
f 1567/1/6 1568/1/6 1569/1/6
f 1566/1/6 1567/1/6 1569/1/6
f 1565/1/6 1566/1/6 1569/1/6
f 1568/1/6 1556/1/6 1570/1/6
f 1569/1/6 1568/1/6 1570/1/6
f 1571/2/6 1572/2/6 1575/2/6
f 1575/2/6 1572/2/6 1576/2/6
f 1573/2/6 1574/2/6 1577/2/6
f 1577/2/6 1574/2/6 1578/2/6
f 1579/2/6 1580/2/6 1581/2/6
f 1581/2/6 1580/2/6 1582/2/6
f 1583/2/6 1584/2/6 1587/2/6
f 1587/2/6 1584/2/6 1588/2/6
f 1585/2/6 1586/2/6 1589/2/6
f 1589/2/6 1586/2/6 1590/2/6
f 1591/2/6 1592/2/6 1593/2/6
f 1593/2/6 1592/2/6 1594/2/6
f 1595/2/6 1596/2/6 1599/2/6
f 1599/2/6 1596/2/6 1600/2/6
f 1597/2/6 1598/2/6 1601/2/6
f 1601/2/6 1598/2/6 1602/2/6
f 1603/2/6 1604/2/6 1605/2/6
f 1605/2/6 1604/2/6 1606/2/6
f 1607/2/6 1608/2/6 1609/2/6
f 1609/2/6 1608/2/6 1610/2/6
f 1611/2/6 1612/2/6 1616/2/6
f 1616/2/6 1612/2/6 1617/2/6
f 1613/2/6 1614/2/6 1618/2/6
f 1618/2/6 1614/2/6 1619/2/6
f 1615/2/6 1616/2/6 1621/2/6
f 1621/2/6 1616/2/6 1622/2/6
f 1619/2/6 1620/2/6 1623/2/6
f 1623/2/6 1620/2/6 1624/2/6
f 1625/1/6 1626/1/6 1629/1/6
f 1629/1/6 1626/1/6 1630/1/6
f 1627/2/6 1628/2/6 1633/2/6
f 1633/2/6 1628/2/6 1634/2/6
f 1631/2/6 1632/2/6 1637/2/6
f 1637/2/6 1632/2/6 1638/2/6
f 1634/2/6 1635/2/6 1639/2/6
f 1639/2/6 1635/2/6 1640/2/6
f 1636/2/6 1637/2/6 1641/2/6
f 1641/2/6 1637/2/6 1642/2/6
f 1643/2/6 1644/2/6 1647/2/6
f 1647/2/6 1644/2/6 1648/2/6
f 1645/2/6 1646/2/6 1649/2/6
f 1649/2/6 1646/2/6 1650/2/6
f 1651/1/6 1652/1/6 1653/1/6
f 1653/1/6 1652/1/6 1654/1/6
f 1655/2/6 1656/2/6 1657/2/6
f 1657/2/6 1656/2/6 1658/2/6
f 1659/2/6 1660/2/6 1661/2/6
f 1661/2/6 1660/2/6 1662/2/6
f 1663/2/6 1664/2/6 1665/2/6
f 1665/2/6 1664/2/6 1666/2/6
f 1669/1/6 1670/1/6 1674/1/6
f 1667/1/6 1668/1/6 1675/1/6
f 1671/2/6 1672/2/6 1676/2/6
f 1676/2/6 1672/2/6 1677/2/6
f 1673/2/6 1674/2/6 1678/2/6
f 1678/2/6 1674/2/6 1679/2/6
f 1667/1/6 1675/1/6 1680/1/6
f 1675/2/6 1676/2/6 1680/2/6
f 1680/2/6 1676/2/6 1681/2/6
f 1679/2/6 1674/2/6 1682/2/6
f 1674/1/6 1670/1/6 1683/1/6
f 1682/2/6 1674/2/6 1683/2/6
f 1667/1/6 1680/1/6 1684/1/6
f 1684/1/6 1680/1/6 1685/1/6
f 1683/1/6 1670/1/6 1686/1/6
f 1686/1/6 1670/1/6 1687/1/6
f 1685/1/6 1680/1/6 1688/1/6
f 1688/1/6 1680/1/6 1689/1/6
f 1683/1/6 1686/1/6 1692/1/6
f 1692/1/6 1686/1/6 1693/1/6
f 1689/2/6 1690/2/6 1694/2/6
f 1694/2/6 1690/2/6 1695/2/6
f 1691/2/6 1692/2/6 1698/2/6
f 1698/2/6 1692/2/6 1699/2/6
f 1695/2/6 1696/2/6 1700/2/6
f 1700/2/6 1696/2/6 1701/2/6
f 1697/2/6 1698/2/6 1702/2/6
f 1702/2/6 1698/2/6 1703/2/6
f 1704/2/6 1705/2/6 1708/2/6
f 1708/2/6 1705/2/6 1709/2/6
f 1706/2/6 1707/2/6 1710/2/6
f 1710/2/6 1707/2/6 1711/2/6
f 1712/1/6 1713/1/6 1714/1/6
f 1714/1/6 1713/1/6 1715/1/6
f 1716/3/6 1717/3/6 1718/3/6
f 1718/3/6 1717/3/6 1719/3/6
f 1720/1/6 1721/1/6 1724/1/6
f 1724/1/6 1721/1/6 1725/1/6
f 1722/1/6 1723/1/6 1726/1/6
f 1726/1/6 1723/1/6 1727/1/6
f 1728/3/6 1729/3/6 1730/3/6
f 1728/3/6 1730/3/6 1733/3/6
f 1730/3/6 1731/3/6 1733/3/6
f 1733/3/6 1731/3/6 1734/3/6
f 1734/3/6 1731/3/6 1735/3/6
f 1732/3/6 1733/3/6 1736/3/6
f 1733/3/6 1734/3/6 1736/3/6
f 1736/3/6 1734/3/6 1737/3/6
f 1738/2/6 1739/2/6 1742/2/6
f 1742/2/6 1739/2/6 1743/2/6
f 1740/2/6 1741/2/6 1744/2/6
f 1744/2/6 1741/2/6 1745/2/6
f 1746/2/6 1747/2/6 1750/2/6
f 1750/2/6 1747/2/6 1751/2/6
f 1748/2/6 1749/2/6 1752/2/6
f 1752/2/6 1749/2/6 1753/2/6
f 1750/1/6 1751/1/6 1754/1/6
f 1754/1/6 1751/1/6 1755/1/6
f 1752/1/6 1753/1/6 1756/1/6
f 1756/1/6 1753/1/6 1757/1/6
f 1758/2/6 1759/2/6 1762/2/6
f 1762/2/6 1759/2/6 1763/2/6
f 1760/2/6 1761/2/6 1764/2/6
f 1764/2/6 1761/2/6 1765/2/6
f 1766/2/6 1767/2/6 1769/2/6
f 1769/2/6 1767/2/6 1770/2/6
f 1768/2/6 1769/2/6 1771/2/6
f 1771/2/6 1769/2/6 1772/2/6
f 1773/1/6 1774/1/6 1777/1/6
f 1777/1/6 1774/1/6 1778/1/6
f 1775/1/6 1776/1/6 1779/1/6
f 1779/1/6 1776/1/6 1780/1/6
f 1781/2/6 1782/2/6 1783/2/6
f 1783/2/6 1782/2/6 1784/2/6
f 1785/2/6 1786/2/6 1787/2/6
f 1787/2/6 1786/2/6 1788/2/6
f 1789/2/6 1790/2/6 1791/2/6
f 1791/2/6 1790/2/6 1792/2/6
