# MagicaVoxel @ Ephtracy

# group
o 

# material
mtllib chest.mtl
usemtl palette

# normals
vn -1 0 0
vn 1 0 0
vn 0 0 1
vn 0 0 -1
vn 0 -1 0
vn 0 1 0

# texcoords
vt 0.263672 0.5
vt 0.271484 0.5
vt 0.376953 0.5
vt 0.427734 0.5

# verts
v -0.6 0 0.4
v -0.6 0 0.3
v -0.6 0 -0.2
v -0.6 0 -0.3
v -0.6 0.4 0.4
v -0.6 0.4 0.3
v -0.6 0.4 -0.2
v -0.6 0.4 -0.3
v -0.6 0.5 0.4
v -0.6 0.5 0.3
v -0.6 0.5 -0.2
v -0.6 0.5 -0.3
v -0.6 0.8 0.4
v -0.6 0.8 0.3
v -0.6 0.8 -0.2
v -0.6 0.8 -0.3
v -0.5 0.8 0.3
v -0.5 0.8 -0.2
v -0.5 0.9 0.3
v -0.5 0.9 -0.2
v -0.4 0.4 -0.3
v -0.4 0.4 -0.4
v -0.4 0.5 -0.3
v -0.4 0.5 -0.4
v -0.3 0.9 0.1
v -0.3 0.9 0
v -0.3 1 0.1
v -0.3 1 0
v 0.2 0.4 -0.3
v 0.2 0.4 -0.4
v 0.2 0.5 -0.3
v 0.2 0.5 -0.4
v -0.2 0.4 -0.3
v -0.2 0.4 -0.4
v -0.2 0.5 -0.3
v -0.2 0.5 -0.4
v 0.3 0.9 0.1
v 0.3 0.9 0
v 0.3 1 0.1
v 0.3 1 0
v 0.4 0.4 -0.3
v 0.4 0.4 -0.4
v 0.4 0.5 -0.3
v 0.4 0.5 -0.4
v 0.5 0.8 0.3
v 0.5 0.8 -0.2
v 0.5 0.9 0.3
v 0.5 0.9 -0.2
v 0.6 0 0.4
v 0.6 0 0.3
v 0.6 0 -0.2
v 0.6 0 -0.3
v 0.6 0.4 0.4
v 0.6 0.4 0.3
v 0.6 0.4 -0.2
v 0.6 0.4 -0.3
v 0.6 0.5 0.4
v 0.6 0.5 0.3
v 0.6 0.5 -0.2
v 0.6 0.5 -0.3
v 0.6 0.8 0.4
v 0.6 0.8 0.3
v 0.6 0.8 -0.2
v 0.6 0.8 -0.3
v -0.6 0 0.4
v -0.6 0.4 0.4
v -0.6 0.5 0.4
v -0.6 0.8 0.4
v -0.5 0 0.4
v -0.5 0.4 0.4
v -0.5 0.5 0.4
v -0.5 0.8 0.4
v 0.5 0 0.4
v 0.5 0.4 0.4
v 0.5 0.5 0.4
v 0.5 0.8 0.4
v 0.6 0 0.4
v 0.6 0.4 0.4
v 0.6 0.5 0.4
v 0.6 0.8 0.4
v -0.5 0.8 0.3
v -0.5 0.9 0.3
v 0.5 0.8 0.3
v 0.5 0.9 0.3
v -0.3 0.9 0.1
v -0.3 1 0.1
v 0.3 0.9 0.1
v 0.3 1 0.1
v -0.3 0.9 0
v -0.3 1 0
v 0.3 0.9 0
v 0.3 1 0
v -0.5 0.8 -0.2
v -0.5 0.9 -0.2
v 0.5 0.8 -0.2
v 0.5 0.9 -0.2
v -0.6 0 -0.3
v -0.6 0.4 -0.3
v -0.6 0.5 -0.3
v -0.6 0.8 -0.3
v -0.5 0 -0.3
v -0.5 0.4 -0.3
v -0.5 0.5 -0.3
v -0.5 0.8 -0.3
v -0.4 0.4 -0.3
v -0.4 0.5 -0.3
v -0.2 0.4 -0.3
v -0.2 0.5 -0.3
v 0.2 0.4 -0.3
v 0.2 0.5 -0.3
v 0.4 0.4 -0.3
v 0.4 0.5 -0.3
v 0.5 0 -0.3
v 0.5 0.4 -0.3
v 0.5 0.5 -0.3
v 0.5 0.8 -0.3
v 0.6 0 -0.3
v 0.6 0.4 -0.3
v 0.6 0.5 -0.3
v 0.6 0.8 -0.3
v -0.4 0.4 -0.4
v -0.4 0.5 -0.4
v -0.2 0.4 -0.4
v -0.2 0.5 -0.4
v 0.2 0.4 -0.4
v 0.2 0.5 -0.4
v 0.4 0.4 -0.4
v 0.4 0.5 -0.4
v -0.6 0 0.4
v -0.5 0 0.4
v 0.5 0 0.4
v 0.6 0 0.4
v -0.6 0 0.3
v -0.5 0 0.3
v 0.5 0 0.3
v 0.6 0 0.3
v -0.6 0 -0.2
v -0.5 0 -0.2
v 0.5 0 -0.2
v 0.6 0 -0.2
v -0.6 0 -0.3
v -0.5 0 -0.3
v 0.5 0 -0.3
v 0.6 0 -0.3
v -0.4 0.4 -0.3
v -0.2 0.4 -0.3
v 0.2 0.4 -0.3
v 0.4 0.4 -0.3
v -0.4 0.4 -0.4
v -0.2 0.4 -0.4
v 0.2 0.4 -0.4
v 0.4 0.4 -0.4
v -0.4 0.5 -0.3
v -0.2 0.5 -0.3
v 0.2 0.5 -0.3
v 0.4 0.5 -0.3
v -0.4 0.5 -0.4
v -0.2 0.5 -0.4
v 0.2 0.5 -0.4
v 0.4 0.5 -0.4
v -0.6 0.8 0.4
v -0.5 0.8 0.4
v 0.5 0.8 0.4
v 0.6 0.8 0.4
v -0.6 0.8 0.3
v -0.5 0.8 0.3
v 0.5 0.8 0.3
v 0.6 0.8 0.3
v -0.6 0.8 -0.2
v -0.5 0.8 -0.2
v 0.5 0.8 -0.2
v 0.6 0.8 -0.2
v -0.6 0.8 -0.3
v -0.5 0.8 -0.3
v 0.5 0.8 -0.3
v 0.6 0.8 -0.3
v -0.5 0.9 0.3
v 0.5 0.9 0.3
v -0.3 0.9 0.1
v 0.3 0.9 0.1
v -0.3 0.9 0
v 0.3 0.9 0
v -0.5 0.9 -0.2
v 0.5 0.9 -0.2
v -0.3 1 0.1
v 0.3 1 0.1
v -0.3 1 0
v 0.3 1 0

# faces
f 5/4/1 2/4/1 1/4/1
f 6/2/1 3/2/1 2/2/1
f 6/4/1 2/4/1 5/4/1
f 7/4/1 4/4/1 3/4/1
f 7/2/1 3/2/1 6/2/1
f 8/4/1 4/4/1 7/4/1
f 9/3/1 6/3/1 5/3/1
f 10/1/1 7/1/1 6/1/1
f 10/3/1 6/3/1 9/3/1
f 11/3/1 8/3/1 7/3/1
f 11/1/1 7/1/1 10/1/1
f 12/3/1 8/3/1 11/3/1
f 13/4/1 10/4/1 9/4/1
f 14/2/1 11/2/1 10/2/1
f 14/4/1 10/4/1 13/4/1
f 15/4/1 12/4/1 11/4/1
f 15/2/1 11/2/1 14/2/1
f 16/4/1 12/4/1 15/4/1
f 19/2/1 18/2/1 17/2/1
f 20/2/1 18/2/1 19/2/1
f 23/4/1 22/4/1 21/4/1
f 24/4/1 22/4/1 23/4/1
f 27/2/1 26/2/1 25/2/1
f 28/2/1 26/2/1 27/2/1
f 31/4/1 30/4/1 29/4/1
f 32/4/1 30/4/1 31/4/1
f 33/4/2 34/4/2 35/4/2
f 35/4/2 34/4/2 36/4/2
f 37/2/2 38/2/2 39/2/2
f 39/2/2 38/2/2 40/2/2
f 41/4/2 42/4/2 43/4/2
f 43/4/2 42/4/2 44/4/2
f 45/2/2 46/2/2 47/2/2
f 47/2/2 46/2/2 48/2/2
f 49/4/2 50/4/2 53/4/2
f 50/2/2 51/2/2 54/2/2
f 53/4/2 50/4/2 54/4/2
f 51/4/2 52/4/2 55/4/2
f 54/2/2 51/2/2 55/2/2
f 55/4/2 52/4/2 56/4/2
f 53/3/2 54/3/2 57/3/2
f 54/1/2 55/1/2 58/1/2
f 57/3/2 54/3/2 58/3/2
f 55/3/2 56/3/2 59/3/2
f 58/1/2 55/1/2 59/1/2
f 59/3/2 56/3/2 60/3/2
f 57/4/2 58/4/2 61/4/2
f 58/2/2 59/2/2 62/2/2
f 61/4/2 58/4/2 62/4/2
f 59/4/2 60/4/2 63/4/2
f 62/2/2 59/2/2 63/2/2
f 63/4/2 60/4/2 64/4/2
f 69/4/3 66/4/3 65/4/3
f 70/3/3 67/3/3 66/3/3
f 70/4/3 66/4/3 69/4/3
f 71/4/3 68/4/3 67/4/3
f 71/3/3 67/3/3 70/3/3
f 72/4/3 68/4/3 71/4/3
f 73/2/3 70/2/3 69/2/3
f 74/1/3 71/1/3 70/1/3
f 74/2/3 70/2/3 73/2/3
f 75/2/3 72/2/3 71/2/3
f 75/1/3 71/1/3 74/1/3
f 76/2/3 72/2/3 75/2/3
f 77/4/3 74/4/3 73/4/3
f 78/3/3 75/3/3 74/3/3
f 78/4/3 74/4/3 77/4/3
f 79/4/3 76/4/3 75/4/3
f 79/3/3 75/3/3 78/3/3
f 80/4/3 76/4/3 79/4/3
f 83/2/3 82/2/3 81/2/3
f 84/2/3 82/2/3 83/2/3
f 87/2/3 86/2/3 85/2/3
f 88/2/3 86/2/3 87/2/3
f 89/2/4 90/2/4 91/2/4
f 91/2/4 90/2/4 92/2/4
f 93/2/4 94/2/4 95/2/4
f 95/2/4 94/2/4 96/2/4
f 97/4/4 98/4/4 101/4/4
f 98/3/4 99/3/4 102/3/4
f 101/4/4 98/4/4 102/4/4
f 99/4/4 100/4/4 103/4/4
f 102/3/4 99/3/4 103/3/4
f 103/4/4 100/4/4 104/4/4
f 101/2/4 102/2/4 105/2/4
f 102/1/4 103/1/4 105/1/4
f 103/2/4 104/2/4 106/2/4
f 105/1/4 103/1/4 106/1/4
f 101/2/4 105/2/4 107/2/4
f 106/2/4 104/2/4 108/2/4
f 101/2/4 107/2/4 109/2/4
f 107/1/4 108/1/4 109/1/4
f 108/2/4 104/2/4 110/2/4
f 109/1/4 108/1/4 110/1/4
f 101/2/4 109/2/4 111/2/4
f 110/2/4 104/2/4 112/2/4
f 101/2/4 111/2/4 113/2/4
f 111/1/4 112/1/4 114/1/4
f 113/2/4 111/2/4 114/2/4
f 112/2/4 104/2/4 115/2/4
f 114/1/4 112/1/4 115/1/4
f 115/2/4 104/2/4 116/2/4
f 113/4/4 114/4/4 117/4/4
f 114/3/4 115/3/4 118/3/4
f 117/4/4 114/4/4 118/4/4
f 115/4/4 116/4/4 119/4/4
f 118/3/4 115/3/4 119/3/4
f 119/4/4 116/4/4 120/4/4
f 121/4/4 122/4/4 123/4/4
f 123/4/4 122/4/4 124/4/4
f 125/4/4 126/4/4 127/4/4
f 127/4/4 126/4/4 128/4/4
f 133/4/5 130/4/5 129/4/5
f 134/2/5 131/2/5 130/2/5
f 134/4/5 130/4/5 133/4/5
f 135/4/5 132/4/5 131/4/5
f 135/2/5 131/2/5 134/2/5
f 136/4/5 132/4/5 135/4/5
f 137/2/5 134/2/5 133/2/5
f 137/2/5 135/2/5 134/2/5
f 137/2/5 136/2/5 135/2/5
f 138/2/5 136/2/5 137/2/5
f 139/2/5 136/2/5 138/2/5
f 140/2/5 136/2/5 139/2/5
f 141/4/5 138/4/5 137/4/5
f 142/2/5 139/2/5 138/2/5
f 142/4/5 138/4/5 141/4/5
f 143/4/5 140/4/5 139/4/5
f 143/2/5 139/2/5 142/2/5
f 144/4/5 140/4/5 143/4/5
f 149/4/5 146/4/5 145/4/5
f 150/4/5 146/4/5 149/4/5
f 151/4/5 148/4/5 147/4/5
f 152/4/5 148/4/5 151/4/5
f 153/4/6 154/4/6 157/4/6
f 157/4/6 154/4/6 158/4/6
f 155/4/6 156/4/6 159/4/6
f 159/4/6 156/4/6 160/4/6
f 161/4/6 162/4/6 165/4/6
f 162/2/6 163/2/6 166/2/6
f 165/4/6 162/4/6 166/4/6
f 163/4/6 164/4/6 167/4/6
f 166/2/6 163/2/6 167/2/6
f 167/4/6 164/4/6 168/4/6
f 165/2/6 166/2/6 169/2/6
f 169/2/6 166/2/6 170/2/6
f 167/2/6 168/2/6 171/2/6
f 171/2/6 168/2/6 172/2/6
f 169/4/6 170/4/6 173/4/6
f 170/2/6 171/2/6 174/2/6
f 173/4/6 170/4/6 174/4/6
f 171/4/6 172/4/6 175/4/6
f 174/2/6 171/2/6 175/2/6
f 175/4/6 172/4/6 176/4/6
f 177/2/6 178/2/6 179/2/6
f 179/2/6 178/2/6 180/2/6
f 177/2/6 179/2/6 181/2/6
f 180/2/6 178/2/6 182/2/6
f 177/2/6 181/2/6 183/2/6
f 181/2/6 182/2/6 183/2/6
f 182/2/6 178/2/6 184/2/6
f 183/2/6 182/2/6 184/2/6
f 185/2/6 186/2/6 187/2/6
f 187/2/6 186/2/6 188/2/6
