# MagicaVoxel @ Ephtracy

# group
o 

# material
mtllib chest.mtl
usemtl palette

# normals
vn -1 0 0
vn 1 0 0
vn 0 0 1
vn 0 0 -1
vn 0 -1 0
vn 0 1 0

# texcoords
vt 0.240234 0.5
vt 0.244141 0.5
vt 0.291016 0.5
vt 0.322266 0.5

# verts
v -0.6 0 0.4
v -0.6 0 0.3
v -0.6 0 -0.2
v -0.6 0 -0.3
v -0.6 0.4 0.4
v -0.6 0.4 0.3
v -0.6 0.4 -0.2
v -0.6 0.4 -0.3
v -0.6 0.5 0.4
v -0.6 0.5 0.3
v -0.6 0.5 -0.2
v -0.6 0.5 -0.3
v -0.6 0.8 0.4
v -0.6 0.8 0.3
v -0.6 0.8 -0.2
v -0.6 0.8 -0.3
v -0.5 0.8 0.3
v -0.5 0.8 -0.2
v -0.5 0.9 0.3
v -0.5 0.9 -0.2
v -0.4 0.4 -0.3
v -0.4 0.4 -0.4
v -0.4 0.5 -0.3
v -0.4 0.5 -0.4
v -0.3 0.9 0.1
v -0.3 0.9 0
v -0.3 1 0.1
v -0.3 1 0
v 0.2 0.4 -0.3
v 0.2 0.4 -0.4
v 0.2 0.5 -0.3
v 0.2 0.5 -0.4
v -0.2 0.4 -0.3
v -0.2 0.4 -0.4
v -0.2 0.5 -0.3
v -0.2 0.5 -0.4
v 0.3 0.9 0.1
v 0.3 0.9 0
v 0.3 1 0.1
v 0.3 1 0
v 0.4 0.4 -0.3
v 0.4 0.4 -0.4
v 0.4 0.5 -0.3
v 0.4 0.5 -0.4
v 0.5 0.8 0.3
v 0.5 0.8 -0.2
v 0.5 0.9 0.3
v 0.5 0.9 -0.2
v 0.6 0 0.4
v 0.6 0 0.3
v 0.6 0 -0.2
v 0.6 0 -0.3
v 0.6 0.4 0.4
v 0.6 0.4 0.3
v 0.6 0.4 -0.2
v 0.6 0.4 -0.3
v 0.6 0.5 0.4
v 0.6 0.5 0.3
v 0.6 0.5 -0.2
v 0.6 0.5 -0.3
v 0.6 0.8 0.4
v 0.6 0.8 0.3
v 0.6 0.8 -0.2
v 0.6 0.8 -0.3
v -0.6 0 0.4
v -0.6 0.4 0.4
v -0.6 0.5 0.4
v -0.6 0.8 0.4
v -0.5 0 0.4
v -0.5 0.4 0.4
v -0.5 0.5 0.4
v -0.5 0.8 0.4
v 0.5 0 0.4
v 0.5 0.4 0.4
v 0.5 0.5 0.4
v 0.5 0.8 0.4
v 0.6 0 0.4
v 0.6 0.4 0.4
v 0.6 0.5 0.4
v 0.6 0.8 0.4
v -0.5 0.8 0.3
v -0.5 0.9 0.3
v 0.5 0.8 0.3
v 0.5 0.9 0.3
v -0.3 0.9 0.1
v -0.3 1 0.1
v 0.3 0.9 0.1
v 0.3 1 0.1
v -0.3 0.9 0
v -0.3 1 0
v 0.3 0.9 0
v 0.3 1 0
v -0.5 0.8 -0.2
v -0.5 0.9 -0.2
v 0.5 0.8 -0.2
v 0.5 0.9 -0.2
v -0.6 0 -0.3
v -0.6 0.4 -0.3
v -0.6 0.5 -0.3
v -0.6 0.8 -0.3
v -0.5 0 -0.3
v -0.5 0.4 -0.3
v -0.5 0.5 -0.3
v -0.5 0.8 -0.3
v -0.4 0.4 -0.3
v -0.4 0.5 -0.3
v -0.2 0.4 -0.3
v -0.2 0.5 -0.3
v 0.2 0.4 -0.3
v 0.2 0.5 -0.3
v 0.4 0.4 -0.3
v 0.4 0.5 -0.3
v 0.5 0 -0.3
v 0.5 0.4 -0.3
v 0.5 0.5 -0.3
v 0.5 0.8 -0.3
v 0.6 0 -0.3
v 0.6 0.4 -0.3
v 0.6 0.5 -0.3
v 0.6 0.8 -0.3
v -0.4 0.4 -0.4
v -0.4 0.5 -0.4
v -0.2 0.4 -0.4
v -0.2 0.5 -0.4
v 0.2 0.4 -0.4
v 0.2 0.5 -0.4
v 0.4 0.4 -0.4
v 0.4 0.5 -0.4
v -0.6 0 0.4
v -0.5 0 0.4
v 0.5 0 0.4
v 0.6 0 0.4
v -0.6 0 0.3
v -0.5 0 0.3
v 0.5 0 0.3
v 0.6 0 0.3
v -0.6 0 -0.2
v -0.5 0 -0.2
v 0.5 0 -0.2
v 0.6 0 -0.2
v -0.6 0 -0.3
v -0.5 0 -0.3
v 0.5 0 -0.3
v 0.6 0 -0.3
v -0.4 0.4 -0.3
v -0.2 0.4 -0.3
v 0.2 0.4 -0.3
v 0.4 0.4 -0.3
v -0.4 0.4 -0.4
v -0.2 0.4 -0.4
v 0.2 0.4 -0.4
v 0.4 0.4 -0.4
v -0.4 0.5 -0.3
v -0.2 0.5 -0.3
v 0.2 0.5 -0.3
v 0.4 0.5 -0.3
v -0.4 0.5 -0.4
v -0.2 0.5 -0.4
v 0.2 0.5 -0.4
v 0.4 0.5 -0.4
v -0.6 0.8 0.4
v -0.5 0.8 0.4
v 0.5 0.8 0.4
v 0.6 0.8 0.4
v -0.6 0.8 0.3
v -0.5 0.8 0.3
v 0.5 0.8 0.3
v 0.6 0.8 0.3
v -0.6 0.8 -0.2
v -0.5 0.8 -0.2
v 0.5 0.8 -0.2
v 0.6 0.8 -0.2
v -0.6 0.8 -0.3
v -0.5 0.8 -0.3
v 0.5 0.8 -0.3
v 0.6 0.8 -0.3
v -0.5 0.9 0.3
v 0.5 0.9 0.3
v -0.3 0.9 0.1
v 0.3 0.9 0.1
v -0.3 0.9 0
v 0.3 0.9 0
v -0.5 0.9 -0.2
v 0.5 0.9 -0.2
v -0.3 1 0.1
v 0.3 1 0.1
v -0.3 1 0
v 0.3 1 0

# faces
f 5/3/1 2/3/1 1/3/1
f 6/2/1 3/2/1 2/2/1
f 6/3/1 2/3/1 5/3/1
f 7/3/1 4/3/1 3/3/1
f 7/2/1 3/2/1 6/2/1
f 8/3/1 4/3/1 7/3/1
f 9/4/1 6/4/1 5/4/1
f 10/1/1 7/1/1 6/1/1
f 10/4/1 6/4/1 9/4/1
f 11/4/1 8/4/1 7/4/1
f 11/1/1 7/1/1 10/1/1
f 12/4/1 8/4/1 11/4/1
f 13/3/1 10/3/1 9/3/1
f 14/2/1 11/2/1 10/2/1
f 14/3/1 10/3/1 13/3/1
f 15/3/1 12/3/1 11/3/1
f 15/2/1 11/2/1 14/2/1
f 16/3/1 12/3/1 15/3/1
f 19/2/1 18/2/1 17/2/1
f 20/2/1 18/2/1 19/2/1
f 23/3/1 22/3/1 21/3/1
f 24/3/1 22/3/1 23/3/1
f 27/2/1 26/2/1 25/2/1
f 28/2/1 26/2/1 27/2/1
f 31/3/1 30/3/1 29/3/1
f 32/3/1 30/3/1 31/3/1
f 33/3/2 34/3/2 35/3/2
f 35/3/2 34/3/2 36/3/2
f 37/2/2 38/2/2 39/2/2
f 39/2/2 38/2/2 40/2/2
f 41/3/2 42/3/2 43/3/2
f 43/3/2 42/3/2 44/3/2
f 45/2/2 46/2/2 47/2/2
f 47/2/2 46/2/2 48/2/2
f 49/3/2 50/3/2 53/3/2
f 50/2/2 51/2/2 54/2/2
f 53/3/2 50/3/2 54/3/2
f 51/3/2 52/3/2 55/3/2
f 54/2/2 51/2/2 55/2/2
f 55/3/2 52/3/2 56/3/2
f 53/4/2 54/4/2 57/4/2
f 54/1/2 55/1/2 58/1/2
f 57/4/2 54/4/2 58/4/2
f 55/4/2 56/4/2 59/4/2
f 58/1/2 55/1/2 59/1/2
f 59/4/2 56/4/2 60/4/2
f 57/3/2 58/3/2 61/3/2
f 58/2/2 59/2/2 62/2/2
f 61/3/2 58/3/2 62/3/2
f 59/3/2 60/3/2 63/3/2
f 62/2/2 59/2/2 63/2/2
f 63/3/2 60/3/2 64/3/2
f 69/3/3 66/3/3 65/3/3
f 70/4/3 67/4/3 66/4/3
f 70/3/3 66/3/3 69/3/3
f 71/3/3 68/3/3 67/3/3
f 71/4/3 67/4/3 70/4/3
f 72/3/3 68/3/3 71/3/3
f 73/2/3 70/2/3 69/2/3
f 74/1/3 71/1/3 70/1/3
f 74/2/3 70/2/3 73/2/3
f 75/2/3 72/2/3 71/2/3
f 75/1/3 71/1/3 74/1/3
f 76/2/3 72/2/3 75/2/3
f 77/3/3 74/3/3 73/3/3
f 78/4/3 75/4/3 74/4/3
f 78/3/3 74/3/3 77/3/3
f 79/3/3 76/3/3 75/3/3
f 79/4/3 75/4/3 78/4/3
f 80/3/3 76/3/3 79/3/3
f 83/2/3 82/2/3 81/2/3
f 84/2/3 82/2/3 83/2/3
f 87/2/3 86/2/3 85/2/3
f 88/2/3 86/2/3 87/2/3
f 89/2/4 90/2/4 91/2/4
f 91/2/4 90/2/4 92/2/4
f 93/2/4 94/2/4 95/2/4
f 95/2/4 94/2/4 96/2/4
f 97/3/4 98/3/4 101/3/4
f 98/4/4 99/4/4 102/4/4
f 101/3/4 98/3/4 102/3/4
f 99/3/4 100/3/4 103/3/4
f 102/4/4 99/4/4 103/4/4
f 103/3/4 100/3/4 104/3/4
f 101/2/4 102/2/4 105/2/4
f 102/1/4 103/1/4 105/1/4
f 103/2/4 104/2/4 106/2/4
f 105/1/4 103/1/4 106/1/4
f 101/2/4 105/2/4 107/2/4
f 106/2/4 104/2/4 108/2/4
f 101/2/4 107/2/4 109/2/4
f 107/1/4 108/1/4 109/1/4
f 108/2/4 104/2/4 110/2/4
f 109/1/4 108/1/4 110/1/4
f 101/2/4 109/2/4 111/2/4
f 110/2/4 104/2/4 112/2/4
f 101/2/4 111/2/4 113/2/4
f 111/1/4 112/1/4 114/1/4
f 113/2/4 111/2/4 114/2/4
f 112/2/4 104/2/4 115/2/4
f 114/1/4 112/1/4 115/1/4
f 115/2/4 104/2/4 116/2/4
f 113/3/4 114/3/4 117/3/4
f 114/4/4 115/4/4 118/4/4
f 117/3/4 114/3/4 118/3/4
f 115/3/4 116/3/4 119/3/4
f 118/4/4 115/4/4 119/4/4
f 119/3/4 116/3/4 120/3/4
f 121/3/4 122/3/4 123/3/4
f 123/3/4 122/3/4 124/3/4
f 125/3/4 126/3/4 127/3/4
f 127/3/4 126/3/4 128/3/4
f 133/3/5 130/3/5 129/3/5
f 134/2/5 131/2/5 130/2/5
f 134/3/5 130/3/5 133/3/5
f 135/3/5 132/3/5 131/3/5
f 135/2/5 131/2/5 134/2/5
f 136/3/5 132/3/5 135/3/5
f 137/2/5 134/2/5 133/2/5
f 137/2/5 135/2/5 134/2/5
f 137/2/5 136/2/5 135/2/5
f 138/2/5 136/2/5 137/2/5
f 139/2/5 136/2/5 138/2/5
f 140/2/5 136/2/5 139/2/5
f 141/3/5 138/3/5 137/3/5
f 142/2/5 139/2/5 138/2/5
f 142/3/5 138/3/5 141/3/5
f 143/3/5 140/3/5 139/3/5
f 143/2/5 139/2/5 142/2/5
f 144/3/5 140/3/5 143/3/5
f 149/3/5 146/3/5 145/3/5
f 150/3/5 146/3/5 149/3/5
f 151/3/5 148/3/5 147/3/5
f 152/3/5 148/3/5 151/3/5
f 153/3/6 154/3/6 157/3/6
f 157/3/6 154/3/6 158/3/6
f 155/3/6 156/3/6 159/3/6
f 159/3/6 156/3/6 160/3/6
f 161/3/6 162/3/6 165/3/6
f 162/2/6 163/2/6 166/2/6
f 165/3/6 162/3/6 166/3/6
f 163/3/6 164/3/6 167/3/6
f 166/2/6 163/2/6 167/2/6
f 167/3/6 164/3/6 168/3/6
f 165/2/6 166/2/6 169/2/6
f 169/2/6 166/2/6 170/2/6
f 167/2/6 168/2/6 171/2/6
f 171/2/6 168/2/6 172/2/6
f 169/3/6 170/3/6 173/3/6
f 170/2/6 171/2/6 174/2/6
f 173/3/6 170/3/6 174/3/6
f 171/3/6 172/3/6 175/3/6
f 174/2/6 171/2/6 175/2/6
f 175/3/6 172/3/6 176/3/6
f 177/2/6 178/2/6 179/2/6
f 179/2/6 178/2/6 180/2/6
f 177/2/6 179/2/6 181/2/6
f 180/2/6 178/2/6 182/2/6
f 177/2/6 181/2/6 183/2/6
f 181/2/6 182/2/6 183/2/6
f 182/2/6 178/2/6 184/2/6
f 183/2/6 182/2/6 184/2/6
f 185/2/6 186/2/6 187/2/6
f 187/2/6 186/2/6 188/2/6
