# MagicaVoxel @ Ephtracy

# group
o 

# material
mtllib Cave Tile 5.mtl
usemtl palette

# normals
vn -1 0 0
vn 1 0 0
vn 0 0 1
vn 0 0 -1
vn 0 -1 0
vn 0 1 0

# texcoords
vt 0.224609 0.5
vt 0.955078 0.5
vt 0.982422 0.5

# verts
v -1.1 0 1.1
v -1.1 0 -1.2
v -1.1 0.1 1.1
v -1.1 0.1 -1.2
v -0.9 0.1 0.8
v -0.9 0.1 0.7
v -0.9 0.3 0.8
v -0.9 0.3 0.7
v -0.7 0.1 -0.8
v -0.7 0.1 -0.9
v -0.7 0.3 -0.8
v -0.7 0.3 -0.9
v -0.6 0.1 0
v -0.6 0.1 -0.1
v -0.6 0.1 -1
v -0.6 0.1 -1.1
v -0.6 0.3 0
v -0.6 0.3 -0.1
v -0.6 0.3 -1
v -0.6 0.3 -1.1
v -0.1 0.1 -0.7
v -0.1 0.1 -0.8
v -0.1 0.2 -0.7
v -0.1 0.2 -0.8
v 0 0.1 -0.5
v 0 0.1 -0.6
v 0 0.2 -0.5
v 0 0.2 -0.6
v 0.5 0.1 0.9
v 0.5 0.1 0.8
v 0.5 0.1 -0.7
v 0.5 0.1 -0.8
v 0.5 0.2 -0.7
v 0.5 0.2 -0.8
v 0.5 0.3 0.9
v 0.5 0.3 0.8
v 0.6 0.1 0.8
v 0.6 0.1 0.7
v 0.6 0.1 -0.6
v 0.6 0.1 -0.7
v 0.6 0.2 0.8
v 0.6 0.2 0.7
v 0.6 0.2 -0.6
v 0.6 0.2 -0.7
v 0.6 0.2 -0.8
v 0.6 0.3 -0.7
v 0.6 0.3 -0.8
v 0.7 0.2 0.8
v 0.7 0.2 0.7
v 0.7 0.3 0.8
v 0.7 0.3 0.7
v 0.8 0.1 0.1
v 0.8 0.1 -0.1
v 0.8 0.2 0
v 0.8 0.2 -0.1
v 0.8 0.3 0.1
v 0.8 0.3 0
v -0.8 0.2 0.8
v -0.8 0.2 0.7
v -0.8 0.3 0.8
v -0.8 0.3 0.7
v -0.7 0.1 0.8
v -0.7 0.1 0.7
v -0.7 0.2 0.8
v -0.7 0.2 0.7
v -0.6 0.1 -0.8
v -0.6 0.1 -0.9
v -0.6 0.3 -0.8
v -0.6 0.3 -0.9
v -0.5 0.1 -1
v -0.5 0.1 -1.1
v -0.5 0.2 0
v -0.5 0.2 -0.1
v -0.5 0.3 0
v -0.5 0.3 -0.1
v -0.5 0.3 -1
v -0.5 0.3 -1.1
v -0.4 0.1 0
v -0.4 0.1 -0.1
v -0.4 0.2 0
v -0.4 0.2 -0.1
v 0 0.1 -0.7
v 0 0.1 -0.8
v 0 0.2 -0.7
v 0 0.2 -0.8
v 0.1 0.1 -0.5
v 0.1 0.1 -0.6
v 0.1 0.2 -0.5
v 0.1 0.2 -0.6
v 0.6 0.2 0.9
v 0.6 0.2 0.8
v 0.6 0.3 0.9
v 0.6 0.3 0.8
v 0.7 0.1 0.9
v 0.7 0.1 0.8
v 0.7 0.1 -0.6
v 0.7 0.1 -0.8
v 0.7 0.2 0.9
v 0.7 0.2 0.8
v 0.7 0.2 -0.6
v 0.7 0.2 -0.7
v 0.7 0.3 -0.7
v 0.7 0.3 -0.8
v 0.8 0.2 0.8
v 0.8 0.2 0.7
v 0.8 0.3 0.8
v 0.8 0.3 0.7
v 0.9 0.1 0.8
v 0.9 0.1 0.7
v 0.9 0.1 0
v 0.9 0.1 -0.1
v 0.9 0.2 0.8
v 0.9 0.2 0.7
v 0.9 0.2 0
v 0.9 0.2 -0.1
v 1 0.1 0.1
v 1 0.1 0
v 1 0.3 0.1
v 1 0.3 0
v 1.2 0 1.1
v 1.2 0 -1.2
v 1.2 0.1 1.1
v 1.2 0.1 -1.2
v -1.1 0 1.1
v -1.1 0.1 1.1
v 1.2 0 1.1
v 1.2 0.1 1.1
v 0.5 0.1 0.9
v 0.5 0.3 0.9
v 0.6 0.2 0.9
v 0.6 0.3 0.9
v 0.7 0.1 0.9
v 0.7 0.2 0.9
v -0.9 0.1 0.8
v -0.9 0.3 0.8
v -0.8 0.2 0.8
v -0.8 0.3 0.8
v -0.7 0.1 0.8
v -0.7 0.2 0.8
v 0.7 0.1 0.8
v 0.7 0.2 0.8
v 0.7 0.3 0.8
v 0.8 0.2 0.8
v 0.8 0.3 0.8
v 0.9 0.1 0.8
v 0.9 0.2 0.8
v 0.8 0.1 0.1
v 0.8 0.3 0.1
v 1 0.1 0.1
v 1 0.3 0.1
v -0.6 0.1 0
v -0.6 0.3 0
v -0.5 0.2 0
v -0.5 0.3 0
v -0.4 0.1 0
v -0.4 0.2 0
v 0 0.1 -0.5
v 0 0.2 -0.5
v 0.1 0.1 -0.5
v 0.1 0.2 -0.5
v 0.6 0.1 -0.6
v 0.6 0.2 -0.6
v 0.7 0.1 -0.6
v 0.7 0.2 -0.6
v -0.1 0.1 -0.7
v -0.1 0.2 -0.7
v 0 0.1 -0.7
v 0 0.2 -0.7
v 0.5 0.1 -0.7
v 0.5 0.2 -0.7
v 0.6 0.1 -0.7
v 0.6 0.2 -0.7
v 0.6 0.3 -0.7
v 0.7 0.2 -0.7
v 0.7 0.3 -0.7
v -0.7 0.1 -0.8
v -0.7 0.3 -0.8
v -0.6 0.1 -0.8
v -0.6 0.3 -0.8
v -0.6 0.1 -1
v -0.6 0.3 -1
v -0.5 0.1 -1
v -0.5 0.3 -1
v 0.5 0.1 0.8
v 0.5 0.3 0.8
v 0.6 0.1 0.8
v 0.6 0.2 0.8
v 0.6 0.3 0.8
v -0.9 0.1 0.7
v -0.9 0.3 0.7
v -0.8 0.2 0.7
v -0.8 0.3 0.7
v -0.7 0.1 0.7
v -0.7 0.2 0.7
v 0.6 0.1 0.7
v 0.6 0.2 0.7
v 0.7 0.2 0.7
v 0.7 0.3 0.7
v 0.8 0.2 0.7
v 0.8 0.3 0.7
v 0.9 0.1 0.7
v 0.9 0.2 0.7
v 0.8 0.2 0
v 0.8 0.3 0
v 0.9 0.1 0
v 0.9 0.2 0
v 1 0.1 0
v 1 0.3 0
v -0.6 0.1 -0.1
v -0.6 0.3 -0.1
v -0.5 0.2 -0.1
v -0.5 0.3 -0.1
v -0.4 0.1 -0.1
v -0.4 0.2 -0.1
v 0.8 0.1 -0.1
v 0.8 0.2 -0.1
v 0.9 0.1 -0.1
v 0.9 0.2 -0.1
v 0 0.1 -0.6
v 0 0.2 -0.6
v 0.1 0.1 -0.6
v 0.1 0.2 -0.6
v -0.1 0.1 -0.8
v -0.1 0.2 -0.8
v 0 0.1 -0.8
v 0 0.2 -0.8
v 0.5 0.1 -0.8
v 0.5 0.2 -0.8
v 0.6 0.2 -0.8
v 0.6 0.3 -0.8
v 0.7 0.1 -0.8
v 0.7 0.3 -0.8
v -0.7 0.1 -0.9
v -0.7 0.3 -0.9
v -0.6 0.1 -0.9
v -0.6 0.3 -0.9
v -0.6 0.1 -1.1
v -0.6 0.3 -1.1
v -0.5 0.1 -1.1
v -0.5 0.3 -1.1
v -1.1 0 -1.2
v -1.1 0.1 -1.2
v 1.2 0 -1.2
v 1.2 0.1 -1.2
v -1.1 0 1.1
v 1.2 0 1.1
v -1 0 1
v 1.1 0 1
v -1 0 -1.1
v 1.1 0 -1.1
v -1.1 0 -1.2
v 1.2 0 -1.2
v -1.1 0.1 1.1
v 1.2 0.1 1.1
v -1 0.1 1
v 1.1 0.1 1
v 0.5 0.1 0.9
v 0.7 0.1 0.9
v -0.9 0.1 0.8
v -0.7 0.1 0.8
v 0.5 0.1 0.8
v 0.6 0.1 0.8
v 0.7 0.1 0.8
v 0.9 0.1 0.8
v -0.9 0.1 0.7
v -0.7 0.1 0.7
v 0.6 0.1 0.7
v 0.9 0.1 0.7
v 0.8 0.1 0.1
v 1 0.1 0.1
v -0.6 0.1 0
v -0.4 0.1 0
v 0.9 0.1 0
v 1 0.1 0
v -0.6 0.1 -0.1
v -0.4 0.1 -0.1
v 0.8 0.1 -0.1
v 0.9 0.1 -0.1
v 0 0.1 -0.5
v 0.1 0.1 -0.5
v 0 0.1 -0.6
v 0.1 0.1 -0.6
v 0.6 0.1 -0.6
v 0.7 0.1 -0.6
v -0.1 0.1 -0.7
v 0 0.1 -0.7
v 0.5 0.1 -0.7
v 0.6 0.1 -0.7
v -0.7 0.1 -0.8
v -0.6 0.1 -0.8
v -0.1 0.1 -0.8
v 0 0.1 -0.8
v 0.5 0.1 -0.8
v 0.7 0.1 -0.8
v -0.7 0.1 -0.9
v -0.6 0.1 -0.9
v -0.6 0.1 -1
v -0.5 0.1 -1
v -1 0.1 -1.1
v -0.6 0.1 -1.1
v -0.5 0.1 -1.1
v 1.1 0.1 -1.1
v -1.1 0.1 -1.2
v 1.2 0.1 -1.2
v 0.6 0.2 0.9
v 0.7 0.2 0.9
v -0.8 0.2 0.8
v -0.7 0.2 0.8
v 0.6 0.2 0.8
v 0.7 0.2 0.8
v 0.8 0.2 0.8
v 0.9 0.2 0.8
v -0.8 0.2 0.7
v -0.7 0.2 0.7
v 0.6 0.2 0.7
v 0.7 0.2 0.7
v 0.8 0.2 0.7
v 0.9 0.2 0.7
v -0.5 0.2 0
v -0.4 0.2 0
v 0.8 0.2 0
v 0.9 0.2 0
v -0.5 0.2 -0.1
v -0.4 0.2 -0.1
v 0.8 0.2 -0.1
v 0.9 0.2 -0.1
v 0 0.2 -0.5
v 0.1 0.2 -0.5
v 0 0.2 -0.6
v 0.1 0.2 -0.6
v 0.6 0.2 -0.6
v 0.7 0.2 -0.6
v -0.1 0.2 -0.7
v 0 0.2 -0.7
v 0.5 0.2 -0.7
v 0.6 0.2 -0.7
v 0.7 0.2 -0.7
v -0.1 0.2 -0.8
v 0 0.2 -0.8
v 0.5 0.2 -0.8
v 0.6 0.2 -0.8
v 0.5 0.3 0.9
v 0.6 0.3 0.9
v -0.9 0.3 0.8
v -0.8 0.3 0.8
v 0.5 0.3 0.8
v 0.6 0.3 0.8
v 0.7 0.3 0.8
v 0.8 0.3 0.8
v -0.9 0.3 0.7
v -0.8 0.3 0.7
v 0.7 0.3 0.7
v 0.8 0.3 0.7
v 0.8 0.3 0.1
v 1 0.3 0.1
v -0.6 0.3 0
v -0.5 0.3 0
v 0.8 0.3 0
v 1 0.3 0
v -0.6 0.3 -0.1
v -0.5 0.3 -0.1
v 0.6 0.3 -0.7
v 0.7 0.3 -0.7
v -0.7 0.3 -0.8
v -0.6 0.3 -0.8
v 0.6 0.3 -0.8
v 0.7 0.3 -0.8
v -0.7 0.3 -0.9
v -0.6 0.3 -0.9
v -0.6 0.3 -1
v -0.5 0.3 -1
v -0.6 0.3 -1.1
v -0.5 0.3 -1.1

# faces
f 3/2/1 2/2/1 1/2/1
f 4/2/1 2/2/1 3/2/1
f 7/3/1 6/3/1 5/3/1
f 8/3/1 6/3/1 7/3/1
f 11/3/1 10/3/1 9/3/1
f 12/3/1 10/3/1 11/3/1
f 17/3/1 14/3/1 13/3/1
f 18/3/1 14/3/1 17/3/1
f 19/3/1 16/3/1 15/3/1
f 20/3/1 16/3/1 19/3/1
f 23/3/1 22/3/1 21/3/1
f 24/3/1 22/3/1 23/3/1
f 27/3/1 26/3/1 25/3/1
f 28/3/1 26/3/1 27/3/1
f 33/3/1 32/3/1 31/3/1
f 34/3/1 32/3/1 33/3/1
f 35/3/1 30/3/1 29/3/1
f 36/3/1 30/3/1 35/3/1
f 41/3/1 38/3/1 37/3/1
f 42/3/1 38/3/1 41/3/1
f 43/3/1 40/3/1 39/3/1
f 44/3/1 40/3/1 43/3/1
f 46/3/1 45/3/1 44/3/1
f 47/3/1 45/3/1 46/3/1
f 50/3/1 49/3/1 48/3/1
f 51/3/1 49/3/1 50/3/1
f 54/3/1 53/3/1 52/3/1
f 55/3/1 53/3/1 54/3/1
f 56/3/1 54/3/1 52/3/1
f 57/3/1 54/3/1 56/3/1
f 58/3/2 59/3/2 60/3/2
f 60/3/2 59/3/2 61/3/2
f 62/3/2 63/3/2 64/3/2
f 64/3/2 63/3/2 65/3/2
f 66/3/2 67/3/2 68/3/2
f 68/3/2 67/3/2 69/3/2
f 72/3/2 73/3/2 74/3/2
f 74/3/2 73/3/2 75/3/2
f 70/3/2 71/3/2 76/3/2
f 76/3/2 71/3/2 77/3/2
f 78/3/2 79/3/2 80/3/2
f 80/3/2 79/3/2 81/3/2
f 82/3/2 83/3/2 84/3/2
f 84/3/2 83/3/2 85/3/2
f 86/3/2 87/3/2 88/3/2
f 88/3/2 87/3/2 89/3/2
f 90/3/2 91/3/2 92/3/2
f 92/3/2 91/3/2 93/3/2
f 94/3/2 95/3/2 98/3/2
f 98/3/2 95/3/2 99/3/2
f 96/3/2 97/3/2 100/3/2
f 100/3/2 97/3/2 101/3/2
f 101/3/2 97/3/2 102/3/2
f 102/3/2 97/3/2 103/3/2
f 104/3/2 105/3/2 106/3/2
f 106/3/2 105/3/2 107/3/2
f 108/3/2 109/3/2 112/3/2
f 112/3/2 109/3/2 113/3/2
f 110/3/2 111/3/2 114/3/2
f 114/3/2 111/3/2 115/3/2
f 116/3/2 117/3/2 118/3/2
f 118/3/2 117/3/2 119/3/2
f 120/2/2 121/2/2 122/2/2
f 122/2/2 121/2/2 123/2/2
f 126/2/3 125/2/3 124/2/3
f 127/2/3 125/2/3 126/2/3
f 130/3/3 129/3/3 128/3/3
f 131/3/3 129/3/3 130/3/3
f 132/3/3 130/3/3 128/3/3
f 133/3/3 130/3/3 132/3/3
f 136/3/3 135/3/3 134/3/3
f 137/3/3 135/3/3 136/3/3
f 138/3/3 136/3/3 134/3/3
f 139/3/3 136/3/3 138/3/3
f 143/3/3 141/3/3 140/3/3
f 143/3/3 142/3/3 141/3/3
f 144/3/3 142/3/3 143/3/3
f 145/3/3 143/3/3 140/3/3
f 146/3/3 143/3/3 145/3/3
f 149/3/3 148/3/3 147/3/3
f 150/3/3 148/3/3 149/3/3
f 153/3/3 152/3/3 151/3/3
f 154/3/3 152/3/3 153/3/3
f 155/3/3 153/3/3 151/3/3
f 156/3/3 153/3/3 155/3/3
f 159/3/3 158/3/3 157/3/3
f 160/3/3 158/3/3 159/3/3
f 163/3/3 162/3/3 161/3/3
f 164/3/3 162/3/3 163/3/3
f 167/3/3 166/3/3 165/3/3
f 168/3/3 166/3/3 167/3/3
f 171/3/3 170/3/3 169/3/3
f 172/3/3 170/3/3 171/3/3
f 174/3/3 173/3/3 172/3/3
f 175/3/3 173/3/3 174/3/3
f 178/3/3 177/3/3 176/3/3
f 179/3/3 177/3/3 178/3/3
f 182/3/3 181/3/3 180/3/3
f 183/3/3 181/3/3 182/3/3
f 184/3/4 185/3/4 186/3/4
f 186/3/4 185/3/4 187/3/4
f 187/3/4 185/3/4 188/3/4
f 189/3/4 190/3/4 191/3/4
f 191/3/4 190/3/4 192/3/4
f 189/3/4 191/3/4 193/3/4
f 193/3/4 191/3/4 194/3/4
f 195/3/4 196/3/4 197/3/4
f 195/3/4 197/3/4 199/3/4
f 197/3/4 198/3/4 199/3/4
f 199/3/4 198/3/4 200/3/4
f 195/3/4 199/3/4 201/3/4
f 201/3/4 199/3/4 202/3/4
f 203/3/4 204/3/4 206/3/4
f 205/3/4 206/3/4 207/3/4
f 206/3/4 204/3/4 208/3/4
f 207/3/4 206/3/4 208/3/4
f 209/3/4 210/3/4 211/3/4
f 211/3/4 210/3/4 212/3/4
f 209/3/4 211/3/4 213/3/4
f 213/3/4 211/3/4 214/3/4
f 215/3/4 216/3/4 217/3/4
f 217/3/4 216/3/4 218/3/4
f 219/3/4 220/3/4 221/3/4
f 221/3/4 220/3/4 222/3/4
f 223/3/4 224/3/4 225/3/4
f 225/3/4 224/3/4 226/3/4
f 227/3/4 228/3/4 229/3/4
f 227/3/4 229/3/4 231/3/4
f 229/3/4 230/3/4 231/3/4
f 231/3/4 230/3/4 232/3/4
f 233/3/4 234/3/4 235/3/4
f 235/3/4 234/3/4 236/3/4
f 237/3/4 238/3/4 239/3/4
f 239/3/4 238/3/4 240/3/4
f 241/2/4 242/2/4 243/2/4
f 243/2/4 242/2/4 244/2/4
f 247/2/5 246/2/5 245/2/5
f 248/2/5 246/2/5 247/2/5
f 249/2/5 247/2/5 245/2/5
f 249/1/5 248/1/5 247/1/5
f 250/2/5 246/2/5 248/2/5
f 250/1/5 248/1/5 249/1/5
f 251/2/5 249/2/5 245/2/5
f 251/2/5 250/2/5 249/2/5
f 252/2/5 246/2/5 250/2/5
f 252/2/5 250/2/5 251/2/5
f 253/2/6 254/2/6 255/2/6
f 255/2/6 254/2/6 256/2/6
f 255/1/6 256/1/6 257/1/6
f 257/1/6 256/1/6 258/1/6
f 255/1/6 257/1/6 259/1/6
f 259/1/6 257/1/6 260/1/6
f 260/1/6 257/1/6 261/1/6
f 258/1/6 256/1/6 263/1/6
f 263/1/6 256/1/6 264/1/6
f 255/1/6 259/1/6 265/1/6
f 261/1/6 262/1/6 266/1/6
f 260/1/6 261/1/6 266/1/6
f 266/1/6 262/1/6 267/1/6
f 264/1/6 256/1/6 268/1/6
f 266/1/6 267/1/6 269/1/6
f 267/1/6 268/1/6 269/1/6
f 265/1/6 266/1/6 269/1/6
f 268/1/6 256/1/6 270/1/6
f 269/1/6 268/1/6 270/1/6
f 265/1/6 269/1/6 271/1/6
f 271/1/6 269/1/6 272/1/6
f 270/1/6 256/1/6 274/1/6
f 265/1/6 271/1/6 275/1/6
f 272/1/6 269/1/6 276/1/6
f 276/1/6 269/1/6 277/1/6
f 273/1/6 274/1/6 278/1/6
f 276/1/6 277/1/6 279/1/6
f 277/1/6 278/1/6 279/1/6
f 275/1/6 276/1/6 279/1/6
f 279/1/6 278/1/6 280/1/6
f 275/1/6 279/1/6 281/1/6
f 280/1/6 278/1/6 282/1/6
f 282/1/6 278/1/6 283/1/6
f 283/1/6 278/1/6 284/1/6
f 275/1/6 281/1/6 285/1/6
f 281/1/6 282/1/6 285/1/6
f 282/1/6 283/1/6 285/1/6
f 285/1/6 283/1/6 286/1/6
f 286/1/6 283/1/6 287/1/6
f 287/1/6 283/1/6 288/1/6
f 265/1/6 275/1/6 289/1/6
f 275/1/6 285/1/6 289/1/6
f 289/1/6 285/1/6 290/1/6
f 290/1/6 285/1/6 291/1/6
f 286/1/6 287/1/6 292/1/6
f 292/1/6 287/1/6 293/1/6
f 284/1/6 278/1/6 294/1/6
f 265/1/6 289/1/6 295/1/6
f 292/1/6 293/1/6 296/1/6
f 291/1/6 292/1/6 296/1/6
f 290/1/6 291/1/6 296/1/6
f 293/1/6 294/1/6 296/1/6
f 296/1/6 294/1/6 297/1/6
f 295/1/6 296/1/6 297/1/6
f 297/1/6 294/1/6 298/1/6
f 253/2/6 255/2/6 299/2/6
f 255/1/6 265/1/6 299/1/6
f 295/1/6 297/1/6 299/1/6
f 265/1/6 295/1/6 299/1/6
f 299/1/6 297/1/6 300/1/6
f 298/1/6 294/1/6 301/1/6
f 256/2/6 254/2/6 302/2/6
f 294/1/6 278/1/6 302/1/6
f 301/1/6 294/1/6 302/1/6
f 278/1/6 274/1/6 302/1/6
f 274/1/6 256/1/6 302/1/6
f 299/2/6 300/2/6 303/2/6
f 300/2/6 301/2/6 303/2/6
f 301/2/6 302/2/6 303/2/6
f 253/2/6 299/2/6 303/2/6
f 302/2/6 254/2/6 304/2/6
f 303/2/6 302/2/6 304/2/6
f 305/3/6 306/3/6 309/3/6
f 309/3/6 306/3/6 310/3/6
f 307/3/6 308/3/6 313/3/6
f 313/3/6 308/3/6 314/3/6
f 309/3/6 310/3/6 315/3/6
f 315/3/6 310/3/6 316/3/6
f 311/3/6 312/3/6 317/3/6
f 317/3/6 312/3/6 318/3/6
f 319/3/6 320/3/6 323/3/6
f 323/3/6 320/3/6 324/3/6
f 321/3/6 322/3/6 325/3/6
f 325/3/6 322/3/6 326/3/6
f 327/3/6 328/3/6 329/3/6
f 329/3/6 328/3/6 330/3/6
f 331/3/6 332/3/6 336/3/6
f 336/3/6 332/3/6 337/3/6
f 333/3/6 334/3/6 338/3/6
f 338/3/6 334/3/6 339/3/6
f 335/3/6 336/3/6 340/3/6
f 340/3/6 336/3/6 341/3/6
f 342/3/6 343/3/6 346/3/6
f 346/3/6 343/3/6 347/3/6
f 344/3/6 345/3/6 350/3/6
f 350/3/6 345/3/6 351/3/6
f 348/3/6 349/3/6 352/3/6
f 352/3/6 349/3/6 353/3/6
f 354/3/6 355/3/6 358/3/6
f 358/3/6 355/3/6 359/3/6
f 356/3/6 357/3/6 360/3/6
f 360/3/6 357/3/6 361/3/6
f 362/3/6 363/3/6 366/3/6
f 366/3/6 363/3/6 367/3/6
f 364/3/6 365/3/6 368/3/6
f 368/3/6 365/3/6 369/3/6
f 370/3/6 371/3/6 372/3/6
f 372/3/6 371/3/6 373/3/6
