# MagicaVoxel @ Ephtracy

# group
o 

# material
mtllib Cave Tile 2.mtl
usemtl palette

# normals
vn -1 0 0
vn 1 0 0
vn 0 0 1
vn 0 0 -1
vn 0 -1 0
vn 0 1 0

# texcoords
vt 0.224609 0.5
vt 0.955078 0.5
vt 0.982422 0.5

# verts
v -1.1 0 1.1
v -1.1 0 -1.2
v -1.1 0.1 1.1
v -1.1 0.1 -1.2
v -0.8 0.1 0
v -0.8 0.1 -0.1
v -0.8 0.3 0
v -0.8 0.3 -0.1
v -0.4 0.1 0.7
v -0.4 0.1 0.6
v -0.4 0.2 0.7
v -0.4 0.2 0.6
v 0 0.1 -0.7
v 0 0.1 -0.8
v 0 0.3 -0.7
v 0 0.3 -0.8
v 0.1 0.1 0
v 0.1 0.1 -0.1
v 0.1 0.1 -0.6
v 0.1 0.1 -0.7
v 0.1 0.2 0
v 0.1 0.2 -0.1
v 0.1 0.2 -0.6
v 0.1 0.2 -0.7
v 0.2 0.1 0.1
v 0.2 0.1 0
v 0.2 0.1 -0.9
v 0.2 0.1 -1
v 0.2 0.2 0.1
v 0.2 0.2 0
v 0.2 0.2 -0.9
v 0.2 0.2 -1
v 0.4 0.1 -0.8
v 0.4 0.1 -0.9
v 0.4 0.2 -0.8
v 0.4 0.2 -0.9
v 0.8 0.1 0.5
v 0.8 0.1 0.4
v 0.8 0.1 0.3
v 0.8 0.1 0.2
v 0.8 0.2 0.5
v 0.8 0.2 0.4
v 0.8 0.2 0.3
v 0.8 0.2 0.2
v -0.7 0.1 0
v -0.7 0.1 -0.1
v -0.7 0.3 0
v -0.7 0.3 -0.1
v -0.3 0.1 0.7
v -0.3 0.1 0.6
v -0.3 0.2 0.7
v -0.3 0.2 0.6
v 0.1 0.1 -0.7
v 0.1 0.1 -0.8
v 0.1 0.2 -0.7
v 0.1 0.3 -0.7
v 0.1 0.3 -0.8
v 0.2 0.1 0
v 0.2 0.1 -0.1
v 0.2 0.1 -0.6
v 0.2 0.1 -0.7
v 0.2 0.2 0
v 0.2 0.2 -0.1
v 0.2 0.2 -0.6
v 0.2 0.2 -0.7
v 0.3 0.1 0.1
v 0.3 0.1 0
v 0.3 0.1 -0.9
v 0.3 0.1 -1
v 0.3 0.2 0.1
v 0.3 0.2 0
v 0.3 0.2 -0.9
v 0.3 0.2 -1
v 0.5 0.1 -0.8
v 0.5 0.1 -0.9
v 0.5 0.2 -0.8
v 0.5 0.2 -0.9
v 0.9 0.1 0.5
v 0.9 0.1 0.4
v 0.9 0.1 0.3
v 0.9 0.1 0.2
v 0.9 0.2 0.5
v 0.9 0.2 0.4
v 0.9 0.2 0.3
v 0.9 0.2 0.2
v 1.2 0 1.1
v 1.2 0 -1.2
v 1.2 0.1 1.1
v 1.2 0.1 -1.2
v -1.1 0 1.1
v -1.1 0.1 1.1
v 1.2 0 1.1
v 1.2 0.1 1.1
v -0.4 0.1 0.7
v -0.4 0.2 0.7
v -0.3 0.1 0.7
v -0.3 0.2 0.7
v 0.8 0.1 0.5
v 0.8 0.2 0.5
v 0.9 0.1 0.5
v 0.9 0.2 0.5
v 0.8 0.1 0.3
v 0.8 0.2 0.3
v 0.9 0.1 0.3
v 0.9 0.2 0.3
v 0.2 0.1 0.1
v 0.2 0.2 0.1
v 0.3 0.1 0.1
v 0.3 0.2 0.1
v -0.8 0.1 0
v -0.8 0.3 0
v -0.7 0.1 0
v -0.7 0.3 0
v 0.1 0.1 0
v 0.1 0.2 0
v 0.2 0.1 0
v 0.2 0.2 0
v 0.1 0.1 -0.6
v 0.1 0.2 -0.6
v 0.2 0.1 -0.6
v 0.2 0.2 -0.6
v 0 0.1 -0.7
v 0 0.3 -0.7
v 0.1 0.1 -0.7
v 0.1 0.2 -0.7
v 0.1 0.3 -0.7
v 0.4 0.1 -0.8
v 0.4 0.2 -0.8
v 0.5 0.1 -0.8
v 0.5 0.2 -0.8
v 0.2 0.1 -0.9
v 0.2 0.2 -0.9
v 0.3 0.1 -0.9
v 0.3 0.2 -0.9
v -0.4 0.1 0.6
v -0.4 0.2 0.6
v -0.3 0.1 0.6
v -0.3 0.2 0.6
v 0.8 0.1 0.4
v 0.8 0.2 0.4
v 0.9 0.1 0.4
v 0.9 0.2 0.4
v 0.8 0.1 0.2
v 0.8 0.2 0.2
v 0.9 0.1 0.2
v 0.9 0.2 0.2
v 0.2 0.1 0
v 0.2 0.2 0
v 0.3 0.1 0
v 0.3 0.2 0
v -0.8 0.1 -0.1
v -0.8 0.3 -0.1
v -0.7 0.1 -0.1
v -0.7 0.3 -0.1
v 0.1 0.1 -0.1
v 0.1 0.2 -0.1
v 0.2 0.1 -0.1
v 0.2 0.2 -0.1
v 0.1 0.1 -0.7
v 0.1 0.2 -0.7
v 0.2 0.1 -0.7
v 0.2 0.2 -0.7
v 0 0.1 -0.8
v 0 0.3 -0.8
v 0.1 0.1 -0.8
v 0.1 0.3 -0.8
v 0.4 0.1 -0.9
v 0.4 0.2 -0.9
v 0.5 0.1 -0.9
v 0.5 0.2 -0.9
v 0.2 0.1 -1
v 0.2 0.2 -1
v 0.3 0.1 -1
v 0.3 0.2 -1
v -1.1 0 -1.2
v -1.1 0.1 -1.2
v 1.2 0 -1.2
v 1.2 0.1 -1.2
v -1.1 0 1.1
v 1.2 0 1.1
v -1 0 1
v 1.1 0 1
v -1 0 -1.1
v 1.1 0 -1.1
v -1.1 0 -1.2
v 1.2 0 -1.2
v -1.1 0.1 1.1
v 1.2 0.1 1.1
v -1 0.1 1
v 1.1 0.1 1
v -0.4 0.1 0.7
v -0.3 0.1 0.7
v -0.4 0.1 0.6
v -0.3 0.1 0.6
v 0.8 0.1 0.5
v 0.9 0.1 0.5
v 0.8 0.1 0.4
v 0.9 0.1 0.4
v 0.8 0.1 0.3
v 0.9 0.1 0.3
v 0.8 0.1 0.2
v 0.9 0.1 0.2
v 0.2 0.1 0.1
v 0.3 0.1 0.1
v -0.8 0.1 0
v -0.7 0.1 0
v 0.1 0.1 0
v 0.2 0.1 0
v 0.3 0.1 0
v -0.8 0.1 -0.1
v -0.7 0.1 -0.1
v 0.1 0.1 -0.1
v 0.2 0.1 -0.1
v 0.1 0.1 -0.6
v 0.2 0.1 -0.6
v 0 0.1 -0.7
v 0.1 0.1 -0.7
v 0.2 0.1 -0.7
v 0 0.1 -0.8
v 0.1 0.1 -0.8
v 0.4 0.1 -0.8
v 0.5 0.1 -0.8
v 0.2 0.1 -0.9
v 0.3 0.1 -0.9
v 0.4 0.1 -0.9
v 0.5 0.1 -0.9
v 0.2 0.1 -1
v 0.3 0.1 -1
v -1 0.1 -1.1
v 1.1 0.1 -1.1
v -1.1 0.1 -1.2
v 1.2 0.1 -1.2
v -0.4 0.2 0.7
v -0.3 0.2 0.7
v -0.4 0.2 0.6
v -0.3 0.2 0.6
v 0.8 0.2 0.5
v 0.9 0.2 0.5
v 0.8 0.2 0.4
v 0.9 0.2 0.4
v 0.8 0.2 0.3
v 0.9 0.2 0.3
v 0.8 0.2 0.2
v 0.9 0.2 0.2
v 0.2 0.2 0.1
v 0.3 0.2 0.1
v 0.1 0.2 0
v 0.2 0.2 0
v 0.3 0.2 0
v 0.1 0.2 -0.1
v 0.2 0.2 -0.1
v 0.1 0.2 -0.6
v 0.2 0.2 -0.6
v 0.1 0.2 -0.7
v 0.2 0.2 -0.7
v 0.4 0.2 -0.8
v 0.5 0.2 -0.8
v 0.2 0.2 -0.9
v 0.3 0.2 -0.9
v 0.4 0.2 -0.9
v 0.5 0.2 -0.9
v 0.2 0.2 -1
v 0.3 0.2 -1
v -0.8 0.3 0
v -0.7 0.3 0
v -0.8 0.3 -0.1
v -0.7 0.3 -0.1
v 0 0.3 -0.7
v 0.1 0.3 -0.7
v 0 0.3 -0.8
v 0.1 0.3 -0.8

# faces
f 3/2/1 2/2/1 1/2/1
f 4/2/1 2/2/1 3/2/1
f 7/3/1 6/3/1 5/3/1
f 8/3/1 6/3/1 7/3/1
f 11/3/1 10/3/1 9/3/1
f 12/3/1 10/3/1 11/3/1
f 15/3/1 14/3/1 13/3/1
f 16/3/1 14/3/1 15/3/1
f 21/3/1 18/3/1 17/3/1
f 22/3/1 18/3/1 21/3/1
f 23/3/1 20/3/1 19/3/1
f 24/3/1 20/3/1 23/3/1
f 29/3/1 26/3/1 25/3/1
f 30/3/1 26/3/1 29/3/1
f 31/3/1 28/3/1 27/3/1
f 32/3/1 28/3/1 31/3/1
f 35/3/1 34/3/1 33/3/1
f 36/3/1 34/3/1 35/3/1
f 41/3/1 38/3/1 37/3/1
f 42/3/1 38/3/1 41/3/1
f 43/3/1 40/3/1 39/3/1
f 44/3/1 40/3/1 43/3/1
f 45/3/2 46/3/2 47/3/2
f 47/3/2 46/3/2 48/3/2
f 49/3/2 50/3/2 51/3/2
f 51/3/2 50/3/2 52/3/2
f 53/3/2 54/3/2 55/3/2
f 55/3/2 54/3/2 56/3/2
f 56/3/2 54/3/2 57/3/2
f 58/3/2 59/3/2 62/3/2
f 62/3/2 59/3/2 63/3/2
f 60/3/2 61/3/2 64/3/2
f 64/3/2 61/3/2 65/3/2
f 66/3/2 67/3/2 70/3/2
f 70/3/2 67/3/2 71/3/2
f 68/3/2 69/3/2 72/3/2
f 72/3/2 69/3/2 73/3/2
f 74/3/2 75/3/2 76/3/2
f 76/3/2 75/3/2 77/3/2
f 78/3/2 79/3/2 82/3/2
f 82/3/2 79/3/2 83/3/2
f 80/3/2 81/3/2 84/3/2
f 84/3/2 81/3/2 85/3/2
f 86/2/2 87/2/2 88/2/2
f 88/2/2 87/2/2 89/2/2
f 92/2/3 91/2/3 90/2/3
f 93/2/3 91/2/3 92/2/3
f 96/3/3 95/3/3 94/3/3
f 97/3/3 95/3/3 96/3/3
f 100/3/3 99/3/3 98/3/3
f 101/3/3 99/3/3 100/3/3
f 104/3/3 103/3/3 102/3/3
f 105/3/3 103/3/3 104/3/3
f 108/3/3 107/3/3 106/3/3
f 109/3/3 107/3/3 108/3/3
f 112/3/3 111/3/3 110/3/3
f 113/3/3 111/3/3 112/3/3
f 116/3/3 115/3/3 114/3/3
f 117/3/3 115/3/3 116/3/3
f 120/3/3 119/3/3 118/3/3
f 121/3/3 119/3/3 120/3/3
f 124/3/3 123/3/3 122/3/3
f 125/3/3 123/3/3 124/3/3
f 126/3/3 123/3/3 125/3/3
f 129/3/3 128/3/3 127/3/3
f 130/3/3 128/3/3 129/3/3
f 133/3/3 132/3/3 131/3/3
f 134/3/3 132/3/3 133/3/3
f 135/3/4 136/3/4 137/3/4
f 137/3/4 136/3/4 138/3/4
f 139/3/4 140/3/4 141/3/4
f 141/3/4 140/3/4 142/3/4
f 143/3/4 144/3/4 145/3/4
f 145/3/4 144/3/4 146/3/4
f 147/3/4 148/3/4 149/3/4
f 149/3/4 148/3/4 150/3/4
f 151/3/4 152/3/4 153/3/4
f 153/3/4 152/3/4 154/3/4
f 155/3/4 156/3/4 157/3/4
f 157/3/4 156/3/4 158/3/4
f 159/3/4 160/3/4 161/3/4
f 161/3/4 160/3/4 162/3/4
f 163/3/4 164/3/4 165/3/4
f 165/3/4 164/3/4 166/3/4
f 167/3/4 168/3/4 169/3/4
f 169/3/4 168/3/4 170/3/4
f 171/3/4 172/3/4 173/3/4
f 173/3/4 172/3/4 174/3/4
f 175/2/4 176/2/4 177/2/4
f 177/2/4 176/2/4 178/2/4
f 181/2/5 180/2/5 179/2/5
f 182/2/5 180/2/5 181/2/5
f 183/2/5 181/2/5 179/2/5
f 183/1/5 182/1/5 181/1/5
f 184/2/5 180/2/5 182/2/5
f 184/1/5 182/1/5 183/1/5
f 185/2/5 183/2/5 179/2/5
f 185/2/5 184/2/5 183/2/5
f 186/2/5 180/2/5 184/2/5
f 186/2/5 184/2/5 185/2/5
f 187/2/6 188/2/6 189/2/6
f 189/2/6 188/2/6 190/2/6
f 189/1/6 190/1/6 191/1/6
f 191/1/6 190/1/6 192/1/6
f 189/1/6 191/1/6 193/1/6
f 192/1/6 190/1/6 194/1/6
f 194/1/6 190/1/6 195/1/6
f 193/1/6 194/1/6 195/1/6
f 195/1/6 190/1/6 196/1/6
f 193/1/6 195/1/6 197/1/6
f 196/1/6 190/1/6 198/1/6
f 193/1/6 197/1/6 199/1/6
f 197/1/6 198/1/6 199/1/6
f 198/1/6 190/1/6 200/1/6
f 199/1/6 198/1/6 200/1/6
f 193/1/6 199/1/6 201/1/6
f 200/1/6 190/1/6 202/1/6
f 193/1/6 201/1/6 203/1/6
f 201/1/6 202/1/6 203/1/6
f 203/1/6 202/1/6 204/1/6
f 189/1/6 193/1/6 205/1/6
f 193/1/6 203/1/6 205/1/6
f 205/1/6 203/1/6 206/1/6
f 206/1/6 203/1/6 207/1/6
f 207/1/6 203/1/6 208/1/6
f 204/1/6 202/1/6 209/1/6
f 189/1/6 205/1/6 210/1/6
f 206/1/6 207/1/6 211/1/6
f 211/1/6 207/1/6 212/1/6
f 208/1/6 209/1/6 213/1/6
f 211/1/6 212/1/6 214/1/6
f 212/1/6 213/1/6 214/1/6
f 210/1/6 211/1/6 214/1/6
f 213/1/6 209/1/6 215/1/6
f 214/1/6 213/1/6 215/1/6
f 210/1/6 214/1/6 216/1/6
f 216/1/6 214/1/6 217/1/6
f 215/1/6 209/1/6 218/1/6
f 210/1/6 216/1/6 219/1/6
f 217/1/6 218/1/6 220/1/6
f 209/1/6 202/1/6 221/1/6
f 218/1/6 209/1/6 221/1/6
f 220/1/6 218/1/6 221/1/6
f 221/1/6 202/1/6 222/1/6
f 219/1/6 220/1/6 223/1/6
f 220/1/6 221/1/6 223/1/6
f 223/1/6 221/1/6 224/1/6
f 224/1/6 221/1/6 225/1/6
f 222/1/6 202/1/6 226/1/6
f 219/1/6 223/1/6 227/1/6
f 224/1/6 225/1/6 228/1/6
f 225/1/6 226/1/6 228/1/6
f 187/2/6 189/2/6 229/2/6
f 227/1/6 228/1/6 229/1/6
f 210/1/6 219/1/6 229/1/6
f 219/1/6 227/1/6 229/1/6
f 189/1/6 210/1/6 229/1/6
f 228/1/6 226/1/6 230/1/6
f 229/1/6 228/1/6 230/1/6
f 190/2/6 188/2/6 230/2/6
f 202/1/6 190/1/6 230/1/6
f 226/1/6 202/1/6 230/1/6
f 187/2/6 229/2/6 231/2/6
f 229/2/6 230/2/6 231/2/6
f 230/2/6 188/2/6 232/2/6
f 231/2/6 230/2/6 232/2/6
f 233/3/6 234/3/6 235/3/6
f 235/3/6 234/3/6 236/3/6
f 237/3/6 238/3/6 239/3/6
f 239/3/6 238/3/6 240/3/6
f 241/3/6 242/3/6 243/3/6
f 243/3/6 242/3/6 244/3/6
f 245/3/6 246/3/6 248/3/6
f 248/3/6 246/3/6 249/3/6
f 247/3/6 248/3/6 250/3/6
f 250/3/6 248/3/6 251/3/6
f 252/3/6 253/3/6 254/3/6
f 254/3/6 253/3/6 255/3/6
f 256/3/6 257/3/6 260/3/6
f 260/3/6 257/3/6 261/3/6
f 258/3/6 259/3/6 262/3/6
f 262/3/6 259/3/6 263/3/6
f 264/3/6 265/3/6 266/3/6
f 266/3/6 265/3/6 267/3/6
f 268/3/6 269/3/6 270/3/6
f 270/3/6 269/3/6 271/3/6
